<?xml version="1.0" encoding="UTF-8"?>
<svg height="128px" viewBox="0 0 128 128" width="128px" xmlns="http://www.w3.org/2000/svg">
    <path d="m 20.25 15.875 h 88 c 4.417969 0 8 3.582031 8 8 v 84 c 0 4.417969 -3.582031 8 -8 8 h -88 c -4.417969 0 -8 -3.582031 -8 -8 v -84 c 0 -4.417969 3.582031 -8 8 -8 z m 0 0" fill="#cdab8f"/>
    <path d="m 48.773438 27.757812 h 1.125 l 0.125 74.863282 h -1.375 z m 0 0"/>
    <path d="m 24.335938 52.648438 v -0.835938 l 76.097656 -0.089844 v 1.019532 z m 0 0"/>
    <path d="m 26.386719 79.984375 v -0.835937 l 73.804687 -0.089844 v 1.019531 z m 0 0"/>
    <path d="m 74.433594 27.65625 h 1.125 l 0.125 76.632812 h -1.375 z m 0 0"/>
    <path d="m 83.96875 30.527344 h 9.578125 v 0.910156 l -5.445313 15.054688 h -2.144531 l 5.300781 -14.15625 h -7.289062 z m -1.414062 -4.371094" fill="#e01b24"/>
    <path d="m 59.902344 44.488281 h 6.988281 v 1.820313 h -9.246094 v -1.820313 c 1.273438 -1.402343 2.382813 -2.636719 3.335938 -3.710937 c 0.945312 -1.078125 1.601562 -1.84375 1.964843 -2.289063 c 0.679688 -0.867187 1.140626 -1.574219 1.378907 -2.109375 c 0.234375 -0.539062 0.355469 -1.089844 0.355469 -1.65625 c 0 -0.886718 -0.253907 -1.582031 -0.757813 -2.089844 c -0.496094 -0.503906 -1.175781 -0.757812 -2.042969 -0.757812 c -0.621094 0 -1.273437 0.117188 -1.957031 0.347656 c -0.675781 0.234375 -1.394531 0.59375 -2.15625 1.074219 v -2.179687 c 0.703125 -0.351563 1.394531 -0.613282 2.066406 -0.796876 c 0.675781 -0.175781 1.339844 -0.265624 2.003907 -0.265624 c 1.488281 0 2.683593 0.414062 3.585937 1.246093 c 0.90625 0.828125 1.359375 1.914063 1.359375 3.269531 c 0 0.683594 -0.15625 1.371094 -0.457031 2.050782 c -0.296875 0.6875 -0.785157 1.441406 -1.46875 2.265625 c -0.375 0.464843 -0.929688 1.109375 -1.652344 1.925781 s -1.820313 2.042969 -3.300781 3.675781 z m -3.800782 -18.511719"/>
    <path d="m 57.101562 57.375 h 9.578126 v 0.910156 l -5.445313 15.050782 h -2.144531 l 5.300781 -14.152344 h -7.289063 z m -1.414062 -4.371094" fill="#e01b24"/>
    <path d="m 37.050781 59.285156 l -4.800781 8.4375 h 4.800781 z m -0.347656 -1.957031 h 2.390625 v 10.394531 h 2.023438 v 1.761719 h -2.023438 v 3.804687 h -2.042969 v -3.804687 h -6.457031 v -2.042969 z m -7.144531 -4.371094"/>
    <path d="m 37.1875 91.964844 c -0.917969 0 -1.628906 0.273437 -2.132812 0.816406 c -0.496094 0.535156 -0.742188 1.292969 -0.742188 2.273438 c 0 0.988281 0.25 1.757812 0.753906 2.300781 c 0.511719 0.542969 1.21875 0.816406 2.121094 0.816406 c 0.917969 0 1.625 -0.269531 2.125 -0.804687 c 0.503906 -0.542969 0.753906 -1.3125 0.753906 -2.3125 c 0 -0.96875 -0.253906 -1.730469 -0.765625 -2.273438 c -0.507812 -0.542969 -1.207031 -0.816406 -2.113281 -0.816406 z m -1.796875 -0.898438 c -0.878906 -0.234375 -1.5625 -0.667968 -2.058594 -1.308594 c -0.488281 -0.644531 -0.734375 -1.417968 -0.734375 -2.320312 c 0 -1.277344 0.414063 -2.28125 1.234375 -3.023438 c 0.824219 -0.746093 1.941407 -1.121093 3.355469 -1.121093 s 2.535156 0.375 3.359375 1.121093 c 0.820313 0.742188 1.230469 1.746094 1.230469 3.023438 c 0 0.902344 -0.25 1.675781 -0.742188 2.320312 c -0.488281 0.640626 -1.171875 1.074219 -2.046875 1.308594 c 1.015625 0.230469 1.792969 0.707032 2.335938 1.421875 c 0.539062 0.71875 0.808593 1.640625 0.808593 2.765625 c 0 1.445313 -0.4375 2.578125 -1.308593 3.394532 c -0.875 0.8125 -2.085938 1.214843 -3.636719 1.214843 c -1.546875 0 -2.761719 -0.402343 -3.632812 -1.214843 c -0.875 -0.808594 -1.3125 -1.929688 -1.3125 -3.371094 c 0 -1.136719 0.269531 -2.058594 0.8125 -2.777344 c 0.539062 -0.722656 1.316406 -1.203125 2.335937 -1.433594 z m -0.746094 -3.433594 c 0 0.859376 0.214844 1.511719 0.65625 1.960938 c 0.433594 0.445312 1.066407 0.667969 1.886719 0.667969 c 0.824219 0 1.453125 -0.222657 1.890625 -0.667969 c 0.4375 -0.449219 0.65625 -1.101562 0.65625 -1.960938 c 0 -0.867187 -0.21875 -1.53125 -0.65625 -1.980468 c -0.429687 -0.460938 -1.0625 -0.691406 -1.890625 -0.691406 c -0.820312 0 -1.453125 0.230468 -1.886719 0.691406 c -0.441406 0.460937 -0.65625 1.117187 -0.65625 1.980468 z m -3.734375 -8.417968"/>
    <path d="m 90.21875 91.445312 c 1 0.273438 1.761719 0.765626 2.289062 1.480469 c 0.535157 0.710938 0.800782 1.59375 0.800782 2.648438 c 0 1.472656 -0.472656 2.625 -1.410156 3.464843 c -0.945313 0.84375 -2.246094 1.261719 -3.914063 1.261719 c -0.695313 0 -1.40625 -0.070312 -2.132813 -0.210937 c -0.726562 -0.128906 -1.4375 -0.324219 -2.132812 -0.582032 v -2.148437 c 0.6875 0.375 1.367188 0.65625 2.042969 0.839844 c 0.671875 0.1875 1.339843 0.28125 2 0.28125 c 1.125 0 1.992187 -0.269531 2.601562 -0.804688 c 0.605469 -0.535156 0.910157 -1.308593 0.910157 -2.308593 c 0 -0.925782 -0.304688 -1.660157 -0.910157 -2.207032 c -0.609375 -0.542968 -1.429687 -0.816406 -2.457031 -0.816406 h -1.566406 v -1.773438 h 1.566406 c 0.949219 0 1.683594 -0.214843 2.210938 -0.652343 c 0.535156 -0.4375 0.800781 -1.042969 0.800781 -1.820313 c 0 -0.824218 -0.25 -1.453125 -0.742188 -1.890625 c -0.492187 -0.4375 -1.191406 -0.65625 -2.101562 -0.65625 c -0.609375 0 -1.234375 0.070313 -1.878907 0.210938 c -0.644531 0.140625 -1.320312 0.355469 -2.023437 0.640625 v -1.980469 c 0.824219 -0.234375 1.550781 -0.402344 2.191406 -0.515625 c 0.644531 -0.117188 1.214844 -0.175781 1.710938 -0.175781 c 1.480469 0 2.660156 0.394531 3.542969 1.179687 c 0.890624 0.777344 1.335937 1.816406 1.335937 3.105469 c 0 0.871094 -0.234375 1.601563 -0.699219 2.191406 c -0.46875 0.585938 -1.144531 1 -2.035156 1.238281 z m -7.902344 -11.792968"/>
</svg>
