<?xml version="1.0" encoding="UTF-8"?>
<svg height="16px" viewBox="0 0 16 16" width="16px" xmlns="http://www.w3.org/2000/svg">
    <g fill-rule="evenodd">
        <path d="m 4.007812 -1.765625 c 0.160157 0 0.289063 0.175781 0.289063 0.390625 v 18.75 c 0 0.214844 -0.128906 0.390625 -0.289063 0.390625 c -0.160156 0 -0.289062 -0.175781 -0.289062 -0.390625 v -18.75 c 0 -0.214844 0.128906 -0.390625 0.289062 -0.390625 z m 0 0"/>
        <path d="m 12.699219 -1.917969 c 0.160156 0 0.289062 0.175781 0.289062 0.390625 v 18.75 c 0 0.214844 -0.128906 0.390625 -0.289062 0.390625 c -0.160157 0 -0.289063 -0.175781 -0.289063 -0.390625 v -18.75 c 0 -0.214844 0.128906 -0.390625 0.289063 -0.390625 z m 0 0"/>
        <path d="m -2.796875 4.5 c 0 -0.125 0.195313 -0.230469 0.433594 -0.230469 h 20.828125 c 0.242187 0 0.4375 0.105469 0.4375 0.230469 s -0.195313 0.226562 -0.4375 0.226562 h -20.828125 c -0.238281 0 -0.433594 -0.101562 -0.433594 -0.226562 z m 0 0"/>
        <path d="m -3.1875 12.179688 c 0 -0.125 0.199219 -0.226563 0.445312 -0.226563 h 21.425782 c 0.246094 0 0.449218 0.101563 0.449218 0.226563 s -0.203124 0.226562 -0.449218 0.226562 h -21.425782 c -0.246093 0 -0.445312 -0.101562 -0.445312 -0.226562 z m 0 0"/>
    </g>
    <path d="m 6.402344 5.925781 h 3.1875 v 0.320313 l -1.796875 4.699218 h -0.738281 l 1.757812 -4.417968 h -2.410156 z m -0.492188 -1.34375"/>
</svg>
