<?xml version="1.0" encoding="UTF-8"?>
<svg height="16px" viewBox="0 0 16 16" width="16px" xmlns="http://www.w3.org/2000/svg">
    <path d="m 1.101562 2.800781 h 13.796876 c 0.332031 0 0.601562 0.269531 0.601562 0.597657 c 0 0.332031 -0.269531 0.601562 -0.601562 0.601562 h -13.796876 c -0.332031 0 -0.601562 -0.269531 -0.601562 -0.601562 c 0 -0.328126 0.269531 -0.597657 0.601562 -0.597657 z m 0 0"/>
    <path d="m 1.101562 12 h 13.796876 c 0.332031 0 0.601562 0.269531 0.601562 0.601562 c 0 0.328126 -0.269531 0.597657 -0.601562 0.597657 h -13.796876 c -0.332031 0 -0.601562 -0.269531 -0.601562 -0.597657 c 0 -0.332031 0.269531 -0.601562 0.601562 -0.601562 z m 0 0"/>
    <path d="m 13.199219 1.101562 v 13.796876 c 0 0.332031 -0.269531 0.601562 -0.597657 0.601562 c -0.332031 0 -0.601562 -0.269531 -0.601562 -0.601562 v -13.796876 c 0 -0.332031 0.269531 -0.601562 0.601562 -0.601562 c 0.328126 0 0.597657 0.269531 0.597657 0.601562 z m 0 0"/>
    <path d="m 4.199219 1.101562 v 13.796876 c 0 0.332031 -0.269531 0.601562 -0.597657 0.601562 c -0.332031 0 -0.601562 -0.269531 -0.601562 -0.601562 v -13.796876 c 0 -0.332031 0.269531 -0.601562 0.601562 -0.601562 c 0.328126 0 0.597657 0.269531 0.597657 0.601562 z m 0 0"/>
    <path d="m 5.410156 11 l 2.351563 -3.992188 v -0.007812 h -2.761719 v -2 h 6 v 1.304688 l -2.523438 4.695312 z m 0 0"/>
</svg>
