<?xml version="1.0" encoding="UTF-8"?>
<svg height="16px" viewBox="0 0 16 16" width="16px" xmlns="http://www.w3.org/2000/svg" xmlns:xlink="http://www.w3.org/1999/xlink">
    <filter id="a" height="100%" width="100%" x="0%" y="0%">
        <feColorMatrix color-interpolation-filters="sRGB" values="0 0 0 0 1 0 0 0 0 1 0 0 0 0 1 0 0 0 1 0"/>
    </filter>
    <mask id="b">
        <g filter="url(#a)">
            <rect fill-opacity="0.25" height="19.2" width="19.2" x="-1.6" y="-1.6"/>
        </g>
    </mask>
    <clipPath id="c">
        <rect height="152" width="192"/>
    </clipPath>
    <mask id="d">
        <g filter="url(#a)">
            <rect fill-opacity="0.4" height="19.2" width="19.2" x="-1.6" y="-1.6"/>
        </g>
    </mask>
    <clipPath id="e">
        <rect height="152" width="192"/>
    </clipPath>
    <mask id="f">
        <g filter="url(#a)">
            <rect fill-opacity="0.1" height="19.2" width="19.2" x="-1.6" y="-1.6"/>
        </g>
    </mask>
    <clipPath id="g">
        <rect height="152" width="192"/>
    </clipPath>
    <g mask="url(#b)">
        <g clip-path="url(#c)" transform="matrix(1 0 0 1 -168 -16)">
            <path d="m 37.800781 34 h 68.300781 c 5 0 9 4 9 9 v 66 c 0 5 -4 9 -9 9 h -68.300781 c -5 0 -9 -4 -9 -9 v -66 c 0.097657 -5 4.097657 -9 9 -9 z m 0 0" fill="#ffffff"/>
        </g>
    </g>
    <g mask="url(#d)">
        <g clip-path="url(#e)" fill="#63452c" transform="matrix(1 0 0 1 -168 -16)">
            <path d="m 61.5 41 v 72 c 0 0.800781 -0.699219 1.5 -1.5 1.5 s -1.5 -0.699219 -1.5 -1.5 v -72 c 0 -0.800781 0.699219 -1.5 1.5 -1.5 s 1.5 0.699219 1.5 1.5 z m 0 0"/>
            <path d="m 87.5 41 v 72 c 0 0.800781 -0.699219 1.5 -1.5 1.5 s -1.5 -0.699219 -1.5 -1.5 v -72 c 0 -0.800781 0.699219 -1.5 1.5 -1.5 s 1.5 0.699219 1.5 1.5 z m 0 0"/>
            <path d="m 37 88.5 h 72 c 0.800781 0 1.5 0.699219 1.5 1.5 s -0.699219 1.5 -1.5 1.5 h -72 c -0.800781 0 -1.5 -0.699219 -1.5 -1.5 s 0.699219 -1.5 1.5 -1.5 z m 0 0"/>
            <path d="m 37 62.5 h 72 c 0.800781 0 1.5 0.699219 1.5 1.5 s -0.699219 1.5 -1.5 1.5 h -72 c -0.800781 0 -1.5 -0.699219 -1.5 -1.5 s 0.699219 -1.5 1.5 -1.5 z m 0 0"/>
        </g>
    </g>
    <g mask="url(#f)">
        <g clip-path="url(#g)" fill="#020202" transform="matrix(1 0 0 1 -168 -16)">
            <path d="m 68.5 70.101562 h 8.398438 v 1.898438 l -4.5 11.898438 h -2.699219 l 4.300781 -11.398438 h -5.5 z m 0 0"/>
            <path d="m 71.300781 55.699219 h 5.597657 v 2.402343 h -8.398438 v -2.402343 l 1.398438 -1.597657 c 1.703124 -1.902343 2.703124 -3 3.101562 -3.5 s 0.800781 -1 1 -1.402343 c 0.199219 -0.398438 0.300781 -0.800781 0.300781 -1.199219 c 0 -0.601562 -0.199219 -1.101562 -0.5 -1.398438 c -0.402343 -0.300781 -0.902343 -0.5 -1.5 -0.5 c -0.5 0 -1 0.097657 -1.601562 0.296876 c -0.597657 0.203124 -1.199219 0.5 -1.800781 0.902343 v -2.601562 c 0.601562 -0.300781 1.203124 -0.398438 1.902343 -0.597657 c 0.597657 -0.101562 1.199219 -0.203124 1.800781 -0.203124 c 1.398438 0 2.5 0.300781 3.296876 1 c 0.800781 0.703124 1.203124 1.601562 1.203124 2.800781 c 0 0.601562 -0.101562 1.101562 -0.300781 1.601562 s -0.5 1 -0.902343 1.597657 c -0.296876 0.402343 -1.199219 1.402343 -2.597657 2.902343 c -1 0.800781 -1.601562 1.5 -2 1.898438 z m 0 0"/>
            <path d="m 94.800781 43.800781 h 7.800781 v 2 l -4.203124 12.5 h -2.5 l 4 -12 h -5.097657 z m 0 0"/>
            <path d="m 47.300781 73.101562 l -3.300781 5.5 h 3.300781 z m -0.199219 -3.101562 h 2.699219 v 8.601562 h 1.5 v 2.398438 h -1.5 v 3 h -2.5 v -3 h -5.300781 v -2.699219 z m 0 0"/>
            <path d="m 46.601562 103.699219 c -0.601562 0 -1.101562 0.199219 -1.402343 0.601562 c -0.398438 0.398438 -0.5 0.898438 -0.5 1.5 c 0 0.597657 0.199219 1.199219 0.5 1.597657 c 0.402343 0.402343 0.800781 0.601562 1.402343 0.601562 c 0.597657 0 1.097657 -0.199219 1.398438 -0.601562 c 0.398438 -0.398438 0.601562 -0.898438 0.601562 -1.597657 c 0 -0.601562 -0.203124 -1.101562 -0.5 -1.5 c -0.402343 -0.402343 -0.902343 -0.601562 -1.5 -0.601562 z m -1.902343 -1.199219 c -0.699219 -0.199219 -1.199219 -0.601562 -1.5 -1.101562 s -0.5 -1.199219 -0.5 -1.898438 c 0 -1.199219 0.402343 -2.101562 1.101562 -2.699219 c 0.699219 -0.699219 1.699219 -1 2.898438 -1 s 2.199219 0.300781 2.902343 1 c 0.699219 0.699219 1.097657 1.597657 1.097657 2.699219 c 0 0.699219 -0.199219 1.398438 -0.5 1.898438 s -0.800781 0.902343 -1.5 1.203124 c 0.699219 0.199219 1.300781 0.699219 1.699219 1.296876 c 0.402343 0.601562 0.601562 1.300781 0.601562 2.203124 c 0 1.296876 -0.398438 2.398438 -1.101562 3.097657 c -0.699219 0.699219 -1.796876 1.101562 -3.199219 1.101562 c -1.398438 0 -2.398438 -0.402343 -3.199219 -1.101562 s -1.101562 -1.800781 -1.101562 -3.097657 c 0 -0.902343 0.203124 -1.601562 0.601562 -2.203124 c 0.398438 -0.699219 0.898438 -1.199219 1.699219 -1.398438 z m 0.300781 -2.800781 c 0 0.601562 0.101562 1 0.398438 1.300781 c 0.300781 0.300781 0.703124 0.5 1.203124 0.5 s 0.898438 -0.199219 1.199219 -0.5 s 0.5 -0.800781 0.5 -1.300781 s -0.199219 -1 -0.5 -1.300781 c -0.300781 -0.296876 -0.699219 -0.5 -1.199219 -0.5 s -0.902343 0.203124 -1.203124 0.5 c -0.296876 0.300781 -0.398438 0.800781 -0.398438 1.300781 z m 0 0"/>
            <path d="m 98.101562 103.699219 h -1.402343 v -2.398438 h 1.402343 c 0.699219 0 1.199219 -0.101562 1.5 -0.402343 c 0.398438 -0.296876 0.5 -0.699219 0.5 -1.199219 s -0.203124 -0.898438 -0.5 -1.199219 c -0.402343 -0.300781 -0.902343 -0.398438 -1.5 -0.398438 c -0.5 0 -1 0.097657 -1.601562 0.199219 c -0.601562 0.097657 -1.199219 0.300781 -1.800781 0.597657 v -2.5 c 0.601562 -0.199219 1.199219 -0.296876 1.800781 -0.398438 s 1.199219 -0.199219 1.699219 -0.199219 c 1.402343 0 2.5 0.300781 3.300781 1 c 0.800781 0.597657 1.199219 1.5 1.199219 2.597657 c 0 0.800781 -0.199219 1.5 -0.699219 2 c -0.398438 0.5 -1.101562 0.902343 -1.898438 1 c 0.898438 0.203124 1.699219 0.601562 2.199219 1.203124 c 0.398438 0.597657 0.699219 1.398438 0.699219 2.398438 c 0 1.398438 -0.398438 2.398438 -1.199219 3.101562 c -0.800781 0.699219 -2 1.097657 -3.601562 1.097657 c -0.699219 0 -1.300781 -0.097657 -2 -0.199219 c -0.597657 -0.101562 -1.300781 -0.300781 -1.898438 -0.5 v -2.601562 c 0.597657 0.300781 1.199219 0.5 1.800781 0.703124 c 0.597657 0.199219 1.296876 0.199219 2 0.199219 c 0.699219 0 1.296876 -0.199219 1.699219 -0.5 c 0.398438 -0.300781 0.597657 -0.800781 0.597657 -1.402343 c 0 -0.699219 -0.199219 -1.296876 -0.597657 -1.699219 c -0.402343 -0.300781 -1 -0.5 -1.699219 -0.5 z m 0 0"/>
        </g>
    </g>
    <path d="m 7.191406 6.671875 h 1.609375 v 0.328125 l -0.859375 2.320312 h -0.511718 l 0.820312 -2.191406 h -1.058594 z m 0 0" stroke="#000000" stroke-miterlimit="10" stroke-width="0.5"/>
    <path d="m 1.101562 4.800781 h 13.796876 c 0.332031 0 0.601562 0.269531 0.601562 0.597657 c 0 0.332031 -0.269531 0.601562 -0.601562 0.601562 h -13.796876 c -0.332031 0 -0.601562 -0.269531 -0.601562 -0.601562 c 0 -0.328126 0.269531 -0.597657 0.601562 -0.597657 z m 0 0"/>
    <path d="m 1.101562 10 h 13.796876 c 0.332031 0 0.601562 0.269531 0.601562 0.601562 c 0 0.328126 -0.269531 0.597657 -0.601562 0.597657 h -13.796876 c -0.332031 0 -0.601562 -0.269531 -0.601562 -0.597657 c 0 -0.332031 0.269531 -0.601562 0.601562 -0.601562 z m 0 0"/>
    <path d="m 11.191406 1.101562 v 13.796876 c 0 0.332031 -0.269531 0.601562 -0.601562 0.601562 c -0.332032 0 -0.601563 -0.269531 -0.601563 -0.601562 v -13.796876 c 0 -0.332031 0.269531 -0.601562 0.601563 -0.601562 c 0.332031 0 0.601562 0.269531 0.601562 0.601562 z m 0 0"/>
    <path d="m 5.988281 1.101562 v 13.796876 c 0 0.332031 -0.265625 0.601562 -0.597656 0.601562 s -0.601563 -0.269531 -0.601563 -0.601562 v -13.796876 c 0 -0.332031 0.269532 -0.601562 0.601563 -0.601562 s 0.597656 0.269531 0.597656 0.601562 z m 0 0"/>
</svg>
