<?xml version="1.0" encoding="UTF-8"?>
<svg
    xmlns="http://www.w3.org/2000/svg"
    width="16"
    height="16"
    viewBox="0 0 16 16"
    shape-rendering="crispEdges">

    <path d="M1.1 2.8h13.8c0.33 0 0.6 0.27 0.6 0.6s-0.27 0.6-0.6 0.6H1.1c-0.33 0-0.6-0.27-0.6-0.6s0.27-0.6 0.6-0.6z"/>
    <path d="M1.1 12h13.8c0.33 0 0.6 0.27 0.6 0.6s-0.27 0.6-0.6 0.6H1.1c-0.33 0-0.6-0.27-0.6-0.6s0.27-0.6 0.6-0.6z"/>
    <path d="M13.2 1.1v13.8c0 0.33-0.27 0.6-0.6 0.6s-0.6-0.27-0.6-0.6V1.1c0-0.33 0.27-0.6 0.6-0.6s0.6 0.27 0.6 0.6z"/>
    <path d="M4.2 1.1v13.8c0 0.33-0.27 0.6-0.6 0.6s-0.6-0.27-0.6-0.6V1.1c0-0.33 0.27-0.6 0.6-0.6s0.6 0.27 0.6 0.6z"/>
    <path d="M5.41 11L7.76 7H5V5h6v1.3L8.48 11z"/>
</svg>

