<?xml version="1.0" encoding="UTF-8"?>
<svg height="128px" viewBox="0 0 128 128" width="128px" xmlns="http://www.w3.org/2000/svg" xmlns:xlink="http://www.w3.org/1999/xlink">
    <filter id="a" height="100%" width="100%" x="0%" y="0%">
        <feColorMatrix color-interpolation-filters="sRGB" values="0 0 0 0 1 0 0 0 0 1 0 0 0 0 1 0 0 0 1 0"/>
    </filter>
    <linearGradient id="b" gradientTransform="matrix(0.2156 0 0 -0.3289 -389.747986 -451.133606)" gradientUnits="userSpaceOnUse" x1="1863.713135" x2="2346.174805" y1="-1608.56604" y2="-1608.56604">
        <stop offset="0" stop-color="#63402c"/>
        <stop offset="0.0500001" stop-color="#b5835a"/>
        <stop offset="0.099807" stop-color="#865e3c"/>
        <stop offset="0.9" stop-color="#865e3c"/>
        <stop offset="0.95" stop-color="#b5835a"/>
        <stop offset="1" stop-color="#63402c"/>
    </linearGradient>
    <linearGradient id="c" gradientUnits="userSpaceOnUse" x1="16.387199" x2="111.612801" y1="12.3872" y2="107.612801">
        <stop offset="0.6536" stop-color="#cdab8f"/>
        <stop offset="1" stop-color="#a9876e"/>
    </linearGradient>
    <mask id="d">
        <g filter="url(#a)">
            <rect fill-opacity="0.25" height="153.6" width="153.6" x="-12.8" y="-12.8"/>
        </g>
    </mask>
    <clipPath id="e">
        <rect height="152" width="192"/>
    </clipPath>
    <mask id="f">
        <g filter="url(#a)">
            <rect fill-opacity="0.4" height="153.6" width="153.6" x="-12.8" y="-12.8"/>
        </g>
    </mask>
    <clipPath id="g">
        <rect height="152" width="192"/>
    </clipPath>
    <mask id="h">
        <g filter="url(#a)">
            <rect fill-opacity="0.1" height="153.6" width="153.6" x="-12.8" y="-12.8"/>
        </g>
    </mask>
    <clipPath id="i">
        <rect height="152" width="192"/>
    </clipPath>
    <path d="m 20 40 h 88 c 4.398438 0 8 3.601562 8 8 v 60 c 0 4.398438 -3.601562 8 -8 8 h -88 c -4.398438 0 -8 -3.601562 -8 -8 v -60 c 0 -4.398438 3.601562 -8 8 -8 z m 0 0" fill="url(#b)"/>
    <path d="m 20.300781 12 h 87.398438 c 4.601562 0 8.300781 3.601562 8.300781 8 v 80 c 0 4.398438 -3.699219 8 -8.300781 8 h -87.398438 c -4.601562 0 -8.300781 -3.601562 -8.300781 -8 v -80 c 0 -4.398438 3.699219 -8 8.300781 -8 z m 0 0" fill="url(#c)"/>
    <g mask="url(#d)">
        <g clip-path="url(#e)" transform="matrix(1 0 0 1 -8 -16)">
            <path d="m 37.800781 34 h 68.300781 c 5 0 9 4 9 9 v 66 c 0 5 -4 9 -9 9 h -68.300781 c -5 0 -9 -4 -9 -9 v -66 c 0.097657 -5 4.097657 -9 9 -9 z m 0 0" fill="#ffffff"/>
        </g>
    </g>
    <g mask="url(#f)">
        <g clip-path="url(#g)" fill="#63452c" transform="matrix(1 0 0 1 -8 -16)">
            <path d="m 61.5 41 v 72 c 0 0.800781 -0.699219 1.5 -1.5 1.5 s -1.5 -0.699219 -1.5 -1.5 v -72 c 0 -0.800781 0.699219 -1.5 1.5 -1.5 s 1.5 0.699219 1.5 1.5 z m 0 0"/>
            <path d="m 87.5 41 v 72 c 0 0.800781 -0.699219 1.5 -1.5 1.5 s -1.5 -0.699219 -1.5 -1.5 v -72 c 0 -0.800781 0.699219 -1.5 1.5 -1.5 s 1.5 0.699219 1.5 1.5 z m 0 0"/>
            <path d="m 37 88.5 h 72 c 0.800781 0 1.5 0.699219 1.5 1.5 s -0.699219 1.5 -1.5 1.5 h -72 c -0.800781 0 -1.5 -0.699219 -1.5 -1.5 s 0.699219 -1.5 1.5 -1.5 z m 0 0"/>
            <path d="m 37 62.5 h 72 c 0.800781 0 1.5 0.699219 1.5 1.5 s -0.699219 1.5 -1.5 1.5 h -72 c -0.800781 0 -1.5 -0.699219 -1.5 -1.5 s 0.699219 -1.5 1.5 -1.5 z m 0 0"/>
        </g>
    </g>
    <g fill="#63452c">
        <path d="m 52.5 24 v 72 c 0 0.800781 -0.699219 1.5 -1.5 1.5 s -1.5 -0.699219 -1.5 -1.5 v -72 c 0 -0.800781 0.699219 -1.5 1.5 -1.5 s 1.5 0.699219 1.5 1.5 z m 0 0"/>
        <path d="m 78.5 24 v 72 c 0 0.800781 -0.699219 1.5 -1.5 1.5 s -1.5 -0.699219 -1.5 -1.5 v -72 c 0 -0.800781 0.699219 -1.5 1.5 -1.5 s 1.5 0.699219 1.5 1.5 z m 0 0"/>
        <path d="m 28 71.5 h 72 c 0.800781 0 1.5 0.699219 1.5 1.5 s -0.699219 1.5 -1.5 1.5 h -72 c -0.800781 0 -1.5 -0.699219 -1.5 -1.5 s 0.699219 -1.5 1.5 -1.5 z m 0 0"/>
        <path d="m 28 45.5 h 72 c 0.800781 0 1.5 0.699219 1.5 1.5 s -0.699219 1.5 -1.5 1.5 h -72 c -0.800781 0 -1.5 -0.699219 -1.5 -1.5 s 0.699219 -1.5 1.5 -1.5 z m 0 0"/>
    </g>
    <g mask="url(#h)">
        <g clip-path="url(#i)" fill="#020202" transform="matrix(1 0 0 1 -8 -16)">
            <path d="m 68.5 70.101562 h 8.398438 v 1.898438 l -4.5 11.898438 h -2.699219 l 4.300781 -11.398438 h -5.5 z m 0 0"/>
            <path d="m 71.300781 55.699219 h 5.597657 v 2.402343 h -8.398438 v -2.402343 l 1.398438 -1.597657 c 1.703124 -1.902343 2.703124 -3 3.101562 -3.5 s 0.800781 -1 1 -1.402343 c 0.199219 -0.398438 0.300781 -0.800781 0.300781 -1.199219 c 0 -0.601562 -0.199219 -1.101562 -0.5 -1.398438 c -0.402343 -0.300781 -0.902343 -0.5 -1.5 -0.5 c -0.5 0 -1 0.097657 -1.601562 0.296876 c -0.597657 0.203124 -1.199219 0.5 -1.800781 0.902343 v -2.601562 c 0.601562 -0.300781 1.203124 -0.398438 1.902343 -0.597657 c 0.597657 -0.101562 1.199219 -0.203124 1.800781 -0.203124 c 1.398438 0 2.5 0.300781 3.296876 1 c 0.800781 0.703124 1.203124 1.601562 1.203124 2.800781 c 0 0.601562 -0.101562 1.101562 -0.300781 1.601562 s -0.5 1 -0.902343 1.597657 c -0.296876 0.402343 -1.199219 1.402343 -2.597657 2.902343 c -1 0.800781 -1.601562 1.5 -2 1.898438 z m 0 0"/>
            <path d="m 94.800781 43.800781 h 7.800781 v 2 l -4.203124 12.5 h -2.5 l 4 -12 h -5.097657 z m 0 0"/>
            <path d="m 47.300781 73.101562 l -3.300781 5.5 h 3.300781 z m -0.199219 -3.101562 h 2.699219 v 8.601562 h 1.5 v 2.398438 h -1.5 v 3 h -2.5 v -3 h -5.300781 v -2.699219 z m 0 0"/>
            <path d="m 46.601562 103.699219 c -0.601562 0 -1.101562 0.199219 -1.402343 0.601562 c -0.398438 0.398438 -0.5 0.898438 -0.5 1.5 c 0 0.597657 0.199219 1.199219 0.5 1.597657 c 0.402343 0.402343 0.800781 0.601562 1.402343 0.601562 c 0.597657 0 1.097657 -0.199219 1.398438 -0.601562 c 0.398438 -0.398438 0.601562 -0.898438 0.601562 -1.597657 c 0 -0.601562 -0.203124 -1.101562 -0.5 -1.5 c -0.402343 -0.402343 -0.902343 -0.601562 -1.5 -0.601562 z m -1.902343 -1.199219 c -0.699219 -0.199219 -1.199219 -0.601562 -1.5 -1.101562 s -0.5 -1.199219 -0.5 -1.898438 c 0 -1.199219 0.402343 -2.101562 1.101562 -2.699219 c 0.699219 -0.699219 1.699219 -1 2.898438 -1 s 2.199219 0.300781 2.902343 1 c 0.699219 0.699219 1.097657 1.597657 1.097657 2.699219 c 0 0.699219 -0.199219 1.398438 -0.5 1.898438 s -0.800781 0.902343 -1.5 1.203124 c 0.699219 0.199219 1.300781 0.699219 1.699219 1.296876 c 0.402343 0.601562 0.601562 1.300781 0.601562 2.203124 c 0 1.296876 -0.398438 2.398438 -1.101562 3.097657 c -0.699219 0.699219 -1.796876 1.101562 -3.199219 1.101562 c -1.398438 0 -2.398438 -0.402343 -3.199219 -1.101562 s -1.101562 -1.800781 -1.101562 -3.097657 c 0 -0.902343 0.203124 -1.601562 0.601562 -2.203124 c 0.398438 -0.699219 0.898438 -1.199219 1.699219 -1.398438 z m 0.300781 -2.800781 c 0 0.601562 0.101562 1 0.398438 1.300781 c 0.300781 0.300781 0.703124 0.5 1.203124 0.5 s 0.898438 -0.199219 1.199219 -0.5 s 0.5 -0.800781 0.5 -1.300781 s -0.199219 -1 -0.5 -1.300781 c -0.300781 -0.296876 -0.699219 -0.5 -1.199219 -0.5 s -0.902343 0.203124 -1.203124 0.5 c -0.296876 0.300781 -0.398438 0.800781 -0.398438 1.300781 z m 0 0"/>
            <path d="m 98.101562 103.699219 h -1.402343 v -2.398438 h 1.402343 c 0.699219 0 1.199219 -0.101562 1.5 -0.402343 c 0.398438 -0.296876 0.5 -0.699219 0.5 -1.199219 s -0.203124 -0.898438 -0.5 -1.199219 c -0.402343 -0.300781 -0.902343 -0.398438 -1.5 -0.398438 c -0.5 0 -1 0.097657 -1.601562 0.199219 c -0.601562 0.097657 -1.199219 0.300781 -1.800781 0.597657 v -2.5 c 0.601562 -0.199219 1.199219 -0.296876 1.800781 -0.398438 s 1.199219 -0.199219 1.699219 -0.199219 c 1.402343 0 2.5 0.300781 3.300781 1 c 0.800781 0.597657 1.199219 1.5 1.199219 2.597657 c 0 0.800781 -0.199219 1.5 -0.699219 2 c -0.398438 0.5 -1.101562 0.902343 -1.898438 1 c 0.898438 0.203124 1.699219 0.601562 2.199219 1.203124 c 0.398438 0.597657 0.699219 1.398438 0.699219 2.398438 c 0 1.398438 -0.398438 2.398438 -1.199219 3.101562 c -0.800781 0.699219 -2 1.097657 -3.601562 1.097657 c -0.699219 0 -1.300781 -0.097657 -2 -0.199219 c -0.597657 -0.101562 -1.300781 -0.300781 -1.898438 -0.5 v -2.601562 c 0.597657 0.300781 1.199219 0.5 1.800781 0.703124 c 0.597657 0.199219 1.296876 0.199219 2 0.199219 c 0.699219 0 1.296876 -0.199219 1.699219 -0.5 c 0.398438 -0.300781 0.597657 -0.800781 0.597657 -1.402343 c 0 -0.699219 -0.199219 -1.296876 -0.597657 -1.699219 c -0.402343 -0.300781 -1 -0.5 -1.699219 -0.5 z m 0 0"/>
        </g>
    </g>
    <path d="m 59.800781 53 h 8.398438 v 1.898438 l -4.5 11.902343 h -2.699219 l 4.300781 -11.402343 h -5.5 z m 0 0" fill="#e01b24"/>
    <path d="m 86.101562 26.800781 h 7.796876 v 2 l -4.199219 12.5 h -2.5 l 4 -12 h -5.097657 z m 0 0" fill="#e01b24"/>
    <path d="m 62.601562 38.699219 h 5.597657 v 2.402343 h -8.398438 v -2.402343 l 1.398438 -1.597657 c 1.699219 -1.902343 2.699219 -3 3.101562 -3.5 c 0.398438 -0.5 0.800781 -1 1 -1.402343 c 0.199219 -0.398438 0.300781 -0.800781 0.300781 -1.199219 c 0 -0.601562 -0.203124 -1.101562 -0.5 -1.398438 c -0.402343 -0.300781 -0.902343 -0.5 -1.5 -0.5 c -0.5 0 -1 0.097657 -1.601562 0.296876 c -0.601562 0.203124 -1.199219 0.5 -1.800781 0.902343 v -2.601562 c 0.601562 -0.300781 1.199219 -0.398438 1.902343 -0.597657 c 0.597657 -0.101562 1.199219 -0.203124 1.796876 -0.203124 c 1.402343 0 2.5 0.300781 3.300781 1 c 0.800781 0.703124 1.199219 1.601562 1.199219 2.800781 c 0 0.601562 -0.097657 1.101562 -0.296876 1.601562 c -0.203124 0.5 -0.5 1 -0.902343 1.597657 c -0.300781 0.402343 -1.199219 1.402343 -2.597657 2.902343 c -0.902343 0.699219 -1.5 1.398438 -2 1.898438 z m 0 0" fill="#442e1f"/>
    <path d="m 38.601562 56 l -3.300781 5.5 h 3.300781 z m -0.203124 -3 h 2.703124 v 8.601562 h 1.5 v 2.398438 h -1.5 v 3 h -2.5 v -3 h -5.300781 v -2.699219 z m 0 0" fill="#442e1f"/>
    <path d="m 38 86.601562 c -0.601562 0 -1.101562 0.199219 -1.398438 0.597657 c -0.402343 0.402343 -0.5 0.902343 -0.5 1.5 c 0 0.601562 0.199219 1.199219 0.5 1.601562 c 0.398438 0.398438 0.796876 0.597657 1.398438 0.597657 s 1.101562 -0.199219 1.398438 -0.597657 c 0.402343 -0.402343 0.601562 -0.902343 0.601562 -1.601562 c 0 -0.597657 -0.199219 -1.097657 -0.5 -1.5 c -0.5 -0.398438 -0.898438 -0.597657 -1.5 -0.597657 z m -2 -1.203124 c -0.699219 -0.199219 -1.199219 -0.597657 -1.5 -1.097657 s -0.5 -1.199219 -0.5 -1.902343 c 0 -1.199219 0.398438 -2.097657 1.101562 -2.699219 c 0.699219 -0.699219 1.699219 -1 2.898438 -1 s 2.199219 0.300781 2.898438 1 c 0.703124 0.699219 1.101562 1.601562 1.101562 2.699219 c 0 0.703124 -0.199219 1.402343 -0.5 1.902343 s -0.800781 0.898438 -1.5 1.199219 c 0.699219 0.199219 1.300781 0.699219 1.699219 1.300781 c 0.402343 0.597657 0.601562 1.300781 0.601562 2.199219 c 0 1.300781 -0.402343 2.398438 -1.101562 3.101562 c -0.699219 0.699219 -1.800781 1.097657 -3.199219 1.097657 s -2.398438 -0.398438 -3.199219 -1.097657 c -0.800781 -0.703124 -1.101562 -1.800781 -1.101562 -3.101562 c 0 -0.898438 0.199219 -1.601562 0.601562 -2.199219 c 0.398438 -0.699219 1 -1.101562 1.699219 -1.402343 z m 0.300781 -2.796876 c 0 0.597657 0.097657 1 0.398438 1.296876 c 0.300781 0.300781 0.699219 0.5 1.199219 0.5 s 0.902343 -0.199219 1.203124 -0.5 c 0.296876 -0.296876 0.5 -0.796876 0.5 -1.296876 s -0.203124 -1 -0.5 -1.300781 c -0.300781 -0.300781 -0.703124 -0.5 -1.203124 -0.5 s -0.898438 0.199219 -1.199219 0.5 c -0.199219 0.398438 -0.398438 0.800781 -0.398438 1.300781 z m 0 0" fill="#442e1f"/>
    <path d="m 89.398438 86.601562 h -1.398438 v -2.402343 h 1.398438 c 0.703124 0 1.203124 -0.097657 1.5 -0.398438 c 0.402343 -0.300781 0.5 -0.699219 0.5 -1.199219 s -0.199219 -0.902343 -0.5 -1.203124 c -0.398438 -0.296876 -0.898438 -0.398438 -1.5 -0.398438 c -0.5 0 -1 0.101562 -1.597657 0.199219 c -0.601562 0.101562 -1.199219 0.300781 -1.800781 0.601562 v -2.5 c 0.601562 -0.199219 1.199219 -0.300781 1.800781 -0.402343 c 0.597657 -0.097657 1.199219 -0.199219 1.699219 -0.199219 c 1.398438 0 2.5 0.300781 3.300781 1 c 0.800781 0.601562 1.199219 1.5 1.199219 2.601562 c 0 0.800781 -0.199219 1.5 -0.699219 2 c -0.402343 0.5 -1.101562 0.898438 -1.902343 1 c 0.902343 0.199219 1.703124 0.597657 2.203124 1.199219 s 0.699219 1.398438 0.699219 2.398438 c 0 1.402343 -0.402343 2.402343 -1.199219 3.101562 c -0.800781 0.699219 -2 1.101562 -3.601562 1.101562 c -0.699219 0 -1.300781 -0.101562 -2 -0.203124 c -0.601562 -0.097657 -1.300781 -0.296876 -1.898438 -0.5 v -2.597657 c 0.597657 0.300781 1.199219 0.5 1.796876 0.699219 c 0.601562 0.199219 1.300781 0.199219 2 0.199219 c 0.703124 0 1.300781 -0.199219 1.703124 -0.5 c 0.398438 -0.300781 0.597657 -0.800781 0.597657 -1.398438 c 0 -0.699219 -0.199219 -1.300781 -0.597657 -1.699219 c -0.300781 -0.300781 -0.902343 -0.5 -1.703124 -0.5 z m 0 0" fill="#442e1f"/>
</svg>
