<?xml version="1.0" encoding="UTF-8"?>
<svg height="128px" viewBox="0 0 128 128" width="128px" xmlns="http://www.w3.org/2000/svg" xmlns:xlink="http://www.w3.org/1999/xlink">
    <linearGradient id="a" gradientUnits="userSpaceOnUse" x1="12" x2="116" y1="96" y2="96">
        <stop offset="0" stop-color="#a25d25"/>
        <stop offset="0.0576923" stop-color="#e7985a"/>
        <stop offset="0.115385" stop-color="#d3a56e"/>
        <stop offset="0.884615" stop-color="#d3a56e"/>
        <stop offset="0.942308" stop-color="#e7995a"/>
        <stop offset="1" stop-color="#a05c25"/>
    </linearGradient>
    <path d="m 20 40 h 88 c 4.398438 0 8 3.601562 8 8 v 60 c 0 4.398438 -3.601562 8 -8 8 h -88 c -4.398438 0 -8 -3.601562 -8 -8 v -60 c 0 -4.398438 3.601562 -8 8 -8 z m 0 0" fill="url(#a)"/>
    <path d="m 20.300781 12 h 87.398438 c 4.601562 0 8.300781 3.601562 8.300781 8 v 80 c 0 4.398438 -3.699219 8 -8.300781 8 h -87.398438 c -4.601562 0 -8.300781 -3.601562 -8.300781 -8 v -80 c 0 -4.398438 3.699219 -8 8.300781 -8 z m 0 0" fill="#dab584"/>
    <path d="m 23 18 h 18 c 2.761719 0 5 2.238281 5 5 v 16 c 0 2.761719 -2.238281 5 -5 5 h -18 c -2.761719 0 -5 -2.238281 -5 -5 v -16 c 0 -2.761719 2.238281 -5 5 -5 z m 0 0" fill="#f7edd9"/>
    <path d="m 55 18 h 18 c 2.761719 0 5 2.238281 5 5 v 16 c 0 2.761719 -2.238281 5 -5 5 h -18 c -2.761719 0 -5 -2.238281 -5 -5 v -16 c 0 -2.761719 2.238281 -5 5 -5 z m 0 0" fill="#e7cda8"/>
    <path d="m 23 47 h 18 c 2.761719 0 5 2.238281 5 5 v 16 c 0 2.761719 -2.238281 5 -5 5 h -18 c -2.761719 0 -5 -2.238281 -5 -5 v -16 c 0 -2.761719 2.238281 -5 5 -5 z m 0 0" fill="#f7edd9"/>
    <path d="m 55 47 h 18 c 2.761719 0 5 2.238281 5 5 v 16 c 0 2.761719 -2.238281 5 -5 5 h -18 c -2.761719 0 -5 -2.238281 -5 -5 v -16 c 0 -2.761719 2.238281 -5 5 -5 z m 0 0" fill="#f7edd9"/>
    <path d="m 23 76 h 18 c 2.761719 0 5 2.238281 5 5 v 16 c 0 2.761719 -2.238281 5 -5 5 h -18 c -2.761719 0 -5 -2.238281 -5 -5 v -16 c 0 -2.761719 2.238281 -5 5 -5 z m 0 0" fill="#f7edd9"/>
    <path d="m 55 76 h 18 c 2.761719 0 5 2.238281 5 5 v 16 c 0 2.761719 -2.238281 5 -5 5 h -18 c -2.761719 0 -5 -2.238281 -5 -5 v -16 c 0 -2.761719 2.238281 -5 5 -5 z m 0 0" fill="#e7cda8"/>
    <path d="m 87 18 h 18 c 2.761719 0 5 2.238281 5 5 v 16 c 0 2.761719 -2.238281 5 -5 5 h -18 c -2.761719 0 -5 -2.238281 -5 -5 v -16 c 0 -2.761719 2.238281 -5 5 -5 z m 0 0" fill="#e7cda8"/>
    <path d="m 87 47 h 18 c 2.761719 0 5 2.238281 5 5 v 16 c 0 2.761719 -2.238281 5 -5 5 h -18 c -2.761719 0 -5 -2.238281 -5 -5 v -16 c 0 -2.761719 2.238281 -5 5 -5 z m 0 0" fill="#f7edd9"/>
    <path d="m 87 76 h 18 c 2.761719 0 5 2.238281 5 5 v 16 c 0 2.761719 -2.238281 5 -5 5 h -18 c -2.761719 0 -5 -2.238281 -5 -5 v -16 c 0 -2.761719 2.238281 -5 5 -5 z m 0 0" fill="#e7cda8"/>
    <path d="m 58.144531 38.699219 v -2.773438 l 5.355469 -4.320312 c 0.265625 -0.214844 0.542969 -0.445313 0.832031 -0.6875 c 0.285157 -0.25 0.527344 -0.527344 0.726563 -0.839844 c 0.195312 -0.320313 0.296875 -0.683594 0.296875 -1.089844 c 0 -0.339843 -0.074219 -0.636719 -0.222657 -0.890625 c -0.144531 -0.253906 -0.351562 -0.453125 -0.621093 -0.59375 c -0.261719 -0.144531 -0.570313 -0.21875 -0.925781 -0.21875 c -0.382813 0 -0.71875 0.089844 -1.015626 0.265625 c -0.292968 0.179688 -0.519531 0.441407 -0.6875 0.785157 c -0.160156 0.34375 -0.238281 0.765624 -0.238281 1.261718 h -3.640625 c 0 -1.109375 0.226563 -2.0625 0.675782 -2.867187 c 0.453124 -0.804688 1.097656 -1.421875 1.933593 -1.855469 c 0.835938 -0.433594 1.828125 -0.648438 2.980469 -0.648438 c 1.054688 0 1.988281 0.179688 2.8125 0.542969 c 0.820312 0.363281 1.464844 0.886719 1.929688 1.570313 c 0.472656 0.675781 0.707031 1.484375 0.707031 2.425781 c 0 0.707031 -0.136719 1.339844 -0.410157 1.894531 c -0.265624 0.554688 -0.644531 1.078125 -1.128906 1.566406 c -0.476562 0.484376 -1.03125 0.984376 -1.660156 1.503907 l -2.304688 1.871093 v 0.019532 h 5.542969 v 3.078125 z m 0 0" fill="#603714"/>
    <path d="m 91.6875 38.699219 l 5.585938 -10.992188 v -0.019531 h -6.558594 v -3.234375 h 10.570312 v 3.097656 l -5.621094 11.148438 z m 0 0" fill="#c01c28"/>
    <path d="m 28.386719 66.800781 l 5.585937 -10.996093 v -0.019532 h -6.558594 v -3.230468 h 10.574219 v 3.097656 l -5.621093 11.148437 z m 0 0" fill="#c01c28"/>
    <path d="m 57.953125 64.046875 v -3.003906 l 5.804687 -8.488281 h 2.511719 v 3.558593 h -1.367187 l -3.363282 4.988281 v 0.019532 h 8.691407 v 2.925781 z m 6.960937 2.753906 v -14.246093 h 3.726563 v 14.246093 z m 0 0" fill="#603714"/>
    <path d="m 32.089844 96.351562 c -1.183594 0 -2.21875 -0.167968 -3.105469 -0.507812 c -0.878906 -0.335938 -1.566406 -0.8125 -2.054687 -1.421875 c -0.484376 -0.621094 -0.726563 -1.339844 -0.726563 -2.160156 c 0 -0.660157 0.148437 -1.230469 0.449219 -1.714844 c 0.304687 -0.488281 0.738281 -0.886719 1.300781 -1.191406 c 0.566406 -0.308594 1.238281 -0.511719 2.015625 -0.613281 v 0.007812 c -1.039062 -0.144531 -1.855469 -0.492188 -2.445312 -1.039062 c -0.589844 -0.550782 -0.882813 -1.269532 -0.882813 -2.160157 c 0 -0.78125 0.226563 -1.460937 0.679687 -2.046875 c 0.460938 -0.585937 1.097657 -1.042968 1.914063 -1.367187 c 0.820313 -0.324219 1.773437 -0.488281 2.855469 -0.488281 c 1.117187 0 2.082031 0.160156 2.898437 0.476562 c 0.816407 0.320312 1.445313 0.773438 1.894531 1.359375 c 0.449219 0.578125 0.675782 1.269531 0.675782 2.066406 c 0 0.890625 -0.292969 1.609375 -0.878906 2.160157 c -0.585938 0.539062 -1.402344 0.886718 -2.445313 1.039062 v -0.007812 c 0.777344 0.101562 1.445313 0.304687 2.007813 0.613281 c 0.566406 0.304687 1 0.703125 1.300781 1.191406 c 0.304687 0.484375 0.457031 1.054687 0.457031 1.714844 c 0 0.820312 -0.246094 1.539062 -0.734375 2.160156 c -0.492187 0.609375 -1.179687 1.085937 -2.066406 1.421875 c -0.878907 0.339844 -1.914063 0.507812 -3.109375 0.507812 z m 0 -2.65625 c 0.363281 0 0.691406 -0.074218 0.976562 -0.222656 c 0.289063 -0.152344 0.511719 -0.359375 0.667969 -0.621094 c 0.167969 -0.265624 0.25 -0.566406 0.25 -0.898437 c 0 -0.335937 -0.082031 -0.632813 -0.25 -0.886719 c -0.15625 -0.261718 -0.378906 -0.46875 -0.667969 -0.613281 c -0.28125 -0.148437 -0.605468 -0.21875 -0.976562 -0.21875 c -0.363282 0 -0.683594 0.070313 -0.964844 0.21875 c -0.28125 0.144531 -0.503906 0.351563 -0.667969 0.613281 c -0.160156 0.253906 -0.238281 0.550782 -0.238281 0.886719 c 0 0.339844 0.078125 0.636719 0.238281 0.898437 c 0.164063 0.261719 0.386719 0.46875 0.667969 0.621094 c 0.28125 0.148438 0.601562 0.222656 0.964844 0.222656 z m 0 -6.246093 c 0.347656 0 0.640625 -0.058594 0.890625 -0.179688 c 0.253906 -0.128906 0.449219 -0.304687 0.582031 -0.535156 c 0.140625 -0.230469 0.210938 -0.496094 0.210938 -0.804687 c 0 -0.3125 -0.070313 -0.578126 -0.210938 -0.800782 c -0.132812 -0.230468 -0.328125 -0.40625 -0.582031 -0.527344 c -0.25 -0.128906 -0.542969 -0.191406 -0.890625 -0.191406 c -0.335938 0 -0.628906 0.0625 -0.878906 0.191406 c -0.246094 0.121094 -0.441407 0.296876 -0.582032 0.527344 c -0.132812 0.222656 -0.199218 0.488282 -0.199218 0.800782 c 0 0.308593 0.066406 0.574218 0.199218 0.804687 c 0.140625 0.230469 0.335938 0.40625 0.582032 0.535156 c 0.25 0.121094 0.542968 0.179688 0.878906 0.179688 z m 0 0" fill="#603714"/>
    <path d="m 95.773438 96.351562 c -1.355469 0 -2.460938 -0.242187 -3.308594 -0.726562 s -1.46875 -1.113281 -1.871094 -1.894531 c -0.394531 -0.78125 -0.59375 -1.617188 -0.59375 -2.503907 h 3.730469 c 0 0.445313 0.078125 0.832032 0.238281 1.15625 c 0.164062 0.328126 0.398438 0.574219 0.695312 0.746094 c 0.308594 0.171875 0.671876 0.257813 1.089844 0.257813 c 0.382813 0 0.71875 -0.066407 1.003906 -0.199219 c 0.292969 -0.132812 0.519532 -0.320312 0.679688 -0.554688 c 0.167969 -0.242187 0.25 -0.515624 0.25 -0.820312 c 0 -0.320312 -0.089844 -0.597656 -0.269531 -0.832031 c -0.175781 -0.238281 -0.429688 -0.417969 -0.753907 -0.546875 c -0.324218 -0.132813 -0.710937 -0.199219 -1.15625 -0.199219 h -1.378906 v -2.679687 h 1.378906 c 0.425782 0 0.789063 -0.054688 1.089844 -0.171876 c 0.304688 -0.121093 0.539063 -0.289062 0.695313 -0.503906 c 0.167969 -0.222656 0.25 -0.488281 0.25 -0.792968 c 0 -0.308594 -0.078125 -0.578126 -0.230469 -0.816407 c -0.144531 -0.234375 -0.347656 -0.417969 -0.609375 -0.550781 c -0.257813 -0.136719 -0.550781 -0.203125 -0.890625 -0.203125 c -0.351562 0 -0.664062 0.074219 -0.945312 0.21875 c -0.273438 0.148437 -0.492188 0.351563 -0.652344 0.613281 c -0.15625 0.261719 -0.238282 0.5625 -0.238282 0.910156 h -3.707031 c 0 -0.875 0.21875 -1.660156 0.65625 -2.355468 c 0.441407 -0.691406 1.074219 -1.242188 1.902344 -1.640625 c 0.832031 -0.410157 1.824219 -0.613281 2.984375 -0.613281 c 1.050781 0 1.984375 0.167968 2.792969 0.507812 c 0.808593 0.335938 1.4375 0.800781 1.890625 1.394531 c 0.460937 0.59375 0.691406 1.277344 0.691406 2.054688 c 0 0.867187 -0.277344 1.570312 -0.824219 2.105469 c -0.542969 0.527343 -1.21875 0.839843 -2.027343 0.933593 v 0.03125 c 0.714843 0.070313 1.3125 0.269531 1.796874 0.601563 c 0.492188 0.332031 0.863282 0.746094 1.109376 1.242187 c 0.253906 0.492188 0.382812 1.019531 0.382812 1.585938 c 0 0.8125 -0.246094 1.539062 -0.734375 2.179687 c -0.492187 0.640625 -1.175781 1.144532 -2.058594 1.511719 c -0.871093 0.371094 -1.890625 0.554687 -3.058593 0.554687 z m 0 0" fill="#603714"/>
    <g fill="none" stroke-linecap="round" stroke-linejoin="round" stroke-width="4">
        <path d="m 41 48 c 2.761719 0 5 2.238281 5 5 v 1" stroke="#1a5fb4"/>
        <path d="m 74 216 c 2.761719 0 5 2.238281 5 5 v 1" stroke="#1a5fb4" transform="matrix(-1 0 0 1 97 -168)"/>
        <path d="m 74 216 c 3.039062 0.277344 5.277344 2.960938 5 6" stroke="#1a5fb4" transform="matrix(1 0 0 -1 -33 290)"/>
        <path d="m 74 216 c 2.761719 0 5 2.238281 5 5 v 1" stroke="#1a5fb4" transform="matrix(-1 0 -0 -1 97 290)"/>
        <path d="m 41 46 c 2.761719 0 5 2.238281 5 5 v 1" stroke="#3584e4"/>
        <path d="m 74 216 c 2.761719 0 5 2.238281 5 5 v 1" stroke="#3584e4" transform="matrix(-1 0 0 1 97 -170)"/>
        <path d="m 74 216 c 3.039062 0.277344 5.277344 2.960938 5 6" stroke="#3584e4" transform="matrix(1 0 0 -1 -33 288)"/>
        <path d="m 74 216 c 2.761719 0 5 2.238281 5 5 v 1" stroke="#3584e4" transform="matrix(-1 0 -0 -1 97 288)"/>
    </g>
</svg>
