<?xml version="1.0" encoding="UTF-8" standalone="no"?>
<!-- Created with Inkscape (http://www.inkscape.org/) -->

<svg
   inkscape:export-ydpi="96"
   inkscape:export-xdpi="96"
   inkscape:export-filename="Template.png"
   width="192"
   height="152"
   id="svg11300"
   sodipodi:version="0.32"
   inkscape:version="1.4.2 (ebf0e940d0, 2025-05-08)"
   sodipodi:docname="io.github.sepehr_rs.Sudoku.Source.svg"
   inkscape:output_extension="org.inkscape.output.svg.inkscape"
   version="1.0"
   style="display:inline;enable-background:new"
   viewBox="0 0 192 152"
   xml:space="preserve"
   xmlns:inkscape="http://www.inkscape.org/namespaces/inkscape"
   xmlns:sodipodi="http://sodipodi.sourceforge.net/DTD/sodipodi-0.dtd"
   xmlns:xlink="http://www.w3.org/1999/xlink"
   xmlns="http://www.w3.org/2000/svg"
   xmlns:svg="http://www.w3.org/2000/svg"
   xmlns:rdf="http://www.w3.org/1999/02/22-rdf-syntax-ns#"
   xmlns:cc="http://creativecommons.org/ns#"
   xmlns:dc="http://purl.org/dc/elements/1.1/"><title
     id="title4162">Adwaita Icon Template</title><defs
     id="defs3"><inkscape:path-effect
       effect="fillet_chamfer"
       id="path-effect186"
       is_visible="true"
       lpeversion="1"
       nodesatellites_param="F,0,0,1,0,0,0,1 @ F,0,0,1,0,5,0,1 @ F,0,0,1,0,0,0,1"
       radius="0"
       unit="px"
       method="auto"
       mode="F"
       chamfer_steps="1"
       flexible="false"
       use_knot_distance="true"
       apply_no_radius="true"
       apply_with_radius="true"
       only_selected="false"
       hide_knots="false" /><inkscape:path-effect
       effect="fillet_chamfer"
       id="path-effect184"
       is_visible="true"
       lpeversion="1"
       nodesatellites_param="F,0,0,1,0,0,0,1 @ F,0,0,1,0,6,0,1 @ F,0,0,1,0,0,0,1"
       radius="0"
       unit="px"
       method="auto"
       mode="F"
       chamfer_steps="1"
       flexible="false"
       use_knot_distance="true"
       apply_no_radius="true"
       apply_with_radius="true"
       only_selected="false"
       hide_knots="false" /><inkscape:path-effect
       effect="fillet_chamfer"
       id="path-effect182"
       is_visible="true"
       lpeversion="1"
       nodesatellites_param="F,0,0,1,0,0,0,1 @ F,0,0,1,0,5,0,1 @ F,0,0,1,0,0,0,1"
       radius="0"
       unit="px"
       method="auto"
       mode="F"
       chamfer_steps="1"
       flexible="false"
       use_knot_distance="true"
       apply_no_radius="true"
       apply_with_radius="true"
       only_selected="false"
       hide_knots="false" /><inkscape:path-effect
       effect="fillet_chamfer"
       id="path-effect180"
       is_visible="true"
       lpeversion="1"
       nodesatellites_param="F,0,0,1,0,0,0,1 @ F,0,0,1,0,5,0,1 @ F,0,0,1,0,0,0,1"
       radius="0"
       unit="px"
       method="auto"
       mode="F"
       chamfer_steps="1"
       flexible="false"
       use_knot_distance="true"
       apply_no_radius="true"
       apply_with_radius="true"
       only_selected="false"
       hide_knots="false" /><linearGradient
       id="linearGradient171"
       inkscape:collect="always"><stop
         style="stop-color:#a25d25;stop-opacity:1;"
         offset="0"
         id="stop171" /><stop
         style="stop-color:#e7985a;stop-opacity:1;"
         offset="0.05769231"
         id="stop173" /><stop
         style="stop-color:#d3a56e;stop-opacity:1"
         offset="0.11538462"
         id="stop174" /><stop
         style="stop-color:#d3a56e;stop-opacity:1"
         offset="0.88461536"
         id="stop175" /><stop
         style="stop-color:#e7995a;stop-opacity:1;"
         offset="0.94230771"
         id="stop176" /><stop
         style="stop-color:#a05c25;stop-opacity:1;"
         offset="1"
         id="stop172" /></linearGradient><linearGradient
       id="linearGradient170"
       gradientUnits="userSpaceOnUse"
       x1="1863.7131"
       y1="-1608.566"
       x2="2346.1748"
       y2="-1608.566"
       gradientTransform="matrix(0.2156,0,0,-0.3289,-389.748,-279.1336)"
       spreadMethod="pad">
	<stop
   offset="0"
   style="stop-color:#63402C"
   id="stop165" />
	<stop
   offset="5.000010e-02"
   style="stop-color:#B5835A"
   id="stop166" />
	
	<stop
   offset="0.9"
   style="stop-color:#865E3C"
   id="stop168" />
	<stop
   offset="0.95"
   style="stop-color:#B5835A"
   id="stop169" />
	<stop
   offset="1"
   style="stop-color:#63402C"
   id="stop170" />
</linearGradient><linearGradient
       id="linearGradient75"
       gradientUnits="userSpaceOnUse"
       x1="16.387199"
       y1="12.3872"
       x2="111.6128"
       y2="107.6128"
       gradientTransform="translate(0,172)"
       spreadMethod="pad">
	<stop
   offset="0.65359998"
   style="stop-color:#e0a97c;stop-opacity:1;"
   id="stop74" />
	<stop
   offset="1"
   style="stop-color:#A9876E"
   id="stop75" />
</linearGradient><inkscape:path-effect
       effect="fillet_chamfer"
       id="path-effect29"
       is_visible="true"
       lpeversion="1"
       nodesatellites_param="F,0,0,1,0,0,0,1 @ F,0,0,1,0,3,0,1 @ F,0,0,1,0,0,0,1"
       radius="0"
       unit="px"
       method="auto"
       mode="F"
       chamfer_steps="1"
       flexible="false"
       use_knot_distance="true"
       apply_no_radius="true"
       apply_with_radius="true"
       only_selected="false"
       hide_knots="false" /><inkscape:path-effect
       effect="fillet_chamfer"
       id="path-effect27"
       is_visible="true"
       lpeversion="1"
       nodesatellites_param="F,0,0,1,0,0,0,1 @ F,0,0,1,0,3,0,1 @ F,0,0,1,0,0,0,1"
       radius="0"
       unit="px"
       method="auto"
       mode="F"
       chamfer_steps="1"
       flexible="false"
       use_knot_distance="true"
       apply_no_radius="true"
       apply_with_radius="true"
       only_selected="false"
       hide_knots="false" /><inkscape:path-effect
       effect="fillet_chamfer"
       id="path-effect25"
       is_visible="true"
       lpeversion="1"
       nodesatellites_param="F,0,0,1,0,0,0,1 @ F,0,0,1,0,3,0,1 @ F,0,0,1,0,0,0,1"
       radius="0"
       unit="px"
       method="auto"
       mode="F"
       chamfer_steps="1"
       flexible="false"
       use_knot_distance="true"
       apply_no_radius="true"
       apply_with_radius="true"
       only_selected="false"
       hide_knots="false" /><inkscape:path-effect
       effect="fillet_chamfer"
       id="path-effect23"
       is_visible="true"
       lpeversion="1"
       nodesatellites_param="F,0,0,1,0,0,0,1 @ F,0,0,1,0,3,0,1 @ F,0,0,1,0,0,0,1"
       radius="0"
       unit="px"
       method="auto"
       mode="F"
       chamfer_steps="1"
       flexible="false"
       use_knot_distance="true"
       apply_no_radius="true"
       apply_with_radius="true"
       only_selected="false"
       hide_knots="false" /><inkscape:path-effect
       effect="fillet_chamfer"
       id="path-effect20"
       is_visible="true"
       lpeversion="1"
       nodesatellites_param="F,0,0,1,0,0,0,1 @ F,0,0,1,0,5,0,1 @ F,0,0,1,0,0,0,1"
       radius="0"
       unit="px"
       method="auto"
       mode="F"
       chamfer_steps="1"
       flexible="false"
       use_knot_distance="true"
       apply_no_radius="true"
       apply_with_radius="true"
       only_selected="false"
       hide_knots="false" /><inkscape:path-effect
       effect="fillet_chamfer"
       id="path-effect18"
       is_visible="true"
       lpeversion="1"
       nodesatellites_param="F,0,0,1,0,0,0,1 @ F,0,0,1,0,6,0,1 @ F,0,0,1,0,0,0,1"
       radius="0"
       unit="px"
       method="auto"
       mode="F"
       chamfer_steps="1"
       flexible="false"
       use_knot_distance="true"
       apply_no_radius="true"
       apply_with_radius="true"
       only_selected="false"
       hide_knots="false" /><inkscape:path-effect
       effect="fillet_chamfer"
       id="path-effect16"
       is_visible="true"
       lpeversion="1"
       nodesatellites_param="F,0,0,1,0,0,0,1 @ F,0,0,1,0,5,0,1 @ F,0,0,1,0,0,0,1"
       radius="0"
       unit="px"
       method="auto"
       mode="F"
       chamfer_steps="1"
       flexible="false"
       use_knot_distance="true"
       apply_no_radius="true"
       apply_with_radius="true"
       only_selected="false"
       hide_knots="false" /><inkscape:path-effect
       effect="fillet_chamfer"
       id="path-effect14"
       is_visible="true"
       lpeversion="1"
       nodesatellites_param="F,0,0,1,0,0,0,1 @ F,0,0,1,0,5,0,1 @ F,0,0,1,0,0,0,1"
       radius="0"
       unit="px"
       method="auto"
       mode="F"
       chamfer_steps="1"
       flexible="false"
       use_knot_distance="true"
       apply_no_radius="true"
       apply_with_radius="true"
       only_selected="false"
       hide_knots="false" /><linearGradient
       id="rect1_2_"
       gradientUnits="userSpaceOnUse"
       x1="1863.7131"
       y1="-1608.566"
       x2="2346.1748"
       y2="-1608.566"
       gradientTransform="matrix(0.2156,0,0,-0.3289,-389.748,-279.1336)"
       xlink:href="#linearGradient170">
	<stop
   offset="0"
   style="stop-color:#63402C"
   id="stop1" />
	<stop
   offset="5.000010e-02"
   style="stop-color:#B5835A"
   id="stop2" />
	<stop
   offset="9.980700e-02"
   style="stop-color:#865E3C"
   id="stop3" />
	<stop
   offset="0.9"
   style="stop-color:#865E3C"
   id="stop4" />
	<stop
   offset="0.95"
   style="stop-color:#B5835A"
   id="stop5" />
	<stop
   offset="1"
   style="stop-color:#63402C"
   id="stop6" />
</linearGradient><linearGradient
       id="rect2_2_"
       gradientUnits="userSpaceOnUse"
       x1="16.387199"
       y1="12.3872"
       x2="111.6128"
       y2="107.6128"
       gradientTransform="translate(0,172)"
       xlink:href="#linearGradient75">
	<stop
   offset="0.6536"
   style="stop-color:#CDAB8F"
   id="stop7" />
	<stop
   offset="1"
   style="stop-color:#A9876E"
   id="stop8" />
</linearGradient><linearGradient
       inkscape:collect="always"
       xlink:href="#rect2_2_"
       id="linearGradient29"
       gradientUnits="userSpaceOnUse"
       gradientTransform="translate(-260,172)"
       x1="16.387199"
       y1="12.3872"
       x2="111.6128"
       y2="107.6128" /><linearGradient
       inkscape:collect="always"
       xlink:href="#rect1_2_"
       id="linearGradient30"
       gradientUnits="userSpaceOnUse"
       gradientTransform="matrix(0.2156,0,0,-0.3289,-649.748,-279.1336)"
       x1="1863.7131"
       y1="-1608.566"
       x2="2346.1748"
       y2="-1608.566" /><linearGradient
       inkscape:collect="always"
       xlink:href="#linearGradient171"
       id="linearGradient172"
       x1="12"
       y1="268"
       x2="116"
       y2="268"
       gradientUnits="userSpaceOnUse" /></defs><sodipodi:namedview
     stroke="#ef2929"
     fill="#f57900"
     id="base"
     pagecolor="#ffffff"
     bordercolor="#666666"
     borderopacity="0.25490196"
     inkscape:pageopacity="0.0"
     inkscape:pageshadow="2"
     inkscape:zoom="5.6568545"
     inkscape:cx="32.792075"
     inkscape:cy="104.6518"
     inkscape:current-layer="layer9"
     showgrid="false"
     inkscape:grid-bbox="true"
     inkscape:document-units="px"
     inkscape:showpageshadow="false"
     inkscape:window-width="2560"
     inkscape:window-height="1371"
     inkscape:window-x="0"
     inkscape:window-y="0"
     width="400px"
     height="300px"
     inkscape:snap-nodes="true"
     inkscape:snap-bbox="true"
     objecttolerance="7"
     gridtolerance="12"
     guidetolerance="13"
     inkscape:window-maximized="1"
     inkscape:pagecheckerboard="false"
     showguides="false"
     inkscape:guide-bbox="true"
     inkscape:locked="false"
     inkscape:measure-start="0,0"
     inkscape:measure-end="0,0"
     inkscape:object-nodes="true"
     inkscape:bbox-nodes="true"
     inkscape:snap-global="true"
     inkscape:object-paths="true"
     inkscape:snap-intersection-paths="true"
     inkscape:snap-bbox-edge-midpoints="true"
     inkscape:snap-bbox-midpoints="true"
     showborder="true"
     inkscape:snap-center="true"
     inkscape:snap-object-midpoints="true"
     inkscape:snap-midpoints="true"
     inkscape:snap-smooth-nodes="true"
     inkscape:snap-text-baseline="true"
     borderlayer="true"
     inkscape:deskcolor="#d1d1d1"><inkscape:grid
       type="xygrid"
       id="grid5883"
       spacingx="2"
       spacingy="2"
       enabled="true"
       visible="false"
       empspacing="4"
       originx="8"
       originy="8"
       units="px" /><sodipodi:guide
       position="72,16"
       orientation="0,1"
       id="guide1073"
       inkscape:locked="false"
       inkscape:label=""
       inkscape:color="rgb(0,0,255)" /><sodipodi:guide
       position="20,72"
       orientation="1,0"
       id="guide1075"
       inkscape:locked="false"
       inkscape:label=""
       inkscape:color="rgb(0,0,255)" /><sodipodi:guide
       position="72,112"
       orientation="0,1"
       id="guide1099"
       inkscape:locked="false"
       inkscape:label=""
       inkscape:color="rgb(0,0,255)" /><sodipodi:guide
       position="72,136"
       orientation="0,1"
       id="guide993"
       inkscape:locked="false"
       inkscape:label=""
       inkscape:color="rgb(0,0,255)" /><sodipodi:guide
       position="112,72"
       orientation="1,0"
       id="guide995"
       inkscape:locked="false"
       inkscape:label=""
       inkscape:color="rgb(0,0,255)" /><sodipodi:guide
       position="8.0000001,72"
       orientation="1,0"
       id="guide867"
       inkscape:locked="false"
       inkscape:label=""
       inkscape:color="rgb(0,0,255)" /><sodipodi:guide
       position="128,72"
       orientation="1,0"
       id="guide869"
       inkscape:locked="false"
       inkscape:label=""
       inkscape:color="rgb(0,0,255)" /><sodipodi:guide
       position="72,124"
       orientation="0,1"
       id="guide871"
       inkscape:locked="false"
       inkscape:label=""
       inkscape:color="rgb(0,0,255)" /><inkscape:grid
       type="xygrid"
       id="grid873"
       spacingx="1"
       spacingy="1"
       empspacing="8"
       color="#000000"
       opacity="0.49019608"
       empcolor="#000000"
       empopacity="0.08627451"
       dotted="true"
       originx="8"
       originy="8"
       units="px"
       visible="false" /><sodipodi:guide
       position="32,72"
       orientation="1,0"
       id="guide877"
       inkscape:locked="false"
       inkscape:label=""
       inkscape:color="rgb(0,0,255)" /><sodipodi:guide
       position="124,72"
       orientation="1,0"
       id="guide879"
       inkscape:locked="false"
       inkscape:label=""
       inkscape:color="rgb(0,0,255)" /><sodipodi:guide
       position="72,128"
       orientation="0,1"
       id="guide881"
       inkscape:locked="false"
       inkscape:label=""
       inkscape:color="rgb(0,0,255)" /><sodipodi:guide
       position="72,20"
       orientation="0,1"
       id="guide883"
       inkscape:locked="false"
       inkscape:label=""
       inkscape:color="rgb(0,0,255)" /><sodipodi:guide
       position="16,72"
       orientation="1,0"
       id="guide885"
       inkscape:locked="false"
       inkscape:label=""
       inkscape:color="rgb(0,0,255)" /><sodipodi:guide
       position="136,72"
       orientation="1,0"
       id="guide887"
       inkscape:locked="false"
       inkscape:label=""
       inkscape:color="rgb(0,0,255)" /><sodipodi:guide
       position="72,8"
       orientation="0,1"
       id="guide897"
       inkscape:locked="false"
       inkscape:label=""
       inkscape:color="rgb(0,0,255)" /><sodipodi:guide
       position="72,32"
       orientation="0,1"
       id="guide899"
       inkscape:locked="false"
       inkscape:label=""
       inkscape:color="rgb(0,0,255)" /><sodipodi:guide
       position="264,264"
       orientation="-0.70710678,0.70710678"
       id="guide950"
       inkscape:locked="false"
       inkscape:label=""
       inkscape:color="rgb(0,0,255)" /><sodipodi:guide
       position="72,72"
       orientation="0.70710678,0.70710678"
       id="guide952"
       inkscape:locked="false"
       inkscape:label=""
       inkscape:color="rgb(0,0,255)" /></sodipodi:namedview><metadata
     id="metadata4"><rdf:RDF><cc:Work
         rdf:about=""><dc:format>image/svg+xml</dc:format><dc:type
           rdf:resource="http://purl.org/dc/dcmitype/StillImage" /><dc:creator><cc:Agent><dc:title>GNOME Design Team</dc:title></cc:Agent></dc:creator><dc:source /><dc:title>Adwaita Icon Template</dc:title><dc:subject><rdf:Bag /></dc:subject><dc:date /><dc:rights><cc:Agent><dc:title /></cc:Agent></dc:rights><dc:publisher><cc:Agent><dc:title /></cc:Agent></dc:publisher><dc:identifier /><dc:relation /><dc:language /><dc:coverage /><dc:description /><dc:contributor><cc:Agent><dc:title /></cc:Agent></dc:contributor><cc:license
           rdf:resource="http://creativecommons.org/licenses/by-sa/4.0/" /></cc:Work><cc:License
         rdf:about="http://creativecommons.org/licenses/by-sa/4.0/"><cc:permits
           rdf:resource="http://creativecommons.org/ns#Reproduction" /><cc:permits
           rdf:resource="http://creativecommons.org/ns#Distribution" /><cc:requires
           rdf:resource="http://creativecommons.org/ns#Notice" /><cc:requires
           rdf:resource="http://creativecommons.org/ns#Attribution" /><cc:permits
           rdf:resource="http://creativecommons.org/ns#DerivativeWorks" /><cc:requires
           rdf:resource="http://creativecommons.org/ns#ShareAlike" /></cc:License></rdf:RDF></metadata><g
     id="layer1"
     inkscape:label="App Icon"
     inkscape:groupmode="layer"
     style="display:inline"
     transform="translate(8,-156)"><g
       inkscape:groupmode="layer"
       id="layer4"
       inkscape:label="template"
       style="display:inline"
       sodipodi:insensitive="true"><rect
         inkscape:label="0"
         y="172"
         x="9.2651362e-08"
         height="128"
         width="128"
         id="hicolor"
         style="display:inline;overflow:visible;visibility:visible;fill:#f0f0f0;fill-opacity:0;fill-rule:nonzero;stroke:none;stroke-width:0.5;marker:none;enable-background:accumulate" /><rect
         style="display:inline;overflow:visible;visibility:visible;fill:#f0f0f0;fill-opacity:0;fill-rule:nonzero;stroke:none;stroke-width:0.5;marker:none;enable-background:accumulate"
         id="symbolic"
         width="16"
         height="16"
         x="160"
         y="172"
         inkscape:label="0" /></g><g
       inkscape:groupmode="layer"
       id="layer2"
       inkscape:label="baseplate"
       style="display:inline"
       sodipodi:insensitive="true"><g
         style="display:inline;fill:#000000;enable-background:new"
         transform="matrix(7.9911709,0,0,8.0036407,-167.7909,-4846.0776)"
         id="g12027"
         inkscape:export-xdpi="12"
         inkscape:export-ydpi="12" /><rect
         style="display:inline;overflow:visible;visibility:visible;fill:#f0f0f0;fill-opacity:1;fill-rule:nonzero;stroke:none;stroke-width:0.5;marker:none;enable-background:accumulate"
         id="128"
         width="128"
         height="128"
         x="9.2651362e-08"
         y="172"
         inkscape:label="0" /><g
         id="g883"
         style="fill:none;fill-opacity:0.25098;stroke:#a579b3;stroke-opacity:1"
         transform="translate(-24,24)" /><g
         id="g900"
         style="fill:none;fill-opacity:0.25098;stroke:#a579b3;stroke-opacity:1"
         transform="translate(-24,24)" /><rect
         inkscape:label=""
         y="172"
         x="160"
         height="16"
         width="16"
         id="16"
         style="display:inline;overflow:visible;visibility:visible;fill:#f0f0f0;fill-opacity:1;fill-rule:nonzero;stroke:none;stroke-width:0.5;marker:none;enable-background:accumulate" /><text
         xml:space="preserve"
         style="font-style:normal;font-variant:normal;font-weight:bold;font-stretch:normal;font-size:4px;line-height:125%;font-family:Cantarell;-inkscape-font-specification:'Cantarell, Bold';text-align:start;writing-mode:lr-tb;text-anchor:start;display:inline;fill:#000000;fill-opacity:1;stroke:none;stroke-width:0.332649;enable-background:new"
         x="0"
         y="167"
         id="text863"
         inkscape:label="icon-name"><tspan
           style="font-size:4px;stroke-width:0.332649"
           sodipodi:role="line"
           id="tspan861"
           x="0"
           y="167">Hicolor</tspan></text><text
         inkscape:label="icon-name"
         id="text867"
         y="167"
         x="160"
         style="font-style:normal;font-variant:normal;font-weight:bold;font-stretch:normal;font-size:4px;line-height:125%;font-family:Cantarell;-inkscape-font-specification:'Cantarell, Bold';text-align:start;writing-mode:lr-tb;text-anchor:start;display:inline;fill:#000000;fill-opacity:1;stroke:none;stroke-width:0.332649;enable-background:new"
         xml:space="preserve"><tspan
           y="167"
           x="160"
           id="tspan865"
           sodipodi:role="line"
           style="font-size:4px;stroke-width:0.332649">Symbolic</tspan></text></g><g
       inkscape:groupmode="layer"
       id="layer9"
       inkscape:label="icons"
       style="display:inline"><path
         id="rect1_1_"
         class="st0"
         d="m 20,212 h 88 c 4.4,0 8,3.6 8,8 v 60 c 0,4.4 -3.6,8 -8,8 H 20 c -4.4,0 -8,-3.6 -8,-8 v -60 c 0,-4.4 3.6,-8 8,-8 z"
         style="fill:url(#linearGradient172);fill-opacity:1"
         sodipodi:nodetypes="sssssssss" /><path
         id="rect2_1_"
         class="st1"
         d="m 20.3,184 h 87.4 c 4.6,0 8.3,3.6 8.3,8 v 80 c 0,4.4 -3.7,8 -8.3,8 H 20.3 c -4.6,0 -8.3,-3.6 -8.3,-8 v -80 c 0,-4.4 3.7,-8 8.3,-8 z"
         style="fill:#dab584;fill-opacity:1"
         sodipodi:nodetypes="sssssssss" /><g
         id="g41"
         style="fill:#fef3eb;fill-opacity:1"><rect
           style="font-variation-settings:normal;opacity:1;vector-effect:none;fill:#f7edd9;fill-opacity:1;stroke:none;stroke-width:1;stroke-linecap:butt;stroke-linejoin:miter;stroke-miterlimit:4;stroke-dasharray:none;stroke-dashoffset:0;stroke-opacity:1;-inkscape-stroke:none;paint-order:markers stroke fill;stop-color:#000000;stop-opacity:1"
           id="rect30"
           width="28"
           height="26"
           x="18"
           y="190"
           rx="5"
           ry="5" /><rect
           style="font-variation-settings:normal;opacity:1;vector-effect:none;fill:#e7cda8;fill-opacity:1;stroke:none;stroke-width:1;stroke-linecap:butt;stroke-linejoin:miter;stroke-miterlimit:4;stroke-dasharray:none;stroke-dashoffset:0;stroke-opacity:1;-inkscape-stroke:none;paint-order:markers stroke fill;stop-color:#000000;stop-opacity:1"
           id="rect31"
           width="28"
           height="26"
           x="50"
           y="190"
           rx="5"
           ry="5" /><rect
           style="font-variation-settings:normal;opacity:1;vector-effect:none;fill:#f7edd9;fill-opacity:1;stroke:none;stroke-width:1;stroke-linecap:butt;stroke-linejoin:miter;stroke-miterlimit:4;stroke-dasharray:none;stroke-dashoffset:0;stroke-opacity:1;-inkscape-stroke:none;paint-order:markers stroke fill;stop-color:#000000;stop-opacity:1"
           id="rect35"
           width="28"
           height="26"
           x="18"
           y="219"
           rx="5"
           ry="5" /><rect
           style="font-variation-settings:normal;opacity:1;vector-effect:none;fill:#f7edd9;fill-opacity:1;stroke:none;stroke-width:1;stroke-linecap:butt;stroke-linejoin:miter;stroke-miterlimit:4;stroke-dasharray:none;stroke-dashoffset:0;stroke-opacity:1;-inkscape-stroke:none;paint-order:markers stroke fill;stop-color:#000000;stop-opacity:1"
           id="rect36"
           width="28"
           height="26"
           x="50"
           y="219"
           rx="5"
           ry="5" /><rect
           style="font-variation-settings:normal;opacity:1;vector-effect:none;fill:#f7edd9;fill-opacity:1;stroke:none;stroke-width:1;stroke-linecap:butt;stroke-linejoin:miter;stroke-miterlimit:4;stroke-dasharray:none;stroke-dashoffset:0;stroke-opacity:1;-inkscape-stroke:none;paint-order:markers stroke fill;stop-color:#000000;stop-opacity:1"
           id="rect37"
           width="28"
           height="26"
           x="18"
           y="248"
           rx="5"
           ry="5" /><rect
           style="font-variation-settings:normal;opacity:1;vector-effect:none;fill:#e7cda8;fill-opacity:1;stroke:none;stroke-width:1;stroke-linecap:butt;stroke-linejoin:miter;stroke-miterlimit:4;stroke-dasharray:none;stroke-dashoffset:0;stroke-opacity:1;-inkscape-stroke:none;paint-order:markers stroke fill;stop-color:#000000;stop-opacity:1"
           id="rect38"
           width="28"
           height="26"
           x="50"
           y="248"
           rx="5"
           ry="5" /><rect
           style="font-variation-settings:normal;opacity:1;vector-effect:none;fill:#e7cda8;fill-opacity:1;stroke:none;stroke-width:1;stroke-linecap:butt;stroke-linejoin:miter;stroke-miterlimit:4;stroke-dasharray:none;stroke-dashoffset:0;stroke-opacity:1;-inkscape-stroke:none;paint-order:markers stroke fill;stop-color:#000000;stop-opacity:1"
           id="rect39"
           width="28"
           height="26"
           x="82"
           y="190"
           rx="5"
           ry="5" /><rect
           style="font-variation-settings:normal;opacity:1;vector-effect:none;fill:#f7edd9;fill-opacity:1;stroke:none;stroke-width:1;stroke-linecap:butt;stroke-linejoin:miter;stroke-miterlimit:4;stroke-dasharray:none;stroke-dashoffset:0;stroke-opacity:1;-inkscape-stroke:none;paint-order:markers stroke fill;stop-color:#000000;stop-opacity:1"
           id="rect40"
           width="28"
           height="26"
           x="82"
           y="219"
           rx="5"
           ry="5" /><rect
           style="font-variation-settings:normal;opacity:1;vector-effect:none;fill:#e7cda8;fill-opacity:1;stroke:none;stroke-width:1;stroke-linecap:butt;stroke-linejoin:miter;stroke-miterlimit:4;stroke-dasharray:none;stroke-dashoffset:0;stroke-opacity:1;-inkscape-stroke:none;paint-order:markers stroke fill;stop-color:#000000;stop-opacity:1"
           id="rect41"
           width="28"
           height="26"
           x="82"
           y="248"
           rx="5"
           ry="5" /></g><g
         class="st5"
         id="g22"
         style="opacity:0.4"
         transform="translate(0,172)">
	<g
   id="g21">
		<g
   id="g18">
			
			
		</g>
		<g
   id="g20">
			
			
		</g>
	</g>
</g><rect
         x="160.5"
         y="174.8"
         width="15"
         height="1.2"
         rx="0.60000002"
         id="rect1"
         ry="0.60000002" /><rect
         x="160.5"
         y="184"
         width="15"
         height="1.2"
         rx="0.60000002"
         id="rect2"
         ry="0.60000002" /><rect
         x="172.5"
         y="-173.2"
         width="15"
         height="1.2"
         rx="0.60000002"
         transform="rotate(90)"
         id="rect3"
         ry="0.60000002" /><rect
         x="172.5"
         y="-164.2"
         width="15"
         height="1.2"
         rx="0.60000002"
         transform="rotate(90)"
         id="rect4"
         ry="0.60000002" /><path
         d="m 58.145762,210.7 v -2.77253 l 5.353852,-4.32133 q 0.401539,-0.32505 0.831759,-0.68835 0.43022,-0.37286 0.726594,-0.84132 0.296374,-0.47802 0.296374,-1.08989 0,-0.5067 -0.21989,-0.88912 -0.219891,-0.38242 -0.62143,-0.59275 -0.391978,-0.21989 -0.927363,-0.21989 -0.573627,0 -1.013408,0.26769 -0.43978,0.2677 -0.688352,0.78396 -0.239011,0.51626 -0.239011,1.26198 h -3.642531 q 0,-1.66352 0.678791,-2.86814 0.678792,-1.20461 1.931211,-1.85472 1.252419,-0.65011 2.98286,-0.65011 1.577474,0 2.810772,0.54494 1.233298,0.54495 1.931211,1.56792 0.707473,1.0134 0.707473,2.42835 0,1.06121 -0.411099,1.89297 -0.401539,0.83176 -1.128133,1.56791 -0.717034,0.7266 -1.663518,1.50099 l -2.304068,1.87385 v 0.0191 h 5.54506 V 210.7 Z"
         id="text8"
         style="font-size:19.5798px;font-family:'Adwaita Sans';-inkscape-font-specification:'Adwaita Sans, @opsz=32,wght=900';font-variation-settings:'opsz' 32, 'wght' 900;text-align:center;text-anchor:middle;white-space:pre;fill:#603714;stroke-width:2;paint-order:markers stroke fill;fill-opacity:1"
         aria-label="2" /><path
         d="m 91.688237,210.7 5.583303,-10.99452 v -0.0191 h -6.558468 v -3.23143 h 10.573858 v 3.09758 L 95.665384,210.7 Z"
         id="text9"
         style="font-size:19.5798px;font-family:'Adwaita Sans';-inkscape-font-specification:'Adwaita Sans, @opsz=32,wght=900';font-variation-settings:'opsz' 32, 'wght' 900;text-align:center;text-anchor:middle;white-space:pre;fill:#c01c28;stroke-width:2;paint-order:markers stroke fill"
         aria-label="7" /><path
         d="m 28.388238,238.8 5.583302,-10.99451 v -0.0191 h -6.558468 v -3.23144 h 10.573857 v 3.09759 L 32.365385,238.8 Z"
         id="text10"
         style="font-size:19.5798px;font-family:'Adwaita Sans';-inkscape-font-specification:'Adwaita Sans, @opsz=32,wght=900';font-variation-settings:'opsz' 32, 'wght' 900;text-align:center;text-anchor:middle;white-space:pre;fill:#c01c28;stroke-width:2;paint-order:markers stroke fill"
         aria-label="7" /><path
         d="m 57.953835,236.04659 v -3.00198 l 5.803193,-8.48968 h 2.514398 v 3.55649 h -1.367144 l -3.365278,4.99056 v 0.0191 h 8.690448 v 2.92549 z M 64.913842,238.8 v -3.67121 -1.31934 -9.25452 h 3.728575 V 238.8 Z"
         id="text11"
         style="font-size:19.5798px;font-family:'Adwaita Sans';-inkscape-font-specification:'Adwaita Sans, @opsz=32,wght=900';font-variation-settings:'opsz' 32, 'wght' 900;text-align:center;text-anchor:middle;white-space:pre;fill:#603714;stroke-width:2;paint-order:markers stroke fill;fill-opacity:1"
         aria-label="4" /><path
         d="m 32.091643,268.35176 q -1.778243,0 -3.107145,-0.5067 -1.319342,-0.50671 -2.055497,-1.4245 -0.726594,-0.92737 -0.726594,-2.16066 0,-0.98473 0.449341,-1.71132 0.458902,-0.73617 1.300221,-1.19506 0.85088,-0.45891 2.017255,-0.61188 v 0.01 q -1.558353,-0.21989 -2.447475,-1.04208 -0.879561,-0.82221 -0.879561,-2.16066 0,-1.16638 0.678791,-2.04594 0.688353,-0.87957 1.91209,-1.36715 1.233298,-0.48758 2.858574,-0.48758 1.673079,0 2.896817,0.47802 1.223737,0.47802 1.892968,1.35758 0.678792,0.87001 0.678792,2.06507 0,1.33845 -0.879561,2.16066 -0.879561,0.81263 -2.447475,1.04208 v -0.01 q 1.166375,0.15297 2.007694,0.61188 0.85088,0.45889 1.300221,1.19506 0.458902,0.72659 0.458902,1.71132 0,1.23329 -0.736155,2.16066 -0.736154,0.91779 -2.065057,1.4245 -1.319342,0.5067 -3.107146,0.5067 z m 0,-2.6578 q 0.544946,0 0.975166,-0.2199 0.43022,-0.22944 0.669232,-0.62142 0.248571,-0.40153 0.248571,-0.89868 0,-0.5067 -0.248571,-0.88912 -0.239012,-0.39198 -0.669232,-0.61187 -0.420659,-0.2199 -0.975166,-0.2199 -0.544945,0 -0.965605,0.2199 -0.42066,0.21989 -0.669231,0.61187 -0.239012,0.38242 -0.239012,0.88912 0,0.50671 0.239012,0.89868 0.248571,0.39198 0.669231,0.62142 0.42066,0.2199 0.965605,0.2199 z m 0,-6.24297 q 0.516265,0 0.889122,-0.18165 0.382418,-0.19122 0.583188,-0.53538 0.21033,-0.34418 0.21033,-0.80308 0,-0.46846 -0.21033,-0.80309 -0.20077,-0.34416 -0.583188,-0.52581 -0.372857,-0.19122 -0.889122,-0.19122 -0.506703,0 -0.879561,0.19122 -0.372857,0.18165 -0.583187,0.52581 -0.20077,0.33462 -0.20077,0.80309 0,0.4589 0.20077,0.80308 0.21033,0.34417 0.583187,0.53538 0.372858,0.18165 0.879561,0.18165 z"
         id="text12"
         style="font-size:19.5798px;font-family:'Adwaita Sans';-inkscape-font-specification:'Adwaita Sans, @opsz=32,wght=900';font-variation-settings:'opsz' 32, 'wght' 900;text-align:center;text-anchor:middle;white-space:pre;fill:#603714;stroke-width:2;paint-order:markers stroke fill;fill-opacity:1"
         aria-label="8" /><path
         d="m 95.774514,268.35198 q -2.036376,0 -3.307915,-0.7266 -1.27154,-0.72659 -1.873848,-1.89297 -0.592748,-1.17594 -0.592748,-2.50484 h 3.728575 q 0,0.66924 0.239011,1.15681 0.248572,0.4876 0.697913,0.74573 0.458902,0.25812 1.089891,0.25812 0.573627,0 1.003847,-0.20076 0.439781,-0.20077 0.678792,-0.55451 0.248572,-0.36329 0.248572,-0.82219 0,-0.47803 -0.267693,-0.83176 -0.267692,-0.35374 -0.755275,-0.54495 -0.487583,-0.20077 -1.156815,-0.20077 h -1.376704 v -2.67692 h 1.376704 q 0.640551,0 1.089892,-0.17209 0.458901,-0.18165 0.697912,-0.50671 0.248572,-0.33461 0.248572,-0.79351 0,-0.45891 -0.229451,-0.81264 -0.21989,-0.35374 -0.611868,-0.55451 -0.382418,-0.20077 -0.889122,-0.20077 -0.525825,0 -0.946485,0.21989 -0.411099,0.21989 -0.65011,0.61187 -0.239011,0.39198 -0.239011,0.90824 h -3.709455 q 0,-1.30978 0.659671,-2.35187 0.659671,-1.04209 1.90253,-1.64439 1.242858,-0.61188 2.98286,-0.61188 1.577474,0 2.791651,0.5067 1.214177,0.50671 1.892973,1.39583 0.68835,0.88913 0.68835,2.05549 0,1.30023 -0.8222,2.1033 -0.812639,0.79352 -2.026816,0.93693 v 0.0287 q 1.070771,0.10517 1.797366,0.60231 0.73615,0.49714 1.10901,1.24285 0.38242,0.73616 0.38242,1.58704 0,1.21418 -0.73616,2.17978 -0.73615,0.95605 -2.055492,1.51055 -1.309782,0.55451 -3.059344,0.55451 z"
         id="text13"
         style="font-size:19.5798px;font-family:'Adwaita Sans';-inkscape-font-specification:'Adwaita Sans, @opsz=32,wght=900';font-variation-settings:'opsz' 32, 'wght' 900;text-align:center;text-anchor:middle;white-space:pre;fill:#603714;stroke-width:2;paint-order:markers stroke fill;fill-opacity:1"
         aria-label="3" /><g
         id="g187"
         style="stroke:#1a5fb4"
         transform="translate(0,1)"><path
           style="font-variation-settings:'opsz' 32, 'wght' 900;opacity:1;fill:none;fill-opacity:1;stroke:#1a5fb4;stroke-width:4;stroke-linecap:round;stroke-linejoin:round;stroke-miterlimit:4;stroke-dasharray:none;stroke-dashoffset:0;stroke-opacity:1;paint-order:markers stroke fill"
           d="m 74,216 a 5,5 45 0 1 5,5 v 1"
           id="path14"
           inkscape:path-effect="#path-effect14"
           inkscape:original-d="m 74,216 h 5 v 6"
           transform="translate(-33,3)" /><path
           style="font-variation-settings:'opsz' 32, 'wght' 900;opacity:1;fill:none;fill-opacity:1;stroke:#1a5fb4;stroke-width:4;stroke-linecap:round;stroke-linejoin:round;stroke-miterlimit:4;stroke-dasharray:none;stroke-dashoffset:0;stroke-opacity:1;paint-order:markers stroke fill"
           d="m 74,216 a 5,5 45 0 1 5,5 v 1"
           id="path15"
           inkscape:path-effect="#path-effect16"
           inkscape:original-d="m 74,216 h 5 v 6"
           transform="matrix(-1,0,0,1,97,3)" /><path
           style="font-variation-settings:'opsz' 32, 'wght' 900;opacity:1;fill:none;fill-opacity:1;stroke:#1a5fb4;stroke-width:4;stroke-linecap:round;stroke-linejoin:round;stroke-miterlimit:4;stroke-dasharray:none;stroke-dashoffset:0;stroke-opacity:1;paint-order:markers stroke fill"
           d="m 74,216 a 5.5226805,5.5226805 50.194429 0 1 5,6"
           id="path16"
           inkscape:path-effect="#path-effect18"
           inkscape:original-d="m 74,216 h 5 v 6"
           transform="matrix(1,0,0,-1,-33,461)" /><path
           style="font-variation-settings:'opsz' 32, 'wght' 900;opacity:1;fill:none;fill-opacity:1;stroke:#1a5fb4;stroke-width:4;stroke-linecap:round;stroke-linejoin:round;stroke-miterlimit:4;stroke-dasharray:none;stroke-dashoffset:0;stroke-opacity:1;paint-order:markers stroke fill"
           d="m 74,216 a 5,5 45 0 1 5,5 v 1"
           id="path17"
           inkscape:path-effect="#path-effect20"
           inkscape:original-d="m 74,216 h 5 v 6"
           transform="rotate(180,48.5,230.5)" /></g><path
         d="m 165.41068,183 2.35143,-3.991 V 179 H 165 v -2 h 6 v 1.30454 l -2.52229,4.6948 z"
         id="path20"
         style="font-size:19.5798px;font-family:'Adwaita Sans';-inkscape-font-specification:'Adwaita Sans, @opsz=32,wght=900';font-variation-settings:'opsz' 32, 'wght' 900;text-align:center;text-anchor:middle;white-space:pre;fill:#000000;fill-opacity:1;stroke-width:2;paint-order:markers stroke fill"
         aria-label="7"
         sodipodi:nodetypes="ccccccccc" /><path
         id="path1"
         class="st0"
         d="m -240,212 h 88 c 4.4,0 8,3.6 8,8 v 60 c 0,4.4 -3.6,8 -8,8 h -88 c -4.4,0 -8,-3.6 -8,-8 v -60 c 0,-4.4 3.6,-8 8,-8 z"
         style="fill:url(#linearGradient30)" /><path
         id="path2"
         class="st1"
         d="m -239.7,184 h 87.4 c 4.6,0 8.3,3.6 8.3,8 v 80 c 0,4.4 -3.7,8 -8.3,8 h -87.4 c -4.6,0 -8.3,-3.6 -8.3,-8 v -80 c 0,-4.4 3.7,-8 8.3,-8 z"
         style="fill:url(#linearGradient29)" /><rect
         style="font-variation-settings:normal;opacity:0.25;vector-effect:none;fill:#ffffff;fill-opacity:1;stroke:none;stroke-width:0.999999;stroke-linecap:butt;stroke-linejoin:miter;stroke-miterlimit:4;stroke-dasharray:none;stroke-dashoffset:0;stroke-opacity:1;-inkscape-stroke:none;paint-order:markers stroke fill;stop-color:#000000;stop-opacity:1"
         id="rect6"
         width="92"
         height="84"
         x="-242"
         y="190"
         rx="2.4527335"
         ry="2.4527335" /><path
         id="path6"
         style="font-variation-settings:normal;opacity:0.199808;fill:none;fill-opacity:1;stroke:#b08e75;stroke-width:2;stroke-linecap:butt;stroke-linejoin:miter;stroke-miterlimit:4;stroke-dasharray:none;stroke-dashoffset:0;stroke-opacity:1;paint-order:markers stroke fill"
         d="m -160.98364,215.98363 h -72 m 72.00001,32.03274 h -72 M -180.96727,268 V 196 M -213,268 v -72" /><path
         d="m -202.85424,210.7 v -2.77253 l 5.35385,-4.32133 q 0.40154,-0.32505 0.83176,-0.68835 0.43022,-0.37286 0.7266,-0.84132 0.29637,-0.47802 0.29637,-1.08989 0,-0.5067 -0.21989,-0.88912 -0.21989,-0.38242 -0.62143,-0.59275 -0.39198,-0.21989 -0.92736,-0.21989 -0.57363,0 -1.01341,0.26769 -0.43978,0.2677 -0.68835,0.78396 -0.23901,0.51626 -0.23901,1.26198 h -3.64253 q 0,-1.66352 0.67879,-2.86814 0.67879,-1.20461 1.93121,-1.85472 1.25242,-0.65011 2.98286,-0.65011 1.57747,0 2.81077,0.54494 1.2333,0.54495 1.93121,1.56792 0.70747,1.0134 0.70747,2.42835 0,1.06121 -0.4111,1.89297 -0.40153,0.83176 -1.12813,1.56791 -0.71703,0.7266 -1.66352,1.50099 l -2.30406,1.87385 v 0.0191 h 5.54506 V 210.7 Z"
         id="path7"
         style="font-size:19.5798px;font-family:'Adwaita Sans';-inkscape-font-specification:'Adwaita Sans, @opsz=32,wght=900';font-variation-settings:'opsz' 32, 'wght' 900;text-align:center;text-anchor:middle;white-space:pre;fill:#865e3c;stroke-width:2;paint-order:markers stroke fill"
         aria-label="2" /><path
         d="m -170.31176,210.7 5.5833,-10.99452 v -0.0191 h -6.55847 v -3.23143 h 10.57386 v 3.09758 L -166.33462,210.7 Z"
         id="path9"
         style="font-size:19.5798px;font-family:'Adwaita Sans';-inkscape-font-specification:'Adwaita Sans, @opsz=32,wght=900';font-variation-settings:'opsz' 32, 'wght' 900;text-align:center;text-anchor:middle;white-space:pre;fill:#c01c28;stroke-width:2;paint-order:markers stroke fill"
         aria-label="7" /><path
         d="m -200.61176,238.8 5.5833,-10.99451 v -0.0191 h -6.55847 v -3.23144 h 10.57386 v 3.09759 L -196.63461,238.8 Z"
         id="path10"
         style="font-size:19.5798px;font-family:'Adwaita Sans';-inkscape-font-specification:'Adwaita Sans, @opsz=32,wght=900';font-variation-settings:'opsz' 32, 'wght' 900;text-align:center;text-anchor:middle;white-space:pre;fill:#c01c28;stroke-width:2;paint-order:markers stroke fill"
         aria-label="7" /><path
         d="m -234.04617,236.04659 v -3.00198 l 5.8032,-8.48968 h 2.5144 v 3.55649 h -1.36715 l -3.36528,4.99056 v 0.0191 h 8.69045 v 2.92549 z m 6.96001,2.75341 v -3.67121 -1.31934 -9.25452 h 3.72858 V 238.8 Z"
         id="path11"
         style="font-size:19.5798px;font-family:'Adwaita Sans';-inkscape-font-specification:'Adwaita Sans, @opsz=32,wght=900';font-variation-settings:'opsz' 32, 'wght' 900;text-align:center;text-anchor:middle;white-space:pre;fill:#865e3c;stroke-width:2;paint-order:markers stroke fill"
         aria-label="4" /><path
         d="m -227.90836,269.99999 q -1.77824,0 -3.10714,-0.5067 -1.31934,-0.50671 -2.0555,-1.42451 -0.72659,-0.92737 -0.72659,-2.16066 0,-0.98473 0.44934,-1.71132 0.4589,-0.73616 1.30022,-1.19506 0.85088,-0.4589 2.01725,-0.61187 v 0.01 q -1.55835,-0.21989 -2.44747,-1.04209 -0.87956,-0.8222 -0.87956,-2.16066 0,-1.16637 0.67879,-2.04593 0.68835,-0.87957 1.91209,-1.36715 1.2333,-0.48758 2.85857,-0.48758 1.67308,0 2.89682,0.47802 1.22374,0.47802 1.89297,1.35758 0.67879,0.87001 0.67879,2.06506 0,1.33846 -0.87956,2.16066 -0.87956,0.81264 -2.44748,1.04209 v -0.01 q 1.16638,0.15297 2.0077,0.61187 0.85088,0.4589 1.30022,1.19506 0.4589,0.72659 0.4589,1.71132 0,1.23329 -0.73615,2.16066 -0.73616,0.9178 -2.06506,1.42451 -1.31934,0.5067 -3.10715,0.5067 z m 0,-2.65781 q 0.54495,0 0.97517,-0.21989 0.43022,-0.22945 0.66923,-0.62143 0.24857,-0.40153 0.24857,-0.89868 0,-0.5067 -0.24857,-0.88912 -0.23901,-0.39198 -0.66923,-0.61187 -0.42066,-0.21989 -0.97517,-0.21989 -0.54494,0 -0.9656,0.21989 -0.42066,0.21989 -0.66923,0.61187 -0.23901,0.38242 -0.23901,0.88912 0,0.50671 0.23901,0.89868 0.24857,0.39198 0.66923,0.62143 0.42066,0.21989 0.9656,0.21989 z m 0,-6.24297 q 0.51627,0 0.88913,-0.18165 0.38241,-0.19121 0.58318,-0.53538 0.21033,-0.34418 0.21033,-0.80308 0,-0.46846 -0.21033,-0.80308 -0.20077,-0.34417 -0.58318,-0.52582 -0.37286,-0.19121 -0.88913,-0.19121 -0.5067,0 -0.87956,0.19121 -0.37285,0.18165 -0.58318,0.52582 -0.20077,0.33462 -0.20077,0.80308 0,0.4589 0.20077,0.80308 0.21033,0.34417 0.58318,0.53538 0.37286,0.18165 0.87956,0.18165 z"
         id="path12"
         style="font-size:19.5798px;font-family:'Adwaita Sans';-inkscape-font-specification:'Adwaita Sans, @opsz=32,wght=900';font-variation-settings:'opsz' 32, 'wght' 900;text-align:center;text-anchor:middle;white-space:pre;fill:#865e3c;stroke-width:2;paint-order:markers stroke fill"
         aria-label="8" /><path
         d="m -166.22549,268.70397 q -2.03637,0 -3.30791,-0.7266 -1.27154,-0.72659 -1.87385,-1.89296 Q -172,264.90847 -172,263.57957 h 3.72858 q 0,0.66923 0.23901,1.15681 0.24857,0.48759 0.69791,0.74572 0.4589,0.25813 1.08989,0.25813 0.57363,0 1.00385,-0.20077 0.43978,-0.20077 0.67879,-0.55451 0.24857,-0.36329 0.24857,-0.82219 0,-0.47803 -0.26769,-0.83176 -0.26769,-0.35374 -0.75527,-0.54495 -0.48759,-0.20077 -1.15682,-0.20077 h -1.3767 v -2.67692 h 1.3767 q 0.64055,0 1.08989,-0.17209 0.4589,-0.18165 0.69792,-0.50671 0.24857,-0.33461 0.24857,-0.79351 0,-0.45891 -0.22945,-0.81264 -0.21989,-0.35374 -0.61187,-0.55451 -0.38242,-0.20077 -0.88912,-0.20077 -0.52583,0 -0.94649,0.21989 -0.4111,0.21989 -0.65011,0.61187 -0.23901,0.39198 -0.23901,0.90824 h -3.70945 q 0,-1.30978 0.65967,-2.35187 0.65967,-1.04209 1.90253,-1.64439 1.24285,-0.61187 2.98286,-0.61187 1.57747,0 2.79165,0.5067 1.21417,0.50671 1.89297,1.39583 0.68835,0.88912 0.68835,2.05549 0,1.30022 -0.8222,2.1033 -0.81264,0.79352 -2.02682,0.93693 v 0.0287 q 1.07077,0.10516 1.79737,0.60231 0.73615,0.49714 1.10901,1.24285 0.38242,0.73616 0.38242,1.58704 0,1.21418 -0.73616,2.17978 -0.73615,0.95605 -2.05549,1.51055 -1.30978,0.55451 -3.05935,0.55451 z"
         id="path13"
         style="font-size:19.5798px;font-family:'Adwaita Sans';-inkscape-font-specification:'Adwaita Sans, @opsz=32,wght=900';font-variation-settings:'opsz' 32, 'wght' 900;text-align:center;text-anchor:middle;white-space:pre;fill:#865e3c;stroke-width:2;paint-order:markers stroke fill"
         aria-label="3" /><path
         style="font-variation-settings:'opsz' 32, 'wght' 900;opacity:1;fill:none;fill-opacity:1;stroke:#e66100;stroke-width:4;stroke-linecap:round;stroke-linejoin:round;stroke-miterlimit:4;stroke-dasharray:none;stroke-dashoffset:0;stroke-opacity:1;paint-order:markers stroke fill"
         d="m 74,216 h 2 a 3,3 45 0 1 3,3 v 3"
         id="path18"
         inkscape:path-effect="#path-effect23"
         inkscape:original-d="m 74,216 h 5 v 6"
         transform="translate(-260)" /><path
         style="font-variation-settings:'opsz' 32, 'wght' 900;opacity:1;fill:none;fill-opacity:1;stroke:#e66100;stroke-width:4;stroke-linecap:round;stroke-linejoin:round;stroke-miterlimit:4;stroke-dasharray:none;stroke-dashoffset:0;stroke-opacity:1;paint-order:markers stroke fill"
         d="m 74,216 h 2 a 3,3 45 0 1 3,3 v 3"
         id="path19"
         inkscape:path-effect="#path-effect25"
         inkscape:original-d="m 74,216 h 5 v 6"
         transform="matrix(-1,0,0,1,-134,0)" /><path
         style="font-variation-settings:'opsz' 32, 'wght' 900;opacity:1;fill:none;fill-opacity:1;stroke:#e66100;stroke-width:4;stroke-linecap:round;stroke-linejoin:round;stroke-miterlimit:4;stroke-dasharray:none;stroke-dashoffset:0;stroke-opacity:1;paint-order:markers stroke fill"
         d="m 74,216 h 2 a 3,3 45 0 1 3,3 v 3"
         id="path21"
         inkscape:path-effect="#path-effect27"
         inkscape:original-d="m 74,216 h 5 v 6"
         transform="matrix(1,0,0,-1,-260,464)" /><path
         style="font-variation-settings:'opsz' 32, 'wght' 900;opacity:1;fill:none;fill-opacity:1;stroke:#e66100;stroke-width:4;stroke-linecap:round;stroke-linejoin:round;stroke-miterlimit:4;stroke-dasharray:none;stroke-dashoffset:0;stroke-opacity:1;paint-order:markers stroke fill"
         d="m 74,216 h 2 a 3,3 45 0 1 3,3 v 3"
         id="path22"
         inkscape:path-effect="#path-effect29"
         inkscape:original-d="m 74,216 h 5 v 6"
         transform="rotate(180,-67,232)" /><g
         id="g186"><path
           style="font-variation-settings:'opsz' 32, 'wght' 900;opacity:1;fill:none;fill-opacity:1;stroke:#3584e4;stroke-width:4;stroke-linecap:round;stroke-linejoin:round;stroke-miterlimit:4;stroke-dasharray:none;stroke-dashoffset:0;stroke-opacity:1;paint-order:markers stroke fill"
           d="m 74,216 a 5,5 45 0 1 5,5 v 1"
           id="path176"
           inkscape:path-effect="#path-effect180"
           inkscape:original-d="m 74,216 h 5 v 6"
           transform="translate(-33,2)" /><path
           style="font-variation-settings:'opsz' 32, 'wght' 900;opacity:1;fill:none;fill-opacity:1;stroke:#3584e4;stroke-width:4;stroke-linecap:round;stroke-linejoin:round;stroke-miterlimit:4;stroke-dasharray:none;stroke-dashoffset:0;stroke-opacity:1;paint-order:markers stroke fill"
           d="m 74,216 a 5,5 45 0 1 5,5 v 1"
           id="path177"
           inkscape:path-effect="#path-effect182"
           inkscape:original-d="m 74,216 h 5 v 6"
           transform="matrix(-1,0,0,1,97,2)" /><path
           style="font-variation-settings:'opsz' 32, 'wght' 900;opacity:1;fill:none;fill-opacity:1;stroke:#3584e4;stroke-width:4;stroke-linecap:round;stroke-linejoin:round;stroke-miterlimit:4;stroke-dasharray:none;stroke-dashoffset:0;stroke-opacity:1;paint-order:markers stroke fill"
           d="m 74,216 a 5.5226805,5.5226805 50.194429 0 1 5,6"
           id="path178"
           inkscape:path-effect="#path-effect184"
           inkscape:original-d="m 74,216 h 5 v 6"
           transform="matrix(1,0,0,-1,-33,460)" /><path
           style="font-variation-settings:'opsz' 32, 'wght' 900;opacity:1;fill:none;fill-opacity:1;stroke:#3584e4;stroke-width:4;stroke-linecap:round;stroke-linejoin:round;stroke-miterlimit:4;stroke-dasharray:none;stroke-dashoffset:0;stroke-opacity:1;paint-order:markers stroke fill"
           d="m 74,216 a 5,5 45 0 1 5,5 v 1"
           id="path179"
           inkscape:path-effect="#path-effect186"
           inkscape:original-d="m 74,216 h 5 v 6"
           transform="rotate(180,48.5,230)" /></g></g><g
       inkscape:groupmode="layer"
       id="layer3"
       inkscape:label="grid"
       style="display:inline"
       sodipodi:insensitive="true"><circle
         cx="64.000031"
         cy="236"
         r="59.504131"
         id="circle2892"
         style="display:inline;opacity:0.1;vector-effect:none;fill:none;fill-opacity:1;stroke:#000000;stroke-width:0.99000001;stroke-linecap:butt;stroke-linejoin:miter;stroke-miterlimit:4;stroke-dasharray:0.99000001, 0.99000001;stroke-dashoffset:0;stroke-opacity:1;marker:none;marker-start:none;marker-mid:none;marker-end:none;paint-order:normal;enable-background:new" /><rect
         ry="7.9292889"
         rx="8.701004"
         y="180.49496"
         x="20.495007"
         height="111.01005"
         width="87.009987"
         id="rect2894"
         style="display:inline;opacity:0.1;vector-effect:none;fill:none;fill-opacity:1;stroke:#000000;stroke-width:0.99000001;stroke-linecap:butt;stroke-linejoin:miter;stroke-miterlimit:4;stroke-dasharray:0.99000001, 0.99000001;stroke-dashoffset:0;stroke-opacity:1;marker:none;marker-start:none;marker-mid:none;marker-end:none;paint-order:normal;enable-background:new" /><rect
         ry="7.9238095"
         rx="7.9238095"
         y="184.49524"
         x="12.495266"
         height="103.00952"
         width="103.00952"
         id="rect2896"
         style="display:inline;opacity:0.1;vector-effect:none;fill:none;fill-opacity:1;stroke:#000000;stroke-width:0.99000001;stroke-linecap:butt;stroke-linejoin:miter;stroke-miterlimit:4;stroke-dasharray:0.99000001, 0.99000001;stroke-dashoffset:0;stroke-opacity:1;marker:none;marker-start:none;marker-mid:none;marker-end:none;paint-order:normal;enable-background:new" /><rect
         ry="8.701005"
         rx="7.9292889"
         y="200.49496"
         x="8.4950066"
         height="87.010048"
         width="111.01004"
         id="rect2898"
         style="display:inline;opacity:0.1;vector-effect:none;fill:none;fill-opacity:1;stroke:#000000;stroke-width:0.99000001;stroke-linecap:butt;stroke-linejoin:miter;stroke-miterlimit:4;stroke-dasharray:0.99000001, 0.99000001;stroke-dashoffset:0;stroke-opacity:1;marker:none;marker-start:none;marker-mid:none;marker-end:none;paint-order:normal;enable-background:new" /><path
         inkscape:connector-curvature="0"
         id="path2900"
         d="M 2.6203015e-5,288.99999 H 128.00003"
         style="display:inline;fill:none;stroke:#62a0ea;stroke-width:2;stroke-linecap:butt;stroke-linejoin:miter;stroke-miterlimit:4;stroke-dasharray:none;stroke-opacity:1;enable-background:new" /></g></g></svg>
