<?xml version="1.0" encoding="UTF-8" standalone="no"?>
<!-- Created with Inkscape (http://www.inkscape.org/) -->

<svg
   inkscape:export-ydpi="96"
   inkscape:export-xdpi="96"
   inkscape:export-filename="Template.png"
   width="192"
   height="152"
   id="svg11300"
   sodipodi:version="0.32"
   inkscape:version="1.4.1 (1:1.4.1+202503302257+93de688d07)"
   sodipodi:docname="io.github.sepehr_rs.LibreSudoku.Source.svg"
   inkscape:output_extension="org.inkscape.output.svg.inkscape"
   version="1.0"
   style="display:inline;enable-background:new"
   viewBox="0 0 192 152"
   xml:space="preserve"
   xmlns:inkscape="http://www.inkscape.org/namespaces/inkscape"
   xmlns:sodipodi="http://sodipodi.sourceforge.net/DTD/sodipodi-0.dtd"
   xmlns="http://www.w3.org/2000/svg"
   xmlns:svg="http://www.w3.org/2000/svg"
   xmlns:rdf="http://www.w3.org/1999/02/22-rdf-syntax-ns#"
   xmlns:cc="http://creativecommons.org/ns#"
   xmlns:dc="http://purl.org/dc/elements/1.1/"><title
     id="title4162">Adwaita Icon Template</title><defs
     id="defs3"><linearGradient
       id="rect1_2_"
       gradientUnits="userSpaceOnUse"
       x1="1863.7131"
       y1="-1608.566"
       x2="2346.1748"
       y2="-1608.566"
       gradientTransform="matrix(0.2156,0,0,-0.3289,-389.748,-279.1336)">
	<stop
   offset="0"
   style="stop-color:#63402C"
   id="stop1" />
	<stop
   offset="5.000010e-02"
   style="stop-color:#B5835A"
   id="stop2" />
	<stop
   offset="9.980700e-02"
   style="stop-color:#865E3C"
   id="stop3" />
	<stop
   offset="0.9"
   style="stop-color:#865E3C"
   id="stop4" />
	<stop
   offset="0.95"
   style="stop-color:#B5835A"
   id="stop5" />
	<stop
   offset="1"
   style="stop-color:#63402C"
   id="stop6" />
</linearGradient><linearGradient
       id="rect2_2_"
       gradientUnits="userSpaceOnUse"
       x1="16.387199"
       y1="12.3872"
       x2="111.6128"
       y2="107.6128"
       gradientTransform="translate(0,172)">
	<stop
   offset="0.6536"
   style="stop-color:#CDAB8F"
   id="stop7" />
	<stop
   offset="1"
   style="stop-color:#A9876E"
   id="stop8" />
</linearGradient></defs><sodipodi:namedview
     stroke="#ef2929"
     fill="#f57900"
     id="base"
     pagecolor="#ffffff"
     bordercolor="#666666"
     borderopacity="0.25490196"
     inkscape:pageopacity="0.0"
     inkscape:pageshadow="2"
     inkscape:zoom="2.7387869"
     inkscape:cx="8.7630038"
     inkscape:cy="94.749978"
     inkscape:current-layer="layer9"
     showgrid="false"
     inkscape:grid-bbox="true"
     inkscape:document-units="px"
     inkscape:showpageshadow="false"
     inkscape:window-width="2486"
     inkscape:window-height="1011"
     inkscape:window-x="0"
     inkscape:window-y="0"
     width="400px"
     height="300px"
     inkscape:snap-nodes="true"
     inkscape:snap-bbox="true"
     objecttolerance="7"
     gridtolerance="12"
     guidetolerance="13"
     inkscape:window-maximized="1"
     inkscape:pagecheckerboard="false"
     showguides="false"
     inkscape:guide-bbox="true"
     inkscape:locked="false"
     inkscape:measure-start="0,0"
     inkscape:measure-end="0,0"
     inkscape:object-nodes="true"
     inkscape:bbox-nodes="true"
     inkscape:snap-global="true"
     inkscape:object-paths="true"
     inkscape:snap-intersection-paths="true"
     inkscape:snap-bbox-edge-midpoints="true"
     inkscape:snap-bbox-midpoints="true"
     showborder="true"
     inkscape:snap-center="true"
     inkscape:snap-object-midpoints="true"
     inkscape:snap-midpoints="true"
     inkscape:snap-smooth-nodes="true"
     inkscape:snap-text-baseline="true"
     borderlayer="true"
     inkscape:deskcolor="#d1d1d1"><inkscape:grid
       type="xygrid"
       id="grid5883"
       spacingx="2"
       spacingy="2"
       enabled="true"
       visible="false"
       empspacing="4"
       originx="8"
       originy="8"
       units="px" /><sodipodi:guide
       position="72,16"
       orientation="0,1"
       id="guide1073"
       inkscape:locked="false"
       inkscape:label=""
       inkscape:color="rgb(0,0,255)" /><sodipodi:guide
       position="20,72"
       orientation="1,0"
       id="guide1075"
       inkscape:locked="false"
       inkscape:label=""
       inkscape:color="rgb(0,0,255)" /><sodipodi:guide
       position="72,112"
       orientation="0,1"
       id="guide1099"
       inkscape:locked="false"
       inkscape:label=""
       inkscape:color="rgb(0,0,255)" /><sodipodi:guide
       position="72,136"
       orientation="0,1"
       id="guide993"
       inkscape:locked="false"
       inkscape:label=""
       inkscape:color="rgb(0,0,255)" /><sodipodi:guide
       position="112,72"
       orientation="1,0"
       id="guide995"
       inkscape:locked="false"
       inkscape:label=""
       inkscape:color="rgb(0,0,255)" /><sodipodi:guide
       position="8.0000001,72"
       orientation="1,0"
       id="guide867"
       inkscape:locked="false"
       inkscape:label=""
       inkscape:color="rgb(0,0,255)" /><sodipodi:guide
       position="128,72"
       orientation="1,0"
       id="guide869"
       inkscape:locked="false"
       inkscape:label=""
       inkscape:color="rgb(0,0,255)" /><sodipodi:guide
       position="72,124"
       orientation="0,1"
       id="guide871"
       inkscape:locked="false"
       inkscape:label=""
       inkscape:color="rgb(0,0,255)" /><inkscape:grid
       type="xygrid"
       id="grid873"
       spacingx="1"
       spacingy="1"
       empspacing="8"
       color="#000000"
       opacity="0.49019608"
       empcolor="#000000"
       empopacity="0.08627451"
       dotted="true"
       originx="8"
       originy="8"
       units="px"
       visible="false" /><sodipodi:guide
       position="32,72"
       orientation="1,0"
       id="guide877"
       inkscape:locked="false"
       inkscape:label=""
       inkscape:color="rgb(0,0,255)" /><sodipodi:guide
       position="124,72"
       orientation="1,0"
       id="guide879"
       inkscape:locked="false"
       inkscape:label=""
       inkscape:color="rgb(0,0,255)" /><sodipodi:guide
       position="72,128"
       orientation="0,1"
       id="guide881"
       inkscape:locked="false"
       inkscape:label=""
       inkscape:color="rgb(0,0,255)" /><sodipodi:guide
       position="72,20"
       orientation="0,1"
       id="guide883"
       inkscape:locked="false"
       inkscape:label=""
       inkscape:color="rgb(0,0,255)" /><sodipodi:guide
       position="16,72"
       orientation="1,0"
       id="guide885"
       inkscape:locked="false"
       inkscape:label=""
       inkscape:color="rgb(0,0,255)" /><sodipodi:guide
       position="136,72"
       orientation="1,0"
       id="guide887"
       inkscape:locked="false"
       inkscape:label=""
       inkscape:color="rgb(0,0,255)" /><sodipodi:guide
       position="72,8"
       orientation="0,1"
       id="guide897"
       inkscape:locked="false"
       inkscape:label=""
       inkscape:color="rgb(0,0,255)" /><sodipodi:guide
       position="72,32"
       orientation="0,1"
       id="guide899"
       inkscape:locked="false"
       inkscape:label=""
       inkscape:color="rgb(0,0,255)" /><sodipodi:guide
       position="264,264"
       orientation="-0.70710678,0.70710678"
       id="guide950"
       inkscape:locked="false"
       inkscape:label=""
       inkscape:color="rgb(0,0,255)" /><sodipodi:guide
       position="72,72"
       orientation="0.70710678,0.70710678"
       id="guide952"
       inkscape:locked="false"
       inkscape:label=""
       inkscape:color="rgb(0,0,255)" /></sodipodi:namedview><metadata
     id="metadata4"><rdf:RDF><cc:Work
         rdf:about=""><dc:format>image/svg+xml</dc:format><dc:type
           rdf:resource="http://purl.org/dc/dcmitype/StillImage" /><dc:creator><cc:Agent><dc:title>GNOME Design Team</dc:title></cc:Agent></dc:creator><dc:source /><dc:title>Adwaita Icon Template</dc:title><dc:subject><rdf:Bag /></dc:subject><dc:date /><dc:rights><cc:Agent><dc:title /></cc:Agent></dc:rights><dc:publisher><cc:Agent><dc:title /></cc:Agent></dc:publisher><dc:identifier /><dc:relation /><dc:language /><dc:coverage /><dc:description /><dc:contributor><cc:Agent><dc:title /></cc:Agent></dc:contributor><cc:license
           rdf:resource="http://creativecommons.org/licenses/by-sa/4.0/" /></cc:Work><cc:License
         rdf:about="http://creativecommons.org/licenses/by-sa/4.0/"><cc:permits
           rdf:resource="http://creativecommons.org/ns#Reproduction" /><cc:permits
           rdf:resource="http://creativecommons.org/ns#Distribution" /><cc:requires
           rdf:resource="http://creativecommons.org/ns#Notice" /><cc:requires
           rdf:resource="http://creativecommons.org/ns#Attribution" /><cc:permits
           rdf:resource="http://creativecommons.org/ns#DerivativeWorks" /><cc:requires
           rdf:resource="http://creativecommons.org/ns#ShareAlike" /></cc:License></rdf:RDF></metadata><g
     id="layer1"
     inkscape:label="App Icon"
     inkscape:groupmode="layer"
     style="display:inline"
     transform="translate(8,-156)"><g
       inkscape:groupmode="layer"
       id="layer4"
       inkscape:label="template"
       style="display:inline"
       sodipodi:insensitive="true"><rect
         inkscape:label="0"
         y="172"
         x="9.2651362e-08"
         height="128"
         width="128"
         id="hicolor"
         style="display:inline;overflow:visible;visibility:visible;fill:#f0f0f0;fill-opacity:0;fill-rule:nonzero;stroke:none;stroke-width:0.5;marker:none;enable-background:accumulate" /><rect
         style="display:inline;overflow:visible;visibility:visible;fill:#f0f0f0;fill-opacity:0;fill-rule:nonzero;stroke:none;stroke-width:0.5;marker:none;enable-background:accumulate"
         id="symbolic"
         width="16"
         height="16"
         x="160"
         y="172"
         inkscape:label="0" /></g><g
       inkscape:groupmode="layer"
       id="layer2"
       inkscape:label="baseplate"
       style="display:inline"
       sodipodi:insensitive="true"><g
         style="display:inline;fill:#000000;enable-background:new"
         transform="matrix(7.9911709,0,0,8.0036407,-167.7909,-4846.0776)"
         id="g12027"
         inkscape:export-xdpi="12"
         inkscape:export-ydpi="12" /><rect
         style="display:inline;overflow:visible;visibility:visible;fill:#f0f0f0;fill-opacity:1;fill-rule:nonzero;stroke:none;stroke-width:0.5;marker:none;enable-background:accumulate"
         id="128"
         width="128"
         height="128"
         x="9.2651362e-08"
         y="172"
         inkscape:label="0" /><g
         id="g883"
         style="fill:none;fill-opacity:0.25098;stroke:#a579b3;stroke-opacity:1"
         transform="translate(-24,24)" /><g
         id="g900"
         style="fill:none;fill-opacity:0.25098;stroke:#a579b3;stroke-opacity:1"
         transform="translate(-24,24)" /><rect
         inkscape:label=""
         y="172"
         x="160"
         height="16"
         width="16"
         id="16"
         style="display:inline;overflow:visible;visibility:visible;fill:#f0f0f0;fill-opacity:1;fill-rule:nonzero;stroke:none;stroke-width:0.5;marker:none;enable-background:accumulate" /><text
         xml:space="preserve"
         style="font-style:normal;font-variant:normal;font-weight:bold;font-stretch:normal;font-size:4px;line-height:125%;font-family:Cantarell;-inkscape-font-specification:'Cantarell, Bold';text-align:start;writing-mode:lr-tb;text-anchor:start;display:inline;fill:#000000;fill-opacity:1;stroke:none;stroke-width:0.332649;enable-background:new"
         x="0"
         y="167"
         id="text863"
         inkscape:label="icon-name"><tspan
           style="font-size:4px;stroke-width:0.332649"
           sodipodi:role="line"
           id="tspan861"
           x="0"
           y="167">Hicolor</tspan></text><text
         inkscape:label="icon-name"
         id="text867"
         y="167"
         x="160"
         style="font-style:normal;font-variant:normal;font-weight:bold;font-stretch:normal;font-size:4px;line-height:125%;font-family:Cantarell;-inkscape-font-specification:'Cantarell, Bold';text-align:start;writing-mode:lr-tb;text-anchor:start;display:inline;fill:#000000;fill-opacity:1;stroke:none;stroke-width:0.332649;enable-background:new"
         xml:space="preserve"><tspan
           y="167"
           x="160"
           id="tspan865"
           sodipodi:role="line"
           style="font-size:4px;stroke-width:0.332649">Symbolic</tspan></text></g><g
       inkscape:groupmode="layer"
       id="layer9"
       inkscape:label="icons"
       style="display:inline"><path
         id="rect1_1_"
         class="st0"
         d="m 20,212 h 88 c 4.4,0 8,3.6 8,8 v 60 c 0,4.4 -3.6,8 -8,8 H 20 c -4.4,0 -8,-3.6 -8,-8 v -60 c 0,-4.4 3.6,-8 8,-8 z"
         style="fill:url(#rect1_2_)" /><path
         id="rect2_1_"
         class="st1"
         d="m 20.3,184 h 87.4 c 4.6,0 8.3,3.6 8.3,8 v 80 c 0,4.4 -3.7,8 -8.3,8 H 20.3 c -4.6,0 -8.3,-3.6 -8.3,-8 v -80 c 0,-4.4 3.7,-8 8.3,-8 z"
         style="fill:url(#rect2_2_)" /><path
         class="st4"
         d="m 29.8,190 h 68.3 c 5,0 9,4 9,9 v 66 c 0,5 -4,9 -9,9 H 29.8 c -5,0 -9,-4 -9,-9 v -66 c 0.1,-5 4.1,-9 9,-9 z"
         id="path16"
         style="opacity:0.25;fill:#ffffff" /><g
         class="st5"
         id="g22"
         style="opacity:0.4"
         transform="translate(0,172)">
	<g
   id="g21">
		<g
   id="g18">
			<path
   class="st6"
   d="m 53.5,25 v 72 c 0,0.8 -0.7,1.5 -1.5,1.5 v 0 c -0.8,0 -1.5,-0.7 -1.5,-1.5 V 25 c 0,-0.8 0.7,-1.5 1.5,-1.5 v 0 c 0.8,0 1.5,0.7 1.5,1.5 z"
   id="path17"
   style="fill:#63452c" />
			<path
   class="st6"
   d="m 79.5,25 v 72 c 0,0.8 -0.7,1.5 -1.5,1.5 v 0 c -0.8,0 -1.5,-0.7 -1.5,-1.5 V 25 c 0,-0.8 0.7,-1.5 1.5,-1.5 v 0 c 0.8,0 1.5,0.7 1.5,1.5 z"
   id="path18"
   style="fill:#63452c" />
		</g>
		<g
   id="g20">
			<path
   class="st6"
   d="m 29,72.5 h 72 c 0.8,0 1.5,0.7 1.5,1.5 v 0 c 0,0.8 -0.7,1.5 -1.5,1.5 H 29 c -0.8,0 -1.5,-0.7 -1.5,-1.5 v 0 c 0,-0.8 0.7,-1.5 1.5,-1.5 z"
   id="path19"
   style="fill:#63452c" />
			<path
   class="st6"
   d="m 29,46.5 h 72 c 0.8,0 1.5,0.7 1.5,1.5 v 0 c 0,0.8 -0.7,1.5 -1.5,1.5 H 29 c -0.8,0 -1.5,-0.7 -1.5,-1.5 v 0 c 0,-0.8 0.7,-1.5 1.5,-1.5 z"
   id="path20"
   style="fill:#63452c" />
		</g>
	</g>
</g><g
         id="g27"
         transform="translate(0,172)">
	<g
   id="g26">
		<g
   id="g23">
			<path
   class="st6"
   d="m 52.5,24 v 72 c 0,0.8 -0.7,1.5 -1.5,1.5 v 0 c -0.8,0 -1.5,-0.7 -1.5,-1.5 V 24 c 0,-0.8 0.7,-1.5 1.5,-1.5 v 0 c 0.8,0 1.5,0.7 1.5,1.5 z"
   id="path22"
   style="fill:#63452c" />
			<path
   class="st6"
   d="m 78.5,24 v 72 c 0,0.8 -0.7,1.5 -1.5,1.5 v 0 c -0.8,0 -1.5,-0.7 -1.5,-1.5 V 24 c 0,-0.8 0.7,-1.5 1.5,-1.5 v 0 c 0.8,0 1.5,0.7 1.5,1.5 z"
   id="path23"
   style="fill:#63452c" />
		</g>
		<g
   id="g25">
			<path
   class="st6"
   d="m 28,71.5 h 72 c 0.8,0 1.5,0.7 1.5,1.5 v 0 c 0,0.8 -0.7,1.5 -1.5,1.5 H 28 c -0.8,0 -1.5,-0.7 -1.5,-1.5 v 0 c 0,-0.8 0.7,-1.5 1.5,-1.5 z"
   id="path24"
   style="fill:#63452c" />
			<path
   class="st6"
   d="m 28,45.5 h 72 c 0.8,0 1.5,0.7 1.5,1.5 v 0 c 0,0.8 -0.7,1.5 -1.5,1.5 H 28 c -0.8,0 -1.5,-0.7 -1.5,-1.5 v 0 c 0,-0.8 0.7,-1.5 1.5,-1.5 z"
   id="path25"
   style="fill:#63452c" />
		</g>
	</g>
</g><g
         class="st25"
         id="g69"
         style="opacity:0.1"
         transform="translate(0,172)">
	<path
   class="st26"
   d="m 60.5,54.1 h 8.4 V 56 L 64.4,67.9 H 61.7 L 66,56.5 h -5.5 z"
   id="path64"
   style="fill:#020202" />
	<path
   class="st26"
   d="m 63.3,39.7 h 5.6 v 2.4 h -8.4 v -2.4 l 1.4,-1.6 c 1.7,-1.9 2.7,-3 3.1,-3.5 0.4,-0.5 0.8,-1 1,-1.4 0.2,-0.4 0.3,-0.8 0.3,-1.2 0,-0.6 -0.2,-1.1 -0.5,-1.4 -0.4,-0.3 -0.9,-0.5 -1.5,-0.5 -0.5,0 -1,0.1 -1.6,0.3 -0.6,0.2 -1.2,0.5 -1.8,0.9 v -2.6 c 0.6,-0.3 1.2,-0.4 1.9,-0.6 0.6,-0.1 1.2,-0.2 1.8,-0.2 1.4,0 2.5,0.3 3.3,1 0.8,0.7 1.2,1.6 1.2,2.8 0,0.6 -0.1,1.1 -0.3,1.6 -0.2,0.5 -0.5,1 -0.9,1.6 -0.3,0.4 -1.2,1.4 -2.6,2.9 -1,0.8 -1.6,1.5 -2,1.9 z"
   id="path65"
   style="fill:#020202" />
	<path
   class="st26"
   d="m 86.8,27.8 h 7.8 v 2 l -4.2,12.5 h -2.5 l 4,-12 h -5.1 z"
   id="path66"
   style="fill:#020202" />
	<path
   class="st26"
   d="M 39.3,57.1 36,62.6 h 3.3 z M 39.1,54 h 2.7 v 8.6 h 1.5 V 65 h -1.5 v 3 H 39.3 V 65 H 34 v -2.7 z"
   id="path67"
   style="fill:#020202" />
	<path
   class="st26"
   d="m 38.6,87.7 c -0.6,0 -1.1,0.2 -1.4,0.6 -0.4,0.4 -0.5,0.9 -0.5,1.5 0,0.6 0.2,1.2 0.5,1.6 0.4,0.4 0.8,0.6 1.4,0.6 0.6,0 1.1,-0.2 1.4,-0.6 0.4,-0.4 0.6,-0.9 0.6,-1.6 0,-0.6 -0.2,-1.1 -0.5,-1.5 -0.4,-0.4 -0.9,-0.6 -1.5,-0.6 z m -1.9,-1.2 c -0.7,-0.2 -1.2,-0.6 -1.5,-1.1 -0.3,-0.5 -0.5,-1.2 -0.5,-1.9 0,-1.2 0.4,-2.1 1.1,-2.7 0.7,-0.7 1.7,-1 2.9,-1 1.2,0 2.2,0.3 2.9,1 0.7,0.7 1.1,1.6 1.1,2.7 0,0.7 -0.2,1.4 -0.5,1.9 -0.3,0.5 -0.8,0.9 -1.5,1.2 0.7,0.2 1.3,0.7 1.7,1.3 0.4,0.6 0.6,1.3 0.6,2.2 0,1.3 -0.4,2.4 -1.1,3.1 -0.7,0.7 -1.8,1.1 -3.2,1.1 -1.4,0 -2.4,-0.4 -3.2,-1.1 -0.8,-0.7 -1.1,-1.8 -1.1,-3.1 0,-0.9 0.2,-1.6 0.6,-2.2 0.4,-0.7 0.9,-1.2 1.7,-1.4 z M 37,83.7 c 0,0.6 0.1,1 0.4,1.3 0.3,0.3 0.7,0.5 1.2,0.5 0.5,0 0.9,-0.2 1.2,-0.5 0.3,-0.3 0.5,-0.8 0.5,-1.3 0,-0.5 -0.2,-1 -0.5,-1.3 -0.3,-0.3 -0.7,-0.5 -1.2,-0.5 -0.5,0 -0.9,0.2 -1.2,0.5 -0.3,0.3 -0.4,0.8 -0.4,1.3 z"
   id="path68"
   style="fill:#020202" />
	<path
   class="st26"
   d="m 90.1,87.7 h -1.4 v -2.4 h 1.4 c 0.7,0 1.2,-0.1 1.5,-0.4 0.4,-0.3 0.5,-0.7 0.5,-1.2 0,-0.5 -0.2,-0.9 -0.5,-1.2 -0.4,-0.3 -0.9,-0.4 -1.5,-0.4 -0.5,0 -1,0.1 -1.6,0.2 -0.6,0.1 -1.2,0.3 -1.8,0.6 v -2.5 c 0.6,-0.2 1.2,-0.3 1.8,-0.4 0.6,-0.1 1.2,-0.2 1.7,-0.2 1.4,0 2.5,0.3 3.3,1 0.8,0.6 1.2,1.5 1.2,2.6 0,0.8 -0.2,1.5 -0.7,2 -0.4,0.5 -1.1,0.9 -1.9,1 0.9,0.2 1.7,0.6 2.2,1.2 0.4,0.6 0.7,1.4 0.7,2.4 0,1.4 -0.4,2.4 -1.2,3.1 -0.8,0.7 -2,1.1 -3.6,1.1 -0.7,0 -1.3,-0.1 -2,-0.2 -0.6,-0.1 -1.3,-0.3 -1.9,-0.5 v -2.6 c 0.6,0.3 1.2,0.5 1.8,0.7 0.6,0.2 1.3,0.2 2,0.2 0.7,0 1.3,-0.2 1.7,-0.5 0.4,-0.3 0.6,-0.8 0.6,-1.4 0,-0.7 -0.2,-1.3 -0.6,-1.7 -0.4,-0.3 -1,-0.5 -1.7,-0.5 z"
   id="path69"
   style="fill:#020202" />
</g><g
         id="g71"
         transform="translate(0,172)">
	<path
   class="st27"
   d="m 59.8,53 h 8.4 v 1.9 L 63.7,66.8 H 61 l 4.3,-11.4 h -5.5 z"
   id="path70"
   style="fill:#e01b24" />
	<path
   class="st27"
   d="m 86.1,26.8 h 7.8 v 2 l -4.2,12.5 h -2.5 l 4,-12 h -5.1 z"
   id="path71"
   style="fill:#e01b24" />
</g><g
         id="g75"
         transform="translate(0,172)">
	<path
   class="st28"
   d="m 62.6,38.7 h 5.6 v 2.4 h -8.4 v -2.4 l 1.4,-1.6 c 1.7,-1.9 2.7,-3 3.1,-3.5 0.4,-0.5 0.8,-1 1,-1.4 0.2,-0.4 0.3,-0.8 0.3,-1.2 0,-0.6 -0.2,-1.1 -0.5,-1.4 -0.4,-0.3 -0.9,-0.5 -1.5,-0.5 -0.5,0 -1,0.1 -1.6,0.3 -0.6,0.2 -1.2,0.5 -1.8,0.9 v -2.6 c 0.6,-0.3 1.2,-0.4 1.9,-0.6 0.6,-0.1 1.2,-0.2 1.8,-0.2 1.4,0 2.5,0.3 3.3,1 0.8,0.7 1.2,1.6 1.2,2.8 0,0.6 -0.1,1.1 -0.3,1.6 -0.2,0.5 -0.5,1 -0.9,1.6 -0.3,0.4 -1.2,1.4 -2.6,2.9 -0.9,0.7 -1.5,1.4 -2,1.9 z"
   id="path72"
   style="fill:#442e1f" />
	<path
   class="st28"
   d="m 38.6,56 -3.3,5.5 h 3.3 z m -0.2,-3 h 2.7 v 8.6 h 1.5 V 64 h -1.5 v 3 h -2.5 v -3 h -5.3 v -2.7 z"
   id="path73"
   style="fill:#442e1f" />
	<path
   class="st28"
   d="m 38,86.6 c -0.6,0 -1.1,0.2 -1.4,0.6 -0.4,0.4 -0.5,0.9 -0.5,1.5 0,0.6 0.2,1.2 0.5,1.6 0.4,0.4 0.8,0.6 1.4,0.6 0.6,0 1.1,-0.2 1.4,-0.6 C 39.8,89.9 40,89.4 40,88.7 40,88.1 39.8,87.6 39.5,87.2 39,86.8 38.6,86.6 38,86.6 Z M 36,85.4 C 35.3,85.2 34.8,84.8 34.5,84.3 34.2,83.8 34,83.1 34,82.4 c 0,-1.2 0.4,-2.1 1.1,-2.7 0.7,-0.7 1.7,-1 2.9,-1 1.2,0 2.2,0.3 2.9,1 0.7,0.7 1.1,1.6 1.1,2.7 0,0.7 -0.2,1.4 -0.5,1.9 -0.3,0.5 -0.8,0.9 -1.5,1.2 0.7,0.2 1.3,0.7 1.7,1.3 0.4,0.6 0.6,1.3 0.6,2.2 0,1.3 -0.4,2.4 -1.1,3.1 -0.7,0.7 -1.8,1.1 -3.2,1.1 -1.4,0 -2.4,-0.4 -3.2,-1.1 -0.8,-0.7 -1.1,-1.8 -1.1,-3.1 0,-0.9 0.2,-1.6 0.6,-2.2 0.4,-0.7 1,-1.1 1.7,-1.4 z m 0.3,-2.8 c 0,0.6 0.1,1 0.4,1.3 0.3,0.3 0.7,0.5 1.2,0.5 0.5,0 0.9,-0.2 1.2,-0.5 0.3,-0.3 0.5,-0.8 0.5,-1.3 0,-0.5 -0.2,-1 -0.5,-1.3 -0.3,-0.3 -0.7,-0.5 -1.2,-0.5 -0.5,0 -0.9,0.2 -1.2,0.5 -0.2,0.4 -0.4,0.8 -0.4,1.3 z"
   id="path74"
   style="fill:#442e1f" />
	<path
   class="st28"
   d="M 89.4,86.6 H 88 v -2.4 h 1.4 c 0.7,0 1.2,-0.1 1.5,-0.4 0.4,-0.3 0.5,-0.7 0.5,-1.2 0,-0.5 -0.2,-0.9 -0.5,-1.2 C 90.5,81.1 90,81 89.4,81 c -0.5,0 -1,0.1 -1.6,0.2 -0.6,0.1 -1.2,0.3 -1.8,0.6 v -2.5 c 0.6,-0.2 1.2,-0.3 1.8,-0.4 0.6,-0.1 1.2,-0.2 1.7,-0.2 1.4,0 2.5,0.3 3.3,1 0.8,0.6 1.2,1.5 1.2,2.6 0,0.8 -0.2,1.5 -0.7,2 -0.4,0.5 -1.1,0.9 -1.9,1 0.9,0.2 1.7,0.6 2.2,1.2 0.5,0.6 0.7,1.4 0.7,2.4 0,1.4 -0.4,2.4 -1.2,3.1 -0.8,0.7 -2,1.1 -3.6,1.1 -0.7,0 -1.3,-0.1 -2,-0.2 -0.6,-0.1 -1.3,-0.3 -1.9,-0.5 v -2.6 c 0.6,0.3 1.2,0.5 1.8,0.7 0.6,0.2 1.3,0.2 2,0.2 0.7,0 1.3,-0.2 1.7,-0.5 0.4,-0.3 0.6,-0.8 0.6,-1.4 0,-0.7 -0.2,-1.3 -0.6,-1.7 -0.3,-0.3 -0.9,-0.5 -1.7,-0.5 z"
   id="path75"
   style="fill:#442e1f" />
</g><path
         class="cls-1"
         d="m 167.19,178.67 h 1.61 V 179 l -0.86,2.32 h -0.51 l 0.82,-2.19 h -1.06 z"
         id="path1"
         style="stroke:#000000;stroke-width:0.5px;stroke-miterlimit:10" /><rect
         x="160.5"
         y="176.8"
         width="15"
         height="1.2"
         rx="0.60000002"
         id="rect1" /><rect
         x="160.5"
         y="182"
         width="15"
         height="1.2"
         rx="0.60000002"
         id="rect2" /><rect
         x="172.5"
         y="-171.19"
         width="15"
         height="1.2"
         rx="0.60000002"
         transform="rotate(90)"
         id="rect3" /><rect
         x="172.5"
         y="-165.99001"
         width="15"
         height="1.2"
         rx="0.60000002"
         transform="rotate(90)"
         id="rect4" /></g><g
       inkscape:groupmode="layer"
       id="layer3"
       inkscape:label="grid"
       style="display:inline"
       sodipodi:insensitive="true"><circle
         cx="64.000031"
         cy="236"
         r="59.504131"
         id="circle2892"
         style="display:inline;opacity:0.1;vector-effect:none;fill:none;fill-opacity:1;stroke:#000000;stroke-width:0.99000001;stroke-linecap:butt;stroke-linejoin:miter;stroke-miterlimit:4;stroke-dasharray:0.99000001, 0.99000001;stroke-dashoffset:0;stroke-opacity:1;marker:none;marker-start:none;marker-mid:none;marker-end:none;paint-order:normal;enable-background:new" /><rect
         ry="7.9292889"
         rx="8.701004"
         y="180.49496"
         x="20.495007"
         height="111.01005"
         width="87.009987"
         id="rect2894"
         style="display:inline;opacity:0.1;vector-effect:none;fill:none;fill-opacity:1;stroke:#000000;stroke-width:0.99000001;stroke-linecap:butt;stroke-linejoin:miter;stroke-miterlimit:4;stroke-dasharray:0.99000001, 0.99000001;stroke-dashoffset:0;stroke-opacity:1;marker:none;marker-start:none;marker-mid:none;marker-end:none;paint-order:normal;enable-background:new" /><rect
         ry="7.9238095"
         rx="7.9238095"
         y="184.49524"
         x="12.495266"
         height="103.00952"
         width="103.00952"
         id="rect2896"
         style="display:inline;opacity:0.1;vector-effect:none;fill:none;fill-opacity:1;stroke:#000000;stroke-width:0.99000001;stroke-linecap:butt;stroke-linejoin:miter;stroke-miterlimit:4;stroke-dasharray:0.99000001, 0.99000001;stroke-dashoffset:0;stroke-opacity:1;marker:none;marker-start:none;marker-mid:none;marker-end:none;paint-order:normal;enable-background:new" /><rect
         ry="8.701005"
         rx="7.9292889"
         y="200.49496"
         x="8.4950066"
         height="87.010048"
         width="111.01004"
         id="rect2898"
         style="display:inline;opacity:0.1;vector-effect:none;fill:none;fill-opacity:1;stroke:#000000;stroke-width:0.99000001;stroke-linecap:butt;stroke-linejoin:miter;stroke-miterlimit:4;stroke-dasharray:0.99000001, 0.99000001;stroke-dashoffset:0;stroke-opacity:1;marker:none;marker-start:none;marker-mid:none;marker-end:none;paint-order:normal;enable-background:new" /><path
         inkscape:connector-curvature="0"
         id="path2900"
         d="M 2.6203015e-5,288.99999 H 128.00003"
         style="display:inline;fill:none;stroke:#62a0ea;stroke-width:2;stroke-linecap:butt;stroke-linejoin:miter;stroke-miterlimit:4;stroke-dasharray:none;stroke-opacity:1;enable-background:new" /></g></g></svg>
