<svg width="400" height="400" viewBox="0 0 400 400" fill="none" xmlns="http://www.w3.org/2000/svg">
<path d="M162.028 345.315L241.596 265.748C244.631 262.712 248.749 261.007 253.042 261.007C257.335 261.007 261.452 262.712 264.488 265.748L306.054 307.313C307.557 308.817 309.342 310.009 311.306 310.823C313.27 311.636 315.375 312.055 317.501 312.055C319.627 312.055 321.732 311.636 323.696 310.823C325.66 310.009 327.444 308.817 328.948 307.313L388.427 247.834C391.463 244.798 393.168 240.681 393.168 236.387C393.168 232.094 391.463 227.977 388.427 224.941L346.862 183.376C343.826 180.34 342.121 176.222 342.121 171.929C342.121 167.636 343.826 163.519 346.862 160.483L370.229 137.114C373.265 134.079 374.97 129.961 374.97 125.668C374.97 121.375 373.265 117.257 370.229 114.222L310.749 54.7411C307.714 51.7054 303.596 50 299.303 50C295.01 50 290.892 51.7054 287.857 54.7411L162.172 180.426C159.137 183.462 155.019 185.167 150.726 185.167C146.433 185.167 142.316 183.462 139.28 180.426L93.1188 134.266C90.083 131.231 85.9656 129.525 81.6724 129.525C77.3792 129.525 73.2618 131.231 70.226 134.266L10.7455 193.746C7.70874 196.783 6.0019 200.901 6 205.196C5.9981 209.49 7.70131 213.61 10.7354 216.65L139.146 345.305C140.647 346.809 142.43 348.003 144.393 348.817C146.356 349.632 148.46 350.052 150.585 350.053C152.71 350.054 154.814 349.636 156.778 348.823C158.741 348.011 160.525 346.819 162.028 345.317V345.315Z" fill="url(#paint0_linear_43_768)"/>
<rect x="80.1807" y="73.9595" width="252.936" height="252.936" rx="20" fill="#F2F2F2"/>
<rect x="101.427" y="95.2061" width="20.2349" height="20.2349" rx="5" fill="#DEDDDA"/>
<rect x="124.697" y="95.2061" width="20.2349" height="20.2349" rx="5" fill="#DEDDDA"/>
<rect x="147.967" y="95.2061" width="20.2349" height="20.2349" rx="5" fill="#DEDDDA"/>
<rect x="101.427" y="118.476" width="20.2349" height="20.2349" rx="5" fill="#DEDDDA"/>
<rect x="124.697" y="118.476" width="20.2349" height="20.2349" rx="5" fill="#DEDDDA"/>
<rect x="147.967" y="118.476" width="20.2349" height="20.2349" rx="5" fill="#DEDDDA"/>
<rect x="101.427" y="141.746" width="20.2349" height="20.2349" rx="5" fill="#DEDDDA"/>
<rect x="124.697" y="141.746" width="20.2349" height="20.2349" rx="5" fill="#DEDDDA"/>
<rect x="147.967" y="141.746" width="20.2349" height="20.2349" rx="5" fill="#DEDDDA"/>
<rect x="101.427" y="167.04" width="20.2349" height="20.2349" rx="5" fill="#DEDDDA"/>
<rect x="124.697" y="167.04" width="20.2349" height="20.2349" rx="5" fill="#DEDDDA"/>
<rect x="147.967" y="167.04" width="20.2349" height="20.2349" rx="5" fill="#DEDDDA"/>
<rect x="101.427" y="190.31" width="20.2349" height="20.2349" rx="5" fill="#DEDDDA"/>
<rect x="124.697" y="190.31" width="20.2349" height="20.2349" rx="5" fill="#DEDDDA"/>
<rect x="147.967" y="190.31" width="20.2349" height="20.2349" rx="5" fill="#DEDDDA"/>
<rect x="101.427" y="213.58" width="20.2349" height="20.2349" rx="5" fill="#DEDDDA"/>
<rect x="124.697" y="213.58" width="20.2349" height="20.2349" rx="5" fill="#DEDDDA"/>
<rect x="147.967" y="213.58" width="20.2349" height="20.2349" rx="5" fill="#DEDDDA"/>
<rect x="101.427" y="238.874" width="20.2349" height="20.2349" rx="5" fill="#DEDDDA"/>
<rect x="124.697" y="238.874" width="20.2349" height="20.2349" rx="5" fill="#DEDDDA"/>
<rect x="147.967" y="238.874" width="20.2349" height="20.2349" rx="5" fill="#DEDDDA"/>
<rect x="101.427" y="262.144" width="20.2349" height="20.2349" rx="5" fill="#DEDDDA"/>
<rect x="124.697" y="262.144" width="20.2349" height="20.2349" rx="5" fill="#DEDDDA"/>
<rect x="147.967" y="262.144" width="20.2349" height="20.2349" rx="5" fill="#DEDDDA"/>
<rect x="101.427" y="285.414" width="20.2349" height="20.2349" rx="5" fill="#DEDDDA"/>
<rect x="124.697" y="285.414" width="20.2349" height="20.2349" rx="5" fill="#DEDDDA"/>
<rect x="147.967" y="285.414" width="20.2349" height="20.2349" rx="5" fill="#DEDDDA"/>
<rect x="173.261" y="95.2061" width="20.2349" height="20.2349" rx="5" fill="#DEDDDA"/>
<rect x="196.531" y="95.2061" width="20.2349" height="20.2349" rx="5" fill="#DEDDDA"/>
<rect x="219.801" y="95.2061" width="20.2349" height="20.2349" rx="5" fill="#DEDDDA"/>
<rect x="173.261" y="118.476" width="20.2349" height="20.2349" rx="5" fill="#DEDDDA"/>
<rect x="196.531" y="118.476" width="20.2349" height="20.2349" rx="5" fill="#DEDDDA"/>
<rect x="219.801" y="118.476" width="20.2349" height="20.2349" rx="5" fill="#DEDDDA"/>
<rect x="173.261" y="141.746" width="20.2349" height="20.2349" rx="5" fill="#DEDDDA"/>
<rect x="196.531" y="141.746" width="20.2349" height="20.2349" rx="5" fill="#DEDDDA"/>
<rect x="219.801" y="141.746" width="20.2349" height="20.2349" rx="5" fill="#DEDDDA"/>
<rect x="173.261" y="167.04" width="20.2349" height="20.2349" rx="5" fill="#DEDDDA"/>
<rect x="196.531" y="167.04" width="20.2349" height="20.2349" rx="5" fill="#DEDDDA"/>
<rect x="219.801" y="167.04" width="20.2349" height="20.2349" rx="5" fill="#DEDDDA"/>
<rect x="173.261" y="190.31" width="20.2349" height="20.2349" rx="5" fill="#DEDDDA"/>
<rect x="196.531" y="190.31" width="20.2349" height="20.2349" rx="5" fill="#DEDDDA"/>
<rect x="219.801" y="190.31" width="20.2349" height="20.2349" rx="5" fill="#DEDDDA"/>
<rect x="173.261" y="213.58" width="20.2349" height="20.2349" rx="5" fill="#DEDDDA"/>
<rect x="196.531" y="213.58" width="20.2349" height="20.2349" rx="5" fill="#DEDDDA"/>
<rect x="219.801" y="213.58" width="20.2349" height="20.2349" rx="5" fill="#DEDDDA"/>
<rect x="173.261" y="238.874" width="20.2349" height="20.2349" rx="5" fill="#DEDDDA"/>
<rect x="196.531" y="238.874" width="20.2349" height="20.2349" rx="5" fill="#DEDDDA"/>
<rect x="219.801" y="238.874" width="20.2349" height="20.2349" rx="5" fill="#DEDDDA"/>
<rect x="173.261" y="262.144" width="20.2349" height="20.2349" rx="5" fill="#DEDDDA"/>
<rect x="196.531" y="262.144" width="20.2349" height="20.2349" rx="5" fill="#DEDDDA"/>
<rect x="219.801" y="262.144" width="20.2349" height="20.2349" rx="5" fill="#DEDDDA"/>
<rect x="173.261" y="285.414" width="20.2349" height="20.2349" rx="5" fill="#DEDDDA"/>
<rect x="196.531" y="285.414" width="20.2349" height="20.2349" rx="5" fill="#DEDDDA"/>
<rect x="219.801" y="285.414" width="20.2349" height="20.2349" rx="5" fill="#DEDDDA"/>
<rect x="245.095" y="95.2061" width="20.2349" height="20.2349" rx="5" fill="#DEDDDA"/>
<rect x="268.365" y="95.2061" width="20.2349" height="20.2349" rx="5" fill="#DEDDDA"/>
<rect x="291.635" y="95.2061" width="20.2349" height="20.2349" rx="5" fill="#DEDDDA"/>
<rect x="245.095" y="118.476" width="20.2349" height="20.2349" rx="5" fill="#DEDDDA"/>
<rect x="268.365" y="118.476" width="20.2349" height="20.2349" rx="5" fill="#DEDDDA"/>
<rect x="291.635" y="118.476" width="20.2349" height="20.2349" rx="5" fill="#DEDDDA"/>
<rect x="245.095" y="141.746" width="20.2349" height="20.2349" rx="5" fill="#DEDDDA"/>
<rect x="268.365" y="141.746" width="20.2349" height="20.2349" rx="5" fill="#DEDDDA"/>
<rect x="291.635" y="141.746" width="20.2349" height="20.2349" rx="5" fill="#DEDDDA"/>
<rect x="245.095" y="167.04" width="20.2349" height="20.2349" rx="5" fill="#DEDDDA"/>
<rect x="268.365" y="167.04" width="20.2349" height="20.2349" rx="5" fill="#DEDDDA"/>
<rect x="291.635" y="167.04" width="20.2349" height="20.2349" rx="5" fill="#DEDDDA"/>
<rect x="245.595" y="190.81" width="19.2349" height="19.2349" rx="4.5" fill="#C2C563" stroke="#92AC79"/>
<rect x="268.365" y="190.31" width="20.2349" height="20.2349" rx="5" fill="#DEDDDA"/>
<rect x="291.635" y="190.31" width="20.2349" height="20.2349" rx="5" fill="#DEDDDA"/>
<rect x="245.095" y="213.58" width="20.2349" height="20.2349" rx="5" fill="#DEDDDA"/>
<rect x="268.365" y="213.58" width="20.2349" height="20.2349" rx="5" fill="#DEDDDA"/>
<rect x="291.635" y="213.58" width="20.2349" height="20.2349" rx="5" fill="#DEDDDA"/>
<rect x="245.095" y="238.874" width="20.2349" height="20.2349" rx="5" fill="#DEDDDA"/>
<rect x="268.365" y="238.874" width="20.2349" height="20.2349" rx="5" fill="#DEDDDA"/>
<rect x="291.635" y="238.874" width="20.2349" height="20.2349" rx="5" fill="#DEDDDA"/>
<rect x="245.095" y="262.144" width="20.2349" height="20.2349" rx="5" fill="#DEDDDA"/>
<rect x="268.365" y="262.144" width="20.2349" height="20.2349" rx="5" fill="#DEDDDA"/>
<rect x="291.635" y="262.144" width="20.2349" height="20.2349" rx="5" fill="#DEDDDA"/>
<rect x="245.095" y="285.414" width="20.2349" height="20.2349" rx="5" fill="#DEDDDA"/>
<rect x="268.365" y="285.414" width="20.2349" height="20.2349" rx="5" fill="#DEDDDA"/>
<rect x="291.635" y="285.414" width="20.2349" height="20.2349" rx="5" fill="#DEDDDA"/>
<path d="M291.319 229.866L299.209 230.993L307.095 232.119L381.126 306.151L384.148 309.171L387.151 312.174C387.745 312.765 388.216 313.468 388.537 314.242C388.859 315.015 389.024 315.845 389.024 316.683C389.024 317.521 388.859 318.35 388.537 319.124C388.216 319.898 387.745 320.6 387.151 321.191L382.643 325.696C382.053 326.29 381.35 326.761 380.577 327.082C379.804 327.404 378.974 327.569 378.137 327.569C377.299 327.569 376.47 327.404 375.697 327.082C374.923 326.761 374.221 326.29 373.63 325.696L368.401 320.469L366.118 318.185L293.574 245.641L292.449 237.754L291.319 229.866Z" fill="black" fill-opacity="0.15861"/>
<path d="M293.108 228.896L299.869 222.135L307.756 223.261L294.234 236.783L293.108 228.896Z" fill="url(#paint1_linear_43_768)"/>
<path d="M382.584 298.089L387.813 303.318C390.31 305.815 390.31 309.835 387.813 312.332L383.306 316.839C380.809 319.336 376.788 319.336 374.291 316.839L369.063 311.611C366.566 309.114 366.566 305.093 369.063 302.596L373.57 298.089C376.067 295.592 380.087 295.592 382.584 298.089Z" fill="url(#paint2_linear_43_768)"/>
<path d="M291.981 221.008L299.869 222.135L293.108 228.896L291.981 221.008Z" fill="#424048"/>
<path d="M296.036 234.984L305.952 225.068L379.963 299.079L370.047 308.995L296.036 234.984Z" fill="#E01B24"/>
<path d="M303.248 227.773L307.755 223.265L381.785 297.295L377.259 301.784L303.248 227.773Z" fill="#F66151"/>
<path d="M298.74 232.28L294.233 236.787L368.263 310.817L372.751 306.291L298.74 232.28Z" fill="#A51D2D"/>
<path d="M380.3 295.805L384.807 300.312L371.285 313.834L366.778 309.327L380.3 295.805Z" fill="url(#paint3_linear_43_768)"/>
<path d="M146.552 89.678C160.754 96.9141 171.499 109.495 176.424 124.654C181.35 139.813 180.052 156.307 172.815 170.509C165.579 184.71 152.998 195.456 137.839 200.381C122.681 205.307 106.186 204.008 91.9847 196.772C79.5922 190.456 69.7745 180.036 64.2057 167.29C58.6369 154.544 57.6618 140.261 61.4466 126.877L47.8636 119.956C44.6052 118.295 43.316 114.334 44.9775 111.073C45.3701 110.3 45.9116 109.611 46.5708 109.047C47.2301 108.483 47.9942 108.055 48.8194 107.787C49.6445 107.519 50.5144 107.417 51.3792 107.486C52.244 107.555 53.0866 107.794 53.8588 108.19L66.4586 114.609C73.9238 100.834 86.4741 90.5178 101.435 85.8609C116.395 81.204 132.583 82.5741 146.548 89.6793L146.552 89.678Z" fill="black" fill-opacity="0.102"/>
<path d="M70.5532 103.263L99.8171 118.173C110.14 123.433 117.707 129.271 116.718 131.211L114.125 136.301C113.136 138.241 103.966 135.551 93.6429 130.291L64.3789 115.38C54.0558 110.12 46.4889 104.283 47.4778 102.342L50.0709 97.2529C51.0598 95.312 60.2301 98.0026 70.5532 103.263Z" stroke="white" stroke-width="11.648" stroke-linecap="round"/>
<path d="M97.5114 189.409C68.6707 174.714 57.2034 139.421 71.8985 110.58C86.5935 81.7395 121.886 70.2722 150.727 84.9673C179.568 99.6624 191.035 134.955 176.34 163.796C161.645 192.637 126.352 204.104 97.5114 189.409Z" fill="white"/>
<circle cx="124.91" cy="135.729" r="48.45" transform="rotate(27 124.91 135.729)" fill="#2A211B"/>
<defs>
<linearGradient id="paint0_linear_43_768" x1="148.014" y1="53.2046" x2="148.014" y2="356.728" gradientUnits="userSpaceOnUse">
<stop stop-color="#DC8ADD"/>
<stop offset="1" stop-color="#3584E4"/>
</linearGradient>
<linearGradient id="paint1_linear_43_768" x1="294.642" y1="235.981" x2="302.032" y2="228.591" gradientUnits="userSpaceOnUse">
<stop stop-color="#D0BB8E"/>
<stop offset="1" stop-color="white"/>
</linearGradient>
<linearGradient id="paint2_linear_43_768" x1="332.089" y1="272.384" x2="342.231" y2="262.243" gradientUnits="userSpaceOnUse">
<stop stop-color="#5E5C64"/>
<stop offset="1" stop-color="#9A9996"/>
</linearGradient>
<linearGradient id="paint3_linear_43_768" x1="328.791" y1="266.832" x2="337.805" y2="257.818" gradientUnits="userSpaceOnUse">
<stop stop-color="#9A9996"/>
<stop offset="0.533" stop-color="#DEDDDA"/>
<stop offset="1" stop-color="#F6F5F4"/>
</linearGradient>
</defs>
</svg>
