<svg width="401" height="400" viewBox="0 0 401 400" fill="none" xmlns="http://www.w3.org/2000/svg">
<path d="M226.892 49.3996L169.317 69.2243C162.442 71.5917 158.787 79.0842 161.155 85.9595L191.696 174.657C194.063 181.532 201.556 185.186 208.431 182.819L266.006 162.994C272.881 160.627 276.536 153.134 274.169 146.259L243.628 57.5616C241.26 50.6864 233.768 47.0322 226.892 49.3996Z" fill="url(#paint0_linear_43_771)"/>
<path d="M225.821 46.2865L168.245 66.1116C161.37 68.4789 157.716 75.9712 160.083 82.8464L189.553 168.432C191.92 175.307 199.412 178.962 206.287 176.594L263.863 156.769C270.739 154.402 274.393 146.909 272.026 140.034L242.557 54.4486C240.189 47.5733 232.696 43.9192 225.821 46.2865Z" fill="#3D3846"/>
<path d="M190.378 102.006L183.795 104.273C180.886 105.274 179.487 108.873 180.671 112.311C181.855 115.748 185.172 117.723 188.081 116.722L194.665 114.455C197.573 113.453 198.972 109.854 197.788 106.417C196.604 102.979 193.287 101.004 190.378 102.006Z" fill="#9A9996"/>
<path d="M213.721 93.968L207.139 96.2344C204.231 97.2358 202.833 100.834 204.016 104.272C205.2 107.71 208.517 109.685 211.426 108.683L218.008 106.417C220.916 105.416 222.314 101.817 221.13 98.3792C219.947 94.9416 216.629 92.9666 213.721 93.968Z" fill="#9A9996"/>
<path d="M237.064 85.9307L230.482 88.1968C227.575 89.198 226.177 92.7964 227.361 96.234C228.545 99.6716 231.861 101.647 234.769 100.646L241.35 98.3796C244.258 97.3784 245.655 93.78 244.472 90.3424C243.288 86.9048 239.971 84.9294 237.064 85.9307Z" fill="#9A9996"/>
<path d="M227.145 56.2749L173.355 74.7964C170.591 75.748 169.105 78.709 170.035 81.41L172.56 88.7458C173.49 91.4467 176.485 92.8646 179.248 91.913L233.039 73.3915C235.802 72.4399 237.289 69.4792 236.359 66.7783L233.833 59.4424C232.903 56.7415 229.909 55.3233 227.145 56.2749Z" fill="#241F31"/>
<path d="M234.111 76.5036L180.32 95.0252C177.557 95.9767 174.504 94.3901 173.503 91.4814L171.236 84.8983C170.235 81.9896 171.663 78.8601 174.427 77.9086L228.217 59.387C230.981 58.4355 234.033 60.0221 235.035 62.9308L237.301 69.5139C238.303 72.4226 236.874 75.5521 234.111 76.5036Z" fill="#6FB182"/>
<path d="M189.306 98.8935L182.723 101.16C179.814 102.162 178.416 105.761 179.599 109.198C180.783 112.636 184.1 114.611 187.009 113.609L193.593 111.342C196.501 110.341 197.9 106.742 196.716 103.305C195.533 99.8669 192.215 97.8919 189.306 98.8935Z" fill="#DEDDDA"/>
<path d="M212.65 90.8558L206.068 93.1222C203.16 94.1236 201.761 97.7223 202.945 101.16C204.129 104.598 207.446 106.572 210.354 105.571L216.936 103.304C219.844 102.303 221.243 98.7047 220.059 95.2671C218.875 91.8294 215.558 89.8544 212.65 90.8558Z" fill="#DEDDDA"/>
<path d="M235.992 82.8185L229.411 85.0846C226.503 86.0858 225.106 89.6842 226.29 93.1218C227.473 96.5594 230.79 98.5344 233.697 97.5332L240.279 95.2671C243.187 94.2658 244.584 90.6678 243.4 87.2302C242.217 83.7926 238.9 81.8172 235.992 82.8185Z" fill="#DEDDDA"/>
<path d="M197.344 122.235L190.76 124.502C187.852 125.504 186.453 129.102 187.637 132.54L188.708 135.652C189.892 139.089 193.21 141.064 196.118 140.063L202.702 137.796C205.611 136.794 207.009 133.196 205.825 129.758L204.754 126.646C203.57 123.208 200.253 121.234 197.344 122.235Z" fill="#5E5C64"/>
<path d="M220.687 114.197L214.105 116.464C211.197 117.465 209.798 121.064 210.982 124.501L212.054 127.613C213.237 131.051 216.555 133.026 219.463 132.025L226.045 129.758C228.953 128.757 230.351 125.158 229.168 121.72L228.096 118.609C226.913 115.171 223.595 113.196 220.687 114.197Z" fill="#5E5C64"/>
<path d="M205.381 145.576L198.798 147.843C195.889 148.844 194.49 152.443 195.674 155.881L196.746 158.993C197.929 162.43 201.247 164.405 204.156 163.404L210.739 161.137C213.648 160.135 215.046 156.536 213.862 153.099L212.791 149.987C211.607 146.549 208.29 144.574 205.381 145.576Z" fill="#5E5C64"/>
<path d="M228.724 137.538L222.142 139.805C219.234 140.806 217.836 144.405 219.019 147.842L220.091 150.954C221.274 154.392 224.592 156.367 227.5 155.365L234.082 153.099C236.99 152.098 238.389 148.499 237.205 145.061L236.133 141.949C234.95 138.512 231.632 136.537 228.724 137.538Z" fill="#5E5C64"/>
<path d="M196.272 119.122L189.689 121.389C186.78 122.391 185.381 125.99 186.565 129.427L187.637 132.539C188.82 135.977 192.138 137.952 195.047 136.95L201.63 134.683C204.539 133.682 205.937 130.083 204.754 126.645L203.682 123.533C202.498 120.096 199.181 118.121 196.272 119.122Z" fill="#9A9996"/>
<path d="M219.616 111.085L213.034 113.351C210.125 114.352 208.727 117.951 209.911 121.389L210.982 124.501C212.166 127.938 215.483 129.913 218.392 128.912L224.974 126.646C227.882 125.644 229.28 122.045 228.096 118.608L227.025 115.496C225.841 112.058 222.524 110.083 219.616 111.085Z" fill="#9A9996"/>
<path d="M204.309 142.464L197.725 144.731C194.816 145.732 193.418 149.331 194.602 152.769L195.673 155.881C196.857 159.318 200.174 161.293 203.083 160.292L209.667 158.025C212.576 157.023 213.974 153.424 212.79 149.987L211.719 146.875C210.535 143.437 207.217 141.462 204.309 142.464Z" fill="#9A9996"/>
<path d="M227.652 134.426L221.07 136.692C218.162 137.694 216.764 141.293 217.947 144.73L219.019 147.842C220.203 151.28 223.52 153.255 226.428 152.253L233.01 149.987C235.919 148.986 237.317 145.387 236.133 141.949L235.062 138.837C233.878 135.4 230.561 133.425 227.652 134.426Z" fill="#9A9996"/>
<path d="M252.066 129.501L245.485 131.767C242.577 132.768 241.18 136.367 242.363 139.804L243.435 142.916C244.619 146.354 247.935 148.329 250.843 147.328L257.424 145.062C260.332 144.06 261.729 140.462 260.545 137.024L259.474 133.913C258.29 130.475 254.974 128.5 252.066 129.501Z" fill="#C64600"/>
<path d="M242.957 103.047L236.376 105.313C233.468 106.315 232.071 109.913 233.255 113.351L242.363 139.804C243.547 143.241 246.863 145.217 249.771 144.215L256.352 141.949C259.26 140.948 260.657 137.35 259.474 133.912L250.365 107.459C249.181 104.021 245.865 102.046 242.957 103.047Z" fill="#FF7800"/>
<path d="M134.232 97.806C127.566 96.6473 120.718 97.1084 114.271 99.1503C107.824 101.192 101.966 104.755 97.1946 109.536C95.2024 108.861 93.1746 108.296 91.1204 107.843C76.1249 105.199 60.6934 108.62 48.2205 117.352C35.7477 126.084 27.2552 139.414 24.6114 154.407C22.4009 167.126 24.5425 180.218 30.6903 191.571C36.8382 202.923 46.6333 211.872 58.4939 216.973C57.8586 219.014 57.3379 221.089 56.9341 223.189C54.2904 238.182 57.7119 253.612 66.4458 266.084C75.1798 278.555 88.5109 287.047 103.506 289.692C111.823 291.143 120.356 290.743 128.5 288.52C136.644 286.296 144.197 282.305 150.621 276.829C155.543 285.711 162.383 293.384 170.643 299.29C178.903 305.197 188.376 309.188 198.372 310.974C206.692 312.366 215.197 312.205 223.458 310.5C226.482 318.025 231.378 324.658 237.683 329.775C243.989 334.891 251.496 338.321 259.496 339.741C265.679 340.832 272.017 340.697 278.146 339.344C284.275 337.991 290.075 335.447 295.217 331.857C300.358 328.267 304.739 323.702 308.11 318.421C311.481 313.141 313.776 307.249 314.863 301.081C315.226 298.997 315.45 296.891 315.533 294.776C315.648 294.812 315.763 294.847 315.879 294.881C330.874 297.525 346.306 294.105 358.778 285.372C371.251 276.64 379.744 263.311 382.388 248.317C385.031 233.324 381.61 217.894 372.876 205.422C364.142 192.951 350.811 184.459 335.815 181.814C325.776 180.087 315.457 181.062 305.919 184.639C307.182 170.33 303.034 156.067 294.294 144.666C285.554 133.266 272.857 125.555 258.71 123.057C247.054 121.033 235.057 122.659 224.361 127.712C213.665 132.764 204.791 140.998 198.953 151.286C196.405 143.851 191.951 137.214 186.036 132.038C180.12 126.862 172.951 123.329 165.242 121.79C162.411 115.583 158.108 110.156 152.705 105.978C147.302 101.799 140.962 98.9946 134.232 97.806Z" fill="url(#paint1_linear_43_771)"/>
<rect x="138.957" y="146.702" width="153.928" height="153.928" rx="32" transform="rotate(-7 138.957 146.702)" fill="#F2F2F2"/>
<rect x="171.562" y="172.176" width="29.6014" height="29.6014" rx="8" transform="rotate(-7 171.562 172.176)" fill="#DEDDDA"/>
<rect x="205.35" y="168.027" width="29.6014" height="29.6014" rx="8" transform="rotate(-7 205.35 168.027)" fill="#DEDDDA"/>
<rect x="239.137" y="163.879" width="29.6014" height="29.6014" rx="8" transform="rotate(-7 239.137 163.879)" fill="#DEDDDA"/>
<rect x="175.71" y="205.964" width="29.6014" height="29.6014" rx="8" transform="rotate(-7 175.71 205.964)" fill="#DEDDDA"/>
<rect x="209.499" y="201.815" width="29.6014" height="29.6014" rx="8" transform="rotate(-7 209.499 201.815)" fill="#DEDDDA"/>
<rect x="243.286" y="197.667" width="29.6014" height="29.6014" rx="8" transform="rotate(-7 243.286 197.667)" fill="#DEDDDA"/>
<rect x="179.859" y="239.752" width="29.6014" height="29.6014" rx="8" transform="rotate(-7 179.859 239.752)" fill="#DEDDDA"/>
<rect x="213.647" y="235.603" width="29.6014" height="29.6014" rx="8" transform="rotate(-7 213.647 235.603)" fill="#DEDDDA"/>
<rect x="247.435" y="231.455" width="29.6014" height="29.6014" rx="8" transform="rotate(-7 247.435 231.455)" fill="#DEDDDA"/>
<path d="M268.06 245.214C262.906 244.066 257.47 244.243 252.256 245.851C249.947 246.57 248.653 249.029 249.372 251.337C250.087 253.662 252.546 254.956 254.855 254.238C262.303 251.93 270.385 253.735 276.155 258.993C281.908 264.247 284.439 272.128 282.818 279.758L281.905 284.051C281.403 286.415 282.921 288.754 285.285 289.256C287.65 289.759 289.988 288.24 290.491 285.876L291.403 281.583C291.421 281.499 291.439 281.415 291.436 281.345C293.598 270.763 290.042 259.789 282.056 252.501C278.036 248.824 273.197 246.359 268.043 245.211L268.06 245.214ZM243.156 252.627C242.871 252.567 242.579 252.54 242.297 252.55C241.136 252.566 240.018 253.047 239.207 253.891C235.244 258.026 232.498 263.191 231.304 268.809L226.685 290.541C226.183 292.905 227.701 295.243 230.065 295.746C232.43 296.249 234.768 294.73 235.271 292.366L239.89 270.634C240.742 266.626 242.703 262.924 245.539 259.969C247.225 258.224 247.164 255.46 245.419 253.774C244.794 253.168 244.002 252.772 243.156 252.627ZM265.004 258.025C255.563 256.018 246.189 262.105 244.183 271.546L243.27 275.839C242.768 278.203 244.286 280.541 246.651 281.044C249.015 281.547 251.353 280.028 251.856 277.664L252.768 273.371C253.788 268.575 258.383 265.591 263.179 266.61C267.974 267.63 270.959 272.225 269.939 277.021L265.377 298.485C265.377 298.485 265.008 300.387 265.273 302.686C265.537 304.986 266.371 308.072 268.457 311.285C269.778 313.318 272.494 313.896 274.528 312.575C276.561 311.255 277.138 308.538 275.818 306.505C274.524 304.512 274.124 302.85 274 301.702C273.876 300.554 273.963 300.309 273.963 300.309L278.525 278.846C280.532 269.405 274.444 260.031 265.004 258.025ZM262.266 270.903C259.902 270.401 257.564 271.919 257.061 274.283L252.499 295.747C252.499 295.747 251.957 298.296 251.914 301.547C251.872 304.798 252.184 309.018 254.667 312.84C255.987 314.874 258.704 315.451 260.737 314.131C262.77 312.81 263.348 310.094 262.027 308.06C261.129 306.678 260.664 304.003 260.689 301.659C260.714 299.316 261.084 297.572 261.084 297.572L265.647 276.108C266.149 273.744 264.631 271.406 262.266 270.903ZM245.738 285.337C243.374 284.834 241.035 286.353 240.533 288.717L237.796 301.595C237.293 303.96 238.811 306.298 241.176 306.801C243.54 307.303 245.878 305.785 246.381 303.42L249.118 290.542C249.621 288.178 248.102 285.839 245.738 285.337ZM284.373 293.549C282.009 293.046 279.67 294.565 279.168 296.929C278.665 299.294 280.184 301.632 282.548 302.134C284.912 302.637 287.251 301.118 287.753 298.754C288.256 296.39 286.737 294.051 284.373 293.549Z" fill="#241F31"/>
<defs>
<linearGradient id="paint0_linear_43_771" x1="196.895" y1="189.816" x2="279.387" y2="161.412" gradientUnits="userSpaceOnUse">
<stop stop-color="#241F31"/>
<stop offset="0.0756838" stop-color="#5E5C64"/>
<stop offset="0.151138" stop-color="#241F31"/>
<stop offset="0.849089" stop-color="#241F31"/>
<stop offset="0.924544" stop-color="#5E5C64"/>
<stop offset="1" stop-color="#241F31"/>
</linearGradient>
<linearGradient id="paint1_linear_43_771" x1="118.418" y1="93.5136" x2="284.706" y2="331.03" gradientUnits="userSpaceOnUse">
<stop stop-color="#C0BFBC"/>
<stop offset="1" stop-color="#5E5C64"/>
</linearGradient>
</defs>
</svg>
