<?xml version="1.0" encoding="UTF-8" standalone="no"?>
<svg
   id="svg4749"
   version="1.1"
   viewBox="0 0 400 400.00002"
   height="400"
   width="400"
   sodipodi:docname="casual.svg"
   inkscape:version="1.4.2 (ebf0e940d0, 2025-05-08)"
   xml:space="preserve"
   xmlns:inkscape="http://www.inkscape.org/namespaces/inkscape"
   xmlns:sodipodi="http://sodipodi.sourceforge.net/DTD/sodipodi-0.dtd"
   xmlns:xlink="http://www.w3.org/1999/xlink"
   xmlns="http://www.w3.org/2000/svg"
   xmlns:svg="http://www.w3.org/2000/svg"
   xmlns:rdf="http://www.w3.org/1999/02/22-rdf-syntax-ns#"
   xmlns:cc="http://creativecommons.org/ns#"
   xmlns:dc="http://purl.org/dc/elements/1.1/"><sodipodi:namedview
     id="namedview1"
     pagecolor="#ffffff"
     bordercolor="#000000"
     borderopacity="0.25"
     inkscape:showpageshadow="2"
     inkscape:pageopacity="0.0"
     inkscape:pagecheckerboard="0"
     inkscape:deskcolor="#d1d1d1"
     inkscape:zoom="1.514387"
     inkscape:cx="208.66528"
     inkscape:cy="210.97645"
     inkscape:window-width="1920"
     inkscape:window-height="1003"
     inkscape:window-x="0"
     inkscape:window-y="40"
     inkscape:window-maximized="1"
     inkscape:current-layer="svg4749" /><defs
     id="defs4743"><clipPath
       id="clipPath11679"
       clipPathUnits="userSpaceOnUse"><circle
         style="opacity:1;vector-effect:none;fill:#9141ac;fill-opacity:1;stroke:none;stroke-width:0.529167;stroke-linecap:round;stroke-linejoin:miter;stroke-miterlimit:4;stroke-dasharray:none;stroke-dashoffset:0;stroke-opacity:1;marker:none;marker-start:none;marker-mid:none;marker-end:none;paint-order:normal"
         id="circle11681"
         cx="239.05104"
         cy="77.263527"
         r="19.711458" /></clipPath><linearGradient
       inkscape:collect="always"
       id="linearGradient1674"><stop
         style="stop-color:#99c1f1;stop-opacity:1;"
         offset="0"
         id="stop1668" /><stop
         style="stop-color:#f5f9fe;stop-opacity:1"
         offset="0.80885202"
         id="stop1670" /><stop
         style="stop-color:#b8d3f6;stop-opacity:1"
         offset="1"
         id="stop1672" /></linearGradient><linearGradient
       inkscape:collect="always"
       id="linearGradient908"><stop
         style="stop-color:#99c1f1;stop-opacity:1;"
         offset="0"
         id="stop904" /><stop
         style="stop-color:#d9e8fa;stop-opacity:1"
         offset="0.33806285"
         id="stop1010" /><stop
         style="stop-color:#b8d3f6;stop-opacity:1"
         offset="1"
         id="stop906" /></linearGradient><linearGradient
       inkscape:collect="always"
       id="linearGradient14556"><stop
         style="stop-color:#f9ef69;stop-opacity:1;"
         offset="0"
         id="stop14552" /><stop
         style="stop-color:#f5c211;stop-opacity:1"
         offset="1"
         id="stop14554" /></linearGradient><linearGradient
       id="a-3"
       gradientTransform="matrix(0.707107,0.707107,0.707107,-0.707107,2,-170)"
       gradientUnits="userSpaceOnUse"
       x1="188.44394"
       x2="261.09912"
       y1="-77.78183"
       y2="-150.43706"><stop
         offset="0"
         stop-color="#f6d32d"
         id="stop2-6" /><stop
         offset="1"
         stop-color="#f5c211"
         id="stop4-7" /></linearGradient><radialGradient
       id="b"
       cx="280.9942"
       cy="488.84842"
       gradientTransform="matrix(0.347005,0,0,0.342234,-31.50647,-127.48206)"
       gradientUnits="userSpaceOnUse"
       r="224"><stop
         offset="0"
         stop-color="#fdfacf"
         id="stop7" /><stop
         offset="0.4"
         stop-color="#f9f06b"
         id="stop9" /><stop
         offset="1"
         stop-color="#f6d32d"
         id="stop11" /></radialGradient><linearGradient
       inkscape:collect="always"
       xlink:href="#linearGradient10519"
       id="linearGradient10521"
       x1="564.64844"
       y1="486.45703"
       x2="723.66016"
       y2="486.45703"
       gradientUnits="userSpaceOnUse"
       gradientTransform="matrix(1.1724844,0,0,1.1724844,-531.44458,-257.84982)" /><linearGradient
       inkscape:collect="always"
       id="linearGradient10519"><stop
         style="stop-color:#26a269;stop-opacity:1;"
         offset="0"
         id="stop10515" /><stop
         style="stop-color:#1eef8f;stop-opacity:1"
         offset="0.28584763"
         id="stop10685" /><stop
         style="stop-color:#165f3d;stop-opacity:1"
         offset="1"
         id="stop10517" /></linearGradient><linearGradient
       inkscape:collect="always"
       xlink:href="#linearGradient8268"
       id="linearGradient8270"
       x1="624.69623"
       y1="401.86096"
       x2="698.71875"
       y2="288.45312"
       gradientUnits="userSpaceOnUse"
       gradientTransform="matrix(1.1724844,0,0,1.1724844,-531.44458,-201.41465)" /><linearGradient
       inkscape:collect="always"
       id="linearGradient8268"><stop
         style="stop-color:#26a269;stop-opacity:1"
         offset="0"
         id="stop8264" /><stop
         style="stop-color:#f9f06b;stop-opacity:1"
         offset="1"
         id="stop8266" /></linearGradient><linearGradient
       inkscape:collect="always"
       xlink:href="#linearGradient14556"
       id="linearGradient14558"
       x1="231.2832"
       y1="145.98535"
       x2="231.2832"
       y2="252.41602"
       gradientUnits="userSpaceOnUse" /><linearGradient
       inkscape:collect="always"
       xlink:href="#linearGradient908"
       id="linearGradient910"
       x1="468.32376"
       y1="362.07745"
       x2="590.33112"
       y2="362.07745"
       gradientUnits="userSpaceOnUse" /><linearGradient
       inkscape:collect="always"
       xlink:href="#linearGradient1674"
       id="linearGradient1474"
       gradientUnits="userSpaceOnUse"
       x1="672.41003"
       y1="400.16177"
       x2="779.02802"
       y2="400.16177" /></defs><metadata
     id="metadata4746"><rdf:RDF><cc:Work
         rdf:about=""><dc:format>image/svg+xml</dc:format><dc:type
           rdf:resource="http://purl.org/dc/dcmitype/StillImage" /></cc:Work></rdf:RDF></metadata><g
     id="layer1-7"
     inkscape:label="Layer 1"
     transform="matrix(0.66127988,0,0,0.67751388,66.94381,-31.570361)"><g
       style="stroke-width:0.386113"
       transform="matrix(1.1259125,0,0,1.1259125,224.47071,55.053376)"
       id="g862"><path
         d="m 20,20 h 88 v 88 H 20 Z m 0,0"
         fill="#f5c211"
         id="path856-5"
         style="stroke-width:0.298167" /><path
         style="fill:url(#a-3);stroke-width:0.386113"
         d="M 2,64 64,126 126,64 64,2 Z m 0,0"
         fill="url(#a)"
         id="path858-3" /><path
         style="fill:url(#b);stroke-width:0.386113"
         d="M 112,64 C 112,90.507812 90.507812,112 64,112 37.492188,112 16,90.507812 16,64 16,37.492188 37.492188,16 64,16 c 26.507812,0 48,21.492188 48,48 z m 0,0"
         fill="url(#b)"
         id="path860-5" /></g><circle
       style="fill:url(#linearGradient10521);fill-opacity:1;stroke-width:18.7598;stop-color:#000000"
       id="circle10463"
       cx="209.35948"
       cy="242.87909"
       r="101.09472" /><circle
       style="fill:url(#linearGradient14558);fill-opacity:1;stroke-width:18.7598;stop-color:#000000"
       id="circle11708"
       cx="209.35948"
       cy="236.68916"
       r="101.09472" /><circle
       style="fill:url(#linearGradient8270);fill-opacity:1;stroke-width:18.7598;stop-color:#000000"
       id="path2198"
       cx="209.35948"
       cy="238.18916"
       r="101.09472" /><g
       id="g8228"
       transform="matrix(0.93457387,0,0,0.93457387,-404.96762,-136.74431)"><path
         id="path2322"
         style="display:inline;fill:url(#linearGradient910);fill-opacity:1;stroke:none;stroke-width:32.3735;stroke-linecap:round;stroke-linejoin:round;stroke-miterlimit:4;stroke-dasharray:none;stroke-opacity:0.482318;stop-color:#000000"
         d="m 538.64083,296.63671 a 43.839679,43.839679 0 0 0 -39.2403,24.36235 35.177858,35.177858 0 0 0 -3.3343,-0.16019 35.177858,35.177858 0 0 0 -35.1788,35.17881 35.177858,35.177858 0 0 0 0.9716,8.21352 h 147.2279 a 29.419203,29.419203 0 0 0 -26.7777,-28.00225 43.839679,43.839679 0 0 0 -43.6326,-39.59224 43.839679,43.839679 0 0 0 -0.036,0 z" /><path
         id="path889"
         style="display:inline;fill:#ffffff;fill-opacity:1;stroke:none;stroke-width:32.3735;stroke-linecap:round;stroke-linejoin:round;stroke-miterlimit:4;stroke-dasharray:none;stroke-opacity:0.482318;stop-color:#000000"
         d="m 538.64083,292.63671 a 43.839679,43.839679 0 0 0 -39.2403,24.36235 35.177858,35.177858 0 0 0 -3.3343,-0.16019 35.177858,35.177858 0 0 0 -35.1788,35.17881 35.177858,35.177858 0 0 0 0.9716,8.21352 h 147.2279 a 29.419203,29.419203 0 0 0 -26.7777,-28.00225 43.839679,43.839679 0 0 0 -43.6326,-39.59224 43.839679,43.839679 0 0 0 -0.036,0 z" /></g><path
       style="fill:none;stroke:#8ff0a4;stroke-width:27.0574;stroke-linecap:round;stroke-linejoin:miter;stroke-miterlimit:4;stroke-dasharray:none;stroke-opacity:1"
       d="m 173.95206,242.7111 27.04994,27.04994 55.33318,-55.33316"
       id="path7128" /><g
       id="g8232"
       transform="matrix(0.85677501,0,0,0.85677501,-296.65379,-71.159142)"><path
         id="path2302"
         style="font-variation-settings:normal;display:inline;opacity:1;vector-effect:none;fill:url(#linearGradient1474);fill-opacity:1;stroke:none;stroke-width:35.3132;stroke-linecap:round;stroke-linejoin:round;stroke-miterlimit:4;stroke-dasharray:none;stroke-dashoffset:0;stroke-opacity:0.482318;-inkscape-stroke:none;stop-color:#000000;stop-opacity:1"
         d="m 741.32713,365.18189 c -14.26103,10e-4 -26.92647,9.11418 -31.45954,22.63558 -3.34805,-1.36908 -6.93047,-2.07375 -10.54763,-2.07475 -15.40287,-6.9e-4 -27.88955,12.48596 -27.88889,27.88883 -3.2e-4,4.76721 1.22143,9.45492 3.54859,13.61552 h 82.67972 c 10.41164,-5.88686 16.84961,-16.92128 16.85101,-28.88194 -8e-5,-18.32657 -14.85669,-33.18317 -33.18326,-33.18324 z"
         sodipodi:nodetypes="cccccccc" /><path
         id="path903"
         style="display:inline;fill:#ffffff;fill-opacity:1;stroke:none;stroke-width:48.5793;stroke-linecap:round;stroke-linejoin:round;stroke-miterlimit:4;stroke-dasharray:none;stroke-opacity:0.482318;stop-color:#000000"
         d="m 739.32713,361.18189 c -14.26103,10e-4 -26.92647,9.11418 -31.45954,22.63558 -3.34805,-1.36908 -6.93047,-2.07375 -10.54763,-2.07475 -15.40287,-6.9e-4 -27.88955,12.48596 -27.88889,27.88883 -3.2e-4,4.76721 1.22143,9.45492 3.54859,13.61552 h 82.67972 c 10.41164,-5.88686 16.84961,-16.92128 16.85101,-28.88194 -8e-5,-18.32657 -14.85669,-33.18317 -33.18326,-33.18324 z"
         sodipodi:nodetypes="cccccccc" /></g></g><g
     style="display:inline;opacity:1"
     id="layer2"
     transform="translate(-4480,80.000003)"><rect
       y="-80"
       x="4480"
       height="360"
       width="360"
       id="rect5314"
       style="opacity:1;vector-effect:none;fill:none;fill-opacity:1;stroke:none;stroke-width:1.92724;stroke-linecap:round;stroke-linejoin:miter;stroke-miterlimit:4;stroke-dasharray:none;stroke-dashoffset:0;stroke-opacity:1;marker:none;marker-start:none;marker-mid:none;marker-end:none;paint-order:normal" /></g><g
     style="opacity:1"
     transform="matrix(1.3985582,0,0,1.3101289,-6316.4807,9143.2351)"
     id="layer1"><g
       transform="matrix(2.1856076,0,0,2.1856076,4519.9942,-7305.9892)"
       id="g1518"
       style="display:inline;stroke-width:0.783634;enable-background:new"><path
         id="rect1431-2"
         transform="matrix(0.65906973,0,0,0.65906973,-421.23217,101.59518)"
         d="m 709.10352,159.37695 v 23.59375 l -10.52149,-8.46484 -9.23242,11.47461 -34.36328,-7.08594 -14.98242,72.6875 a 24.27907,24.27907 0 0 0 42.6875,20.11914 l 15.92968,-19.79687 a 21.065882,21.065882 0 0 0 7.44727,1.36914 21.065882,21.065882 0 0 0 20.16406,-14.9961 h 20.37305 a 21.065882,21.065882 0 0 0 20.1543,14.9961 21.065882,21.065882 0 0 0 7.58789,-1.4375 l 15.98437,19.86523 a 24.27907,24.27907 0 0 0 42.6875,-20.11914 l -14.98242,-72.6875 -34.36523,7.08594 -9.23047,-11.47461 -10.7168,8.62305 v -23.75196 z"
         style="display:inline;opacity:1;vector-effect:none;fill:#000000;fill-opacity:0.102362;stroke:none;stroke-width:5.075;stroke-linecap:round;stroke-linejoin:miter;stroke-miterlimit:4;stroke-dasharray:none;stroke-dashoffset:0;stroke-opacity:1;marker:none;marker-start:none;marker-mid:none;marker-end:none;paint-order:normal;enable-background:new" /><path
         id="path1419"
         d="m 89.17862,213.9707 6.083984,7.5625 22.648436,-4.66992 9.875,47.90625 A 16.0016,16.0016 0 0 1 99.651276,278.0293 l -35.404297,-44 z"
         style="color:#000000;font-style:normal;font-variant:normal;font-weight:normal;font-stretch:normal;font-size:medium;line-height:normal;font-family:sans-serif;font-variant-ligatures:normal;font-variant-position:normal;font-variant-caps:normal;font-variant-numeric:normal;font-variant-alternates:normal;font-feature-settings:normal;text-indent:0;text-align:start;text-decoration:none;text-decoration-line:none;text-decoration-style:solid;text-decoration-color:#000000;letter-spacing:normal;word-spacing:normal;text-transform:none;writing-mode:lr-tb;direction:ltr;text-orientation:mixed;dominant-baseline:auto;baseline-shift:baseline;text-anchor:start;white-space:normal;shape-padding:0;clip-rule:nonzero;display:inline;overflow:visible;visibility:visible;opacity:1;isolation:auto;mix-blend-mode:normal;color-interpolation:sRGB;color-interpolation-filters:linearRGB;solid-color:#000000;solid-opacity:1;vector-effect:none;fill:#77767b;fill-opacity:1;fill-rule:nonzero;stroke:none;stroke-width:25.0762;stroke-linecap:butt;stroke-linejoin:round;stroke-miterlimit:4;stroke-dasharray:none;stroke-dashoffset:0;stroke-opacity:1;color-rendering:auto;image-rendering:auto;shape-rendering:auto;text-rendering:auto;enable-background:new" /><path
         style="color:#000000;font-style:normal;font-variant:normal;font-weight:normal;font-stretch:normal;font-size:medium;line-height:normal;font-family:sans-serif;font-variant-ligatures:normal;font-variant-position:normal;font-variant-caps:normal;font-variant-numeric:normal;font-variant-alternates:normal;font-feature-settings:normal;text-indent:0;text-align:start;text-decoration:none;text-decoration-line:none;text-decoration-style:solid;text-decoration-color:#000000;letter-spacing:normal;word-spacing:normal;text-transform:none;writing-mode:lr-tb;direction:ltr;text-orientation:mixed;dominant-baseline:auto;baseline-shift:baseline;text-anchor:start;white-space:normal;shape-padding:0;clip-rule:nonzero;display:inline;overflow:visible;visibility:visible;opacity:1;isolation:auto;mix-blend-mode:normal;color-interpolation:sRGB;color-interpolation-filters:linearRGB;solid-color:#000000;solid-opacity:1;vector-effect:none;fill:#77767b;fill-opacity:1;fill-rule:nonzero;stroke:none;stroke-width:25.0762;stroke-linecap:butt;stroke-linejoin:round;stroke-miterlimit:4;stroke-dasharray:none;stroke-dashoffset:0;stroke-opacity:1;color-rendering:auto;image-rendering:auto;shape-rendering:auto;text-rendering:auto;enable-background:new"
         d="m 39.181862,213.9707 -6.083984,7.5625 -22.648438,-4.66992 -9.875,47.90625 a 16.0016,16.0016 0 0 0 28.13477,13.25977 l 35.404293,-44 z"
         id="path1421" /><rect
         style="opacity:1;vector-effect:none;fill:#77767b;fill-opacity:1;stroke:none;stroke-width:25.0762;stroke-linecap:square;stroke-linejoin:round;stroke-miterlimit:4;stroke-dasharray:none;stroke-dashoffset:0;stroke-opacity:1"
         id="rect1425"
         width="46"
         height="32"
         x="41.116116"
         y="200" /><path
         style="color:#000000;font-style:normal;font-variant:normal;font-weight:normal;font-stretch:normal;font-size:medium;line-height:normal;font-family:sans-serif;font-variant-ligatures:normal;font-variant-position:normal;font-variant-caps:normal;font-variant-numeric:normal;font-variant-alternates:normal;font-feature-settings:normal;text-indent:0;text-align:start;text-decoration:none;text-decoration-line:none;text-decoration-style:solid;text-decoration-color:#000000;letter-spacing:normal;word-spacing:normal;text-transform:none;writing-mode:lr-tb;direction:ltr;text-orientation:mixed;dominant-baseline:auto;baseline-shift:baseline;text-anchor:start;white-space:normal;shape-padding:0;clip-rule:nonzero;display:inline;overflow:visible;visibility:visible;opacity:1;isolation:auto;mix-blend-mode:normal;color-interpolation:sRGB;color-interpolation-filters:linearRGB;solid-color:#000000;solid-opacity:1;vector-effect:none;fill:#5e5c64;fill-opacity:0.235294;fill-rule:nonzero;stroke:none;stroke-width:25.0762;stroke-linecap:butt;stroke-linejoin:round;stroke-miterlimit:4;stroke-dasharray:none;stroke-dashoffset:0;stroke-opacity:1;color-rendering:auto;image-rendering:auto;shape-rendering:auto;text-rendering:auto;enable-background:new"
         d="m 60.449221,231.2793 -31.984369,39.75 A 16.0016,16.0016 0 0 1 0.39453,264.45313 l -0.0644,0.3164 a 16.0016,16.0016 0 0 0 28.134771,13.25977 l 35.40429,-44 z m 7.101561,0 -3.41992,2.75 35.4043,44 a 16.0016,16.0016 0 0 0 28.134778,-13.25977 l -0.0645,-0.3164 a 16.0016,16.0016 0 0 1 -28.070328,6.57617 z"
         id="path1427" /><circle
         style="opacity:1;vector-effect:none;fill:#c0bfbc;fill-opacity:1;stroke:none;stroke-width:6.26905;stroke-linecap:square;stroke-linejoin:round;stroke-miterlimit:4;stroke-dasharray:none;stroke-dashoffset:0;stroke-opacity:1"
         id="circle1429"
         cx="32.116116"
         cy="221"
         r="22" /><rect
         style="opacity:1;vector-effect:none;fill:#c0bfbc;fill-opacity:1;stroke:none;stroke-width:25.0762;stroke-linecap:square;stroke-linejoin:round;stroke-miterlimit:4;stroke-dasharray:none;stroke-dashoffset:0;stroke-opacity:1"
         id="rect1431"
         width="36"
         height="51.999996"
         x="46.116116"
         y="204" /><circle
         r="22"
         cy="221"
         cx="96.116119"
         id="circle1433"
         style="opacity:1;vector-effect:none;fill:#c0bfbc;fill-opacity:1;stroke:none;stroke-width:6.26905;stroke-linecap:square;stroke-linejoin:round;stroke-miterlimit:4;stroke-dasharray:none;stroke-dashoffset:0;stroke-opacity:1" /><rect
         y="204"
         x="46.116116"
         height="48"
         width="36"
         id="rect1436"
         style="opacity:1;vector-effect:none;fill:#deddda;fill-opacity:1;stroke:none;stroke-width:25.0762;stroke-linecap:square;stroke-linejoin:round;stroke-miterlimit:4;stroke-dasharray:none;stroke-dashoffset:0;stroke-opacity:1" /><circle
         r="13.883883"
         cy="252"
         cx="44.116116"
         id="circle1438"
         style="opacity:1;vector-effect:none;fill:#c0bfbc;fill-opacity:1;stroke:none;stroke-width:3.13452;stroke-linecap:round;stroke-linejoin:round;stroke-miterlimit:4;stroke-dasharray:none;stroke-dashoffset:0;stroke-opacity:1;marker:none;marker-start:none;marker-mid:none;marker-end:none;paint-order:normal" /><circle
         style="opacity:1;vector-effect:none;fill:#deddda;fill-opacity:1;stroke:none;stroke-width:3.13452;stroke-linecap:round;stroke-linejoin:round;stroke-miterlimit:4;stroke-dasharray:none;stroke-dashoffset:0;stroke-opacity:1;marker:none;marker-start:none;marker-mid:none;marker-end:none;paint-order:normal"
         id="circle1440"
         cx="44.116116"
         cy="250"
         r="13.883883" /><circle
         style="opacity:1;vector-effect:none;fill:#c0bfbc;fill-opacity:1;stroke:none;stroke-width:3.13452;stroke-linecap:round;stroke-linejoin:round;stroke-miterlimit:4;stroke-dasharray:none;stroke-dashoffset:0;stroke-opacity:1;marker:none;marker-start:none;marker-mid:none;marker-end:none;paint-order:normal"
         id="circle1442"
         cx="84.116119"
         cy="252"
         r="13.883883" /><circle
         r="13.883883"
         cy="250"
         cx="84.116119"
         id="circle1444"
         style="opacity:1;vector-effect:none;fill:#deddda;fill-opacity:1;stroke:none;stroke-width:3.13452;stroke-linecap:round;stroke-linejoin:round;stroke-miterlimit:4;stroke-dasharray:none;stroke-dashoffset:0;stroke-opacity:1;marker:none;marker-start:none;marker-mid:none;marker-end:none;paint-order:normal" /><circle
         r="22"
         cy="219"
         cx="32.116116"
         id="circle1446"
         style="opacity:1;vector-effect:none;fill:#deddda;fill-opacity:1;stroke:none;stroke-width:6.26905;stroke-linecap:square;stroke-linejoin:round;stroke-miterlimit:4;stroke-dasharray:none;stroke-dashoffset:0;stroke-opacity:1" /><circle
         style="opacity:1;vector-effect:none;fill:#deddda;fill-opacity:1;stroke:none;stroke-width:6.26905;stroke-linecap:square;stroke-linejoin:round;stroke-miterlimit:4;stroke-dasharray:none;stroke-dashoffset:0;stroke-opacity:1"
         id="circle1448"
         cx="96.116119"
         cy="219"
         r="22" /><g
         style="stroke-width:0.783634"
         transform="translate(-4,2)"
         id="g1460"><g
           id="g1453"
           transform="matrix(0.25,0,0,0.25,-12,189)"
           style="display:inline;fill:#c0bfbc;fill-opacity:1;stroke-width:0.783634;enable-background:new"><path
             style="opacity:1;fill:#3d3846;fill-opacity:1;stroke:none;stroke-width:0.195908;stroke-linejoin:round;stroke-miterlimit:4;stroke-dasharray:0.783634, 0.391816;stroke-dashoffset:0;stroke-opacity:1"
             d="m 34,36 c -1.108,0 -2,0.892 -2,2 v 6 h -6 c -1.108,0 -2,0.892 -2,2 v 4 c 0,1.108 0.892,2 2,2 h 6 v 6 c 0,1.108 0.892,2 2,2 h 4 c 1.108,0 2,-0.892 2,-2 v -6 h 6 c 1.108,0 2,-0.892 2,-2 v -4 c 0,-1.108 -0.892,-2 -2,-2 h -6 v -6 c 0,-1.108 -0.892,-2 -2,-2 z"
             transform="matrix(4,0,0,4,48,-76)"
             id="path1451" /></g><g
           style="display:inline;fill:#f6f5f4;fill-opacity:1;stroke-width:0.783634;enable-background:new"
           id="g1458"
           transform="matrix(0.25,0,0,0.25,-12,187)"><path
             style="opacity:1;fill:#5e5c64;fill-opacity:1;stroke:none;stroke-width:0.195908;stroke-linejoin:round;stroke-miterlimit:4;stroke-dasharray:0.783634, 0.391816;stroke-dashoffset:0;stroke-opacity:1"
             d="m 34,34 c -1.108,0 -2,0.892 -2,2 v 6 h -6 c -1.108,0 -2,0.892 -2,2 v 4 c 0,1.108 0.892,2 2,2 h 6 v 6 c 0,1.108 0.892,2 2,2 h 4 c 1.108,0 2,-0.892 2,-2 v -6 h 6 c 1.108,0 2,-0.892 2,-2 v -4 c 0,-1.108 -0.892,-2 -2,-2 h -6 v -6 c 0,-1.108 -0.892,-2 -2,-2 z"
             transform="matrix(4,0,0,4,48,-68)"
             id="path1455" /></g></g><g
         id="g1472"
         transform="matrix(-1,0,0,1,-28.492419,-180.77312)"
         style="display:inline;stroke-width:0.783634;enable-background:new"><g
           style="display:inline;stroke-width:0.783634;enable-background:new"
           id="g1466"
           transform="translate(-208.49242,146.77312)"><path
             style="opacity:1;fill:#c01c28;fill-opacity:1;stroke:none;stroke-width:0.783634;stroke-linecap:butt;stroke-linejoin:round;stroke-miterlimit:4;stroke-dasharray:none;stroke-dashoffset:0;stroke-opacity:1"
             d="m 70,256 v 2 c 0,3.324 2.676,6 6,6 3.324,0 6,-2.676 6,-6 v -2 z"
             id="path1462" /><circle
             r="6"
             style="opacity:1;fill:#ed333b;fill-opacity:1;stroke:none;stroke-width:0.195908;stroke-linejoin:round;stroke-miterlimit:4;stroke-dasharray:0.783634, 0.391816;stroke-dashoffset:0;stroke-opacity:1"
             id="circle1464"
             cx="76"
             cy="256" /></g><path
           id="path1468"
           d="m -122.49242,394.77312 v 2 c 0,3.324 2.676,6 6,6 3.324,0 6,-2.676 6,-6 v -2 z"
           style="display:inline;opacity:1;fill:#1a5fb4;fill-opacity:1;stroke:none;stroke-width:0.783634;stroke-linecap:butt;stroke-linejoin:round;stroke-miterlimit:4;stroke-dasharray:none;stroke-dashoffset:0;stroke-opacity:1;enable-background:new" /><circle
           cy="394.77313"
           cx="-116.49242"
           id="circle1470"
           style="display:inline;opacity:1;fill:#3584e4;fill-opacity:1;stroke:none;stroke-width:0.195908;stroke-linejoin:round;stroke-miterlimit:4;stroke-dasharray:0.783634, 0.391816;stroke-dashoffset:0;stroke-opacity:1;enable-background:new"
           r="6" /></g><circle
         r="10"
         cy="250"
         cx="44.116116"
         id="circle1474"
         style="opacity:1;vector-effect:none;fill:#241f31;fill-opacity:1;stroke:none;stroke-width:3.13452;stroke-linecap:round;stroke-linejoin:round;stroke-miterlimit:4;stroke-dasharray:none;stroke-dashoffset:0;stroke-opacity:1;marker:none;marker-start:none;marker-mid:none;marker-end:none;paint-order:normal" /><circle
         style="opacity:1;vector-effect:none;fill:#241f31;fill-opacity:1;stroke:none;stroke-width:3.13452;stroke-linecap:round;stroke-linejoin:round;stroke-miterlimit:4;stroke-dasharray:none;stroke-dashoffset:0;stroke-opacity:1;marker:none;marker-start:none;marker-mid:none;marker-end:none;paint-order:normal"
         id="circle1476"
         cx="84.116119"
         cy="250"
         r="10" /><circle
         style="display:inline;opacity:1;vector-effect:none;fill:#3d3846;fill-opacity:1;stroke:none;stroke-width:3.13452;stroke-linecap:round;stroke-linejoin:round;stroke-miterlimit:4;stroke-dasharray:none;stroke-dashoffset:0;stroke-opacity:1;marker:none;marker-start:none;marker-mid:none;marker-end:none;paint-order:normal;enable-background:new"
         id="circle1478"
         cx="44.116116"
         cy="248"
         r="10" /><circle
         r="10"
         cy="248"
         cx="84.116119"
         id="circle1480"
         style="opacity:1;vector-effect:none;fill:#3d3846;fill-opacity:1;stroke:none;stroke-width:3.13452;stroke-linecap:round;stroke-linejoin:round;stroke-miterlimit:4;stroke-dasharray:none;stroke-dashoffset:0;stroke-opacity:1;marker:none;marker-start:none;marker-mid:none;marker-end:none;paint-order:normal" /><circle
         style="display:inline;opacity:1;vector-effect:none;fill:#77767b;fill-opacity:1;stroke:none;stroke-width:3.13452;stroke-linecap:round;stroke-linejoin:round;stroke-miterlimit:4;stroke-dasharray:none;stroke-dashoffset:0;stroke-opacity:1;marker:none;marker-start:none;marker-mid:none;marker-end:none;paint-order:normal;enable-background:new"
         id="circle1482"
         cx="-248"
         cy="-84"
         r="8"
         transform="matrix(0,-1,-1,0,0,0)" /><circle
         transform="matrix(0,-1,-1,0,0,0)"
         r="8"
         cy="-44.116116"
         cx="-248"
         id="circle1484"
         style="display:inline;opacity:1;vector-effect:none;fill:#77767b;fill-opacity:1;stroke:none;stroke-width:3.13452;stroke-linecap:round;stroke-linejoin:round;stroke-miterlimit:4;stroke-dasharray:none;stroke-dashoffset:0;stroke-opacity:1;marker:none;marker-start:none;marker-mid:none;marker-end:none;paint-order:normal;enable-background:new" /></g></g></svg>
