<svg width="400" height="400" viewBox="0 0 400 400" fill="none" xmlns="http://www.w3.org/2000/svg">
<path d="M385.088 127.068C385.088 130.097 384.496 133.097 383.346 135.896C382.195 138.695 380.509 141.238 378.384 143.38C376.258 145.522 373.735 147.221 370.957 148.38C368.18 149.54 365.204 150.136 362.197 150.136H322.554C319.548 150.136 316.572 150.733 313.795 151.892C311.017 153.052 308.494 154.751 306.368 156.893C304.243 159.035 302.557 161.578 301.406 164.377C300.256 167.175 299.664 170.175 299.664 173.205C299.664 176.234 300.256 179.235 301.406 182.033C302.557 184.832 304.243 187.375 306.368 189.517C308.494 191.659 311.017 193.359 313.795 194.518C316.572 195.677 319.548 196.274 322.554 196.274H371.972C374.978 196.274 377.954 196.871 380.732 198.03C383.509 199.189 386.032 200.888 388.158 203.03C390.283 205.172 391.969 207.715 393.12 210.514C394.27 213.313 394.862 216.313 394.862 219.342C394.862 222.371 394.27 225.371 393.12 228.17C391.969 230.969 390.283 233.512 388.158 235.654C386.032 237.796 383.509 239.495 380.732 240.654C377.954 241.814 374.978 242.41 371.972 242.41H345.445C342.439 242.41 339.462 243.007 336.685 244.166C333.908 245.325 331.385 247.025 329.259 249.167C327.133 251.309 325.447 253.852 324.297 256.651C323.147 259.449 322.554 262.449 322.554 265.478C322.554 268.508 321.962 271.509 320.812 274.307C319.662 277.106 317.976 279.649 315.85 281.791C313.724 283.933 311.201 285.632 308.424 286.792C305.646 287.951 302.67 288.548 299.664 288.548H22.8907C19.8847 288.548 16.9081 287.951 14.1309 286.792C11.3537 285.632 8.8302 283.933 6.70462 281.791C4.57904 279.649 2.89291 277.106 1.74255 274.307C0.592194 271.509 9.15527e-05 268.509 9.15527e-05 265.48C9.15527e-05 262.45 0.592194 259.449 1.74255 256.651C2.89291 253.852 4.57904 251.309 6.70462 249.167C8.8302 247.025 11.3537 245.325 14.1309 244.166C16.9081 243.007 19.8847 242.41 22.8907 242.41H47.8634C50.8694 242.41 53.846 241.814 56.6232 240.654C59.4005 239.495 61.9239 237.796 64.0495 235.654C66.1751 233.512 67.8612 230.969 69.0116 228.17C70.1619 225.371 70.754 222.371 70.754 219.342C70.754 216.313 71.3461 213.313 72.4965 210.514C73.6468 207.715 75.3329 205.172 77.4585 203.03C79.5841 200.888 82.1075 199.189 84.8848 198.03C87.662 196.871 90.6386 196.274 93.6447 196.274H109.061C112.067 196.274 115.044 195.677 117.821 194.518C120.598 193.359 123.122 191.659 125.248 189.517C127.373 187.375 129.059 184.832 130.21 182.033C131.36 179.235 131.952 176.235 131.952 173.206C131.952 170.176 131.36 167.175 130.21 164.377C129.059 161.578 127.373 159.035 125.248 156.893C123.122 154.751 120.598 153.052 117.821 151.892C115.044 150.733 112.067 150.136 109.061 150.136H92.7768C89.7708 150.136 86.7942 149.54 84.0169 148.38C81.2397 147.221 78.7163 145.522 76.5907 143.38C74.4651 141.238 72.779 138.695 71.6286 135.896C70.4782 133.097 69.8862 130.098 69.8862 127.068C69.8862 124.039 70.4782 121.039 71.6286 118.24C72.779 115.442 74.4651 112.899 76.5907 110.756C78.7163 108.614 81.2397 106.915 84.0169 105.756C86.7942 104.597 89.7708 104 92.7768 104H362.197C365.204 104 368.18 104.597 370.957 105.756C373.735 106.915 376.258 108.614 378.384 110.756C380.509 112.899 382.195 115.442 383.346 118.24C384.496 121.039 385.088 124.039 385.088 127.068Z" fill="url(#paint0_linear_43_774)"/>
<rect x="137.93" y="130" width="152.082" height="153.262" rx="32" fill="#F2F2F2"/>
<rect x="166.837" y="159.131" width="29.2466" height="29.4734" rx="8" fill="#DEDDDA"/>
<rect x="200.471" y="159.131" width="29.2466" height="29.4734" rx="8" fill="#DEDDDA"/>
<rect x="234.104" y="159.131" width="29.2466" height="29.4734" rx="8" fill="#DEDDDA"/>
<rect x="166.837" y="193.026" width="29.2466" height="29.4734" rx="8" fill="#DEDDDA"/>
<rect x="200.471" y="193.026" width="29.2466" height="29.4734" rx="8" fill="#DEDDDA"/>
<rect x="234.104" y="193.026" width="29.2466" height="29.4734" rx="8" fill="#DEDDDA"/>
<rect x="166.837" y="226.92" width="29.2466" height="29.4734" rx="8" fill="#DEDDDA"/>
<rect x="200.471" y="226.92" width="29.2466" height="29.4734" rx="8" fill="#DEDDDA"/>
<rect x="234.104" y="226.92" width="29.2466" height="29.4734" rx="8" fill="#DEDDDA"/>
<path d="M170.37 234.988V235.06C170.37 237.54 172.366 239.551 174.827 239.551H177.107C177.669 239.551 178.124 240.009 178.124 240.575V240.995C178.124 241.561 177.669 242.018 177.107 242.019L167.111 242.05C164.65 242.057 162.654 244.06 162.654 246.541V246.613C162.654 249.093 164.65 251.118 167.111 251.104L172.599 251.074H188.861H198.963C201.425 251.074 203.42 249.063 203.42 246.582V246.511C203.42 244.03 201.425 242.028 198.963 242.019L192.751 241.998C192.077 241.996 191.53 241.447 191.53 240.767V240.761C191.53 240.081 192.077 239.529 192.751 239.529H193.679C196.141 239.529 198.136 237.519 198.136 235.038V234.966C198.136 232.486 196.141 230.472 193.679 230.475L174.827 230.497C172.366 230.499 170.37 232.507 170.37 234.988Z" fill="#ED333B"/>
<path d="M224.592 168.6V168.673C224.592 171.19 223.089 173.231 221.234 173.231H219.516C219.093 173.231 218.75 173.697 218.75 174.271V174.697C218.75 175.271 219.093 175.735 219.516 175.737L227.047 175.767C228.902 175.775 230.405 177.808 230.405 180.326V180.399C230.405 182.916 228.902 184.971 227.047 184.957L222.913 184.927H210.661H203.049C201.195 184.927 199.692 182.886 199.692 180.368V180.295C199.692 177.778 201.195 175.745 203.049 175.737L207.73 175.715C208.238 175.712 208.65 175.155 208.65 174.465V174.459C208.65 173.769 208.238 173.209 207.73 173.209H207.031C205.176 173.209 203.673 171.168 203.673 168.651V168.578C203.673 166.06 205.176 164.017 207.031 164.019L221.234 164.041C223.089 164.044 224.592 166.082 224.592 168.6Z" fill="#ED333B"/>
<path d="M256.265 161.874L263.478 156.2L267.079 153.36C272.538 149.063 279.659 148.378 285.601 150.958C290.193 152.951 295.993 153.999 299.975 150.864L390.089 79.9212C391.509 78.8033 392.696 77.4144 393.584 75.8338C394.471 74.2533 395.041 72.5121 395.261 70.7096C395.48 68.9071 395.345 67.0787 394.864 65.3288C394.382 63.5788 393.563 61.9416 392.453 60.5106L378.373 42.3506C377.263 40.9195 375.885 39.7227 374.317 38.8284C372.748 37.9341 371.02 37.3599 369.231 37.1386C367.442 36.9172 365.628 37.0531 363.891 37.5384C362.155 38.0237 360.53 38.849 359.11 39.9671L268.996 110.91C265.014 114.045 264.616 119.964 265.425 124.935C266.471 131.37 264.089 138.166 258.63 142.463L255.029 145.303L244.214 153.816L256.265 161.874Z" fill="black" fill-opacity="0.126742"/>
<path d="M373.134 41.4031L387.215 59.5643C389.456 62.4543 390.466 66.1228 390.022 69.7629C389.579 73.4029 387.718 76.7164 384.85 78.9742L294.736 149.918L263.757 109.963L353.871 39.0196C355.291 37.9016 356.916 37.0764 358.653 36.5912C360.389 36.1059 362.204 35.97 363.992 36.1914C365.781 36.4127 367.509 36.9869 369.077 37.8811C370.646 38.7753 372.024 39.9721 373.134 41.4031Z" fill="#ED333B"/>
<path d="M263.757 109.963C259.776 113.098 259.381 119.019 260.189 123.991C261.236 130.425 258.853 137.221 253.395 141.519L249.79 144.356L258.239 155.253L261.844 152.415C267.302 148.118 274.423 147.433 280.365 150.012C284.958 152.006 290.755 153.052 294.736 149.918L263.757 109.963Z" fill="#241F31"/>
<path d="M249.79 144.356L258.239 155.253L251.03 160.928L238.976 152.869L249.79 144.356Z" fill="#ED333B"/>
<path d="M369.981 67.2831L361.532 56.3864L318.277 90.4393L326.726 101.336L369.981 67.2831Z" fill="#241F31"/>
<path d="M180.552 161.706C195.01 162.749 208.61 169.009 218.858 179.337C230.158 190.724 236.506 206.167 236.506 222.27C236.506 238.373 230.158 253.816 218.858 265.203C208.612 275.525 195.018 281.781 180.567 282.826C166.115 283.87 151.774 279.633 140.171 270.89L125.926 285.251C127.465 291.035 125.995 297.453 121.474 302.008L48.4307 375.61C41.6865 382.406 30.8271 382.406 24.0829 375.61C17.3387 368.814 17.3387 357.872 24.0829 351.076L97.1263 277.474C101.648 272.917 108.015 271.427 113.755 272.981L128.001 258.626C119.324 246.934 115.119 232.484 116.156 217.922C117.192 203.36 123.401 189.662 133.644 179.337C139.752 173.182 147.102 168.422 155.195 165.38C163.288 162.338 171.936 161.085 180.552 161.706Z" fill="black" fill-opacity="0.143283"/>
<path d="M133.644 247.268L145.818 259.535L121.471 284.068L109.297 271.802L133.644 247.268Z" fill="#241F31"/>
<path d="M97.1235 271.802C103.847 265.027 114.748 265.027 121.471 271.802C128.194 278.576 128.194 289.561 121.471 296.335L48.4288 369.936C41.7055 376.711 30.8048 376.711 24.0815 369.936C17.3581 363.161 17.3582 352.177 24.0815 345.403L97.1235 271.802Z" fill="#9141AC"/>
<path d="M218.861 173.667C195.329 149.956 157.177 149.956 133.645 173.667C110.113 197.379 110.113 235.823 133.645 259.535C157.177 283.246 195.329 283.246 218.861 259.535C242.392 235.823 242.392 197.379 218.861 173.667ZM139.731 179.8C159.901 159.476 192.603 159.476 212.773 179.8C232.943 200.125 232.943 233.077 212.773 253.402C192.603 273.726 159.901 273.726 139.731 253.402C119.561 233.077 119.561 200.125 139.731 179.8Z" fill="#3D3846"/>
<path d="M139.731 253.401C119.561 233.077 119.561 200.125 139.731 179.801C159.901 159.476 192.603 159.476 212.773 179.801C232.943 200.125 232.943 233.077 212.773 253.401C192.603 273.726 159.901 273.726 139.731 253.401Z" fill="#3D3846" fill-opacity="0.05"/>
<path d="M100.167 281.002C101.847 279.308 104.573 279.308 106.253 281.002C107.934 282.695 107.934 285.441 106.253 287.135L39.2983 354.603C37.6174 356.296 34.8923 356.296 33.2115 354.603C31.5306 352.909 31.5306 350.163 33.2114 348.469L100.167 281.002Z" fill="#C061CB"/>
<path d="M149.302 184.748C156.334 178.705 164.905 175.375 173.638 174.816C182.973 174.218 192.492 176.787 200.517 182.592" stroke="white" stroke-opacity="0.25" stroke-width="13.7434" stroke-linecap="round" stroke-linejoin="round"/>
<defs>
<linearGradient id="paint0_linear_43_774" x1="375.44" y1="271.96" x2="28.8329" y2="146.238" gradientUnits="userSpaceOnUse">
<stop offset="0.259615" stop-color="#ED333B"/>
<stop offset="0.697115" stop-color="#C061CB"/>
<stop offset="1" stop-color="#1C71D8"/>
</linearGradient>
</defs>
</svg>
