<svg width="401" height="400" viewBox="0 0 401 400" fill="none" xmlns="http://www.w3.org/2000/svg">
<path d="M0 107.236C0 110.156 0.575146 113.047 1.6926 115.745C2.81005 118.443 4.44793 120.894 6.51271 122.959C8.57749 125.024 11.0287 126.662 13.7265 127.779C16.4243 128.896 19.3157 129.472 22.2358 129.472H91.4137C97.311 129.472 102.967 131.814 107.137 135.984C111.307 140.154 113.65 145.81 113.65 151.707C113.65 157.605 111.307 163.26 107.137 167.43C102.967 171.6 97.311 173.943 91.4137 173.943H37.8213C31.924 173.943 26.2683 176.286 22.0983 180.456C17.9283 184.626 15.5856 190.282 15.5856 196.179C15.5856 202.076 17.9283 207.732 22.0983 211.902C26.2683 216.072 31.924 218.415 37.8213 218.415H41.5949C44.5149 218.415 47.4064 218.99 50.1041 220.107C52.8019 221.225 55.2532 222.863 57.3179 224.927C59.3827 226.992 61.0206 229.443 62.138 232.141C63.2555 234.839 63.8306 237.73 63.8306 240.65C63.8306 246.548 61.4879 252.203 57.3179 256.374C53.1479 260.544 47.4922 262.886 41.5949 262.886H32.1183C29.1983 262.886 26.3069 263.461 23.6091 264.579C20.9113 265.696 18.4601 267.334 16.3953 269.399C14.3305 271.464 12.6926 273.915 11.5752 276.613C10.4577 279.31 9.88257 282.202 9.88257 285.122C9.88257 291.019 12.2253 296.675 16.3953 300.845C20.5653 305.015 26.2211 307.358 32.1183 307.358H333.537C336.457 307.358 339.348 306.783 342.046 305.665C344.744 304.548 347.195 302.91 349.26 300.845C351.325 298.78 352.962 296.329 354.08 293.631C355.197 290.934 355.772 288.042 355.772 285.122C355.772 282.202 355.197 279.31 354.08 276.613C352.962 273.915 351.325 271.464 349.26 269.399C347.195 267.334 344.744 265.696 342.046 264.579C339.348 263.461 336.457 262.886 333.537 262.886H247.848C241.951 262.886 236.295 260.544 232.125 256.374C227.955 252.203 225.612 246.548 225.612 240.65C225.612 234.753 227.955 229.097 232.125 224.927C236.295 220.757 241.951 218.415 247.848 218.415H378.008C383.906 218.415 389.561 216.072 393.731 211.902C397.901 207.732 400.244 202.076 400.244 196.179C400.244 190.282 397.901 184.626 393.731 180.456C389.561 176.286 383.906 173.943 378.008 173.943H363.184C357.287 173.943 351.631 171.6 347.461 167.43C343.291 163.26 340.949 157.605 340.949 151.707C340.949 145.81 343.291 140.154 347.461 135.984C351.631 131.814 357.287 129.472 363.184 129.472C369.082 129.472 374.737 127.129 378.907 122.959C383.077 118.789 385.42 113.133 385.42 107.236C385.42 101.338 383.077 95.6827 378.907 91.5127C374.737 87.3427 369.082 85 363.184 85H22.2358C16.3385 85 10.6827 87.3427 6.51271 91.5127C2.34269 95.6827 0 101.338 0 107.236Z" fill="url(#paint0_radial_46_428)"/>
<path d="M298.52 108.048H130.786C118.47 108.048 108.486 118.032 108.486 130.348V252.689C108.486 265.005 118.47 274.989 130.786 274.989H298.52C310.836 274.989 320.82 265.005 320.82 252.689V130.348C320.82 118.032 310.836 108.048 298.52 108.048Z" fill="black" fill-opacity="0.102"/>
<path d="M298.52 104.869H130.786C118.47 104.869 108.486 114.854 108.486 127.17V249.511C108.486 261.827 118.47 271.811 130.786 271.811H298.52C310.836 271.811 320.82 261.827 320.82 249.511V127.17C320.82 114.854 310.836 104.869 298.52 104.869Z" fill="#C29864"/>
<path d="M298.52 103.213H130.786C118.47 103.213 108.486 113.203 108.486 125.527V247.944C108.486 260.267 118.47 270.257 130.786 270.257H298.52C310.836 270.257 320.82 260.267 320.82 247.944V125.527C320.82 113.203 310.836 103.213 298.52 103.213Z" fill="#D2A56D"/>
<ellipse cx="295.765" cy="128.949" rx="12.274" ry="11.4822" fill="#7C6243"/>
<path d="M295.998 115.148C288.261 115.148 282.005 121.404 282.005 129.141C282.005 136.879 288.261 143.134 295.998 143.134C303.735 143.134 309.991 136.879 309.991 129.141C309.991 121.404 303.735 115.148 295.998 115.148ZM292 123.144C292.53 123.144 293.039 123.355 293.413 123.73L295.998 126.314L298.583 123.73C298.958 123.355 299.466 123.144 299.996 123.144C300.526 123.144 301.035 123.355 301.41 123.73C302.19 124.51 302.19 125.776 301.41 126.557L298.825 129.141L301.41 131.726C302.19 132.506 302.19 133.772 301.41 134.553C300.629 135.333 299.363 135.333 298.583 134.553L295.998 131.968L293.413 134.553C292.633 135.333 291.367 135.333 290.587 134.553C289.806 133.772 289.806 132.506 290.587 131.726L293.171 129.141L290.587 126.557C289.806 125.776 289.806 124.51 290.587 123.73C290.961 123.355 291.47 123.144 292 123.144Z" fill="#C29864"/>
<rect x="86.3145" y="162.603" width="132.243" height="133.035" rx="25.3399" fill="black" fill-opacity="0.102"/>
<rect x="86.3145" y="157.852" width="133.315" height="133.315" rx="25.3399" fill="#F2F2F2"/>
<rect x="111.654" y="183.192" width="25.6376" height="25.6376" rx="6.33498" fill="#DEDDDA"/>
<rect x="141.137" y="183.192" width="25.6376" height="25.6376" rx="6.33498" fill="#DEDDDA"/>
<rect x="170.62" y="183.192" width="25.6376" height="25.6376" rx="6.33498" fill="#DEDDDA"/>
<rect x="111.654" y="212.675" width="25.6376" height="25.6376" rx="6.33498" fill="#DEDDDA"/>
<rect x="141.137" y="212.675" width="25.6376" height="25.6376" rx="6.33498" fill="#DEDDDA"/>
<rect x="170.62" y="212.675" width="25.6376" height="25.6376" rx="6.33498" fill="#DEDDDA"/>
<rect x="111.654" y="242.159" width="25.6376" height="25.6376" rx="6.33498" fill="#DEDDDA"/>
<rect x="141.137" y="242.159" width="25.6376" height="25.6376" rx="6.33498" fill="#DEDDDA"/>
<rect x="170.62" y="242.159" width="25.6376" height="25.6376" rx="6.33498" fill="#DEDDDA"/>
<rect x="240.432" y="111.627" width="34.6444" height="34.6444" rx="6.92888" fill="#CC9C62"/>
<path d="M260.892 121.525L258.78 123.646H260.364C260.504 123.646 260.636 123.7 260.735 123.799L262.831 125.908C262.93 126.008 262.988 126.14 262.988 126.281V127.967L265.178 125.767V123.708L263.004 121.525H260.892ZM257.723 124.707L250.331 132.131V136.373H254.617L261.931 129.028V126.501L260.145 124.707H257.723Z" fill="#7C6243"/>
<path d="M320.739 354.241C324.033 356.634 324.758 361.211 322.365 364.504L319.976 367.793C319.913 367.879 319.849 367.963 319.786 368.046C319.756 368.083 319.728 368.118 319.701 368.156C318.919 369.105 317.945 369.813 316.878 370.261C316.606 370.375 316.328 370.471 316.045 370.551C315.986 370.567 315.932 370.584 315.875 370.599C313.827 371.128 311.567 370.768 309.715 369.422L306.426 367.033C306.125 366.815 305.847 366.577 305.588 366.325L305.541 366.39L300.482 362.714L303.791 358.16L304.802 356.769L307.191 353.48L311.51 347.536L316.569 351.211L316.522 351.276C316.842 351.443 317.153 351.636 317.454 351.855L320.739 354.241ZM311.51 347.536L308.206 351.991L303.651 358.26L300.431 362.776L194.71 285.966L193.46 278.069L192.625 272.806L197.889 271.973L205.785 270.722L311.51 347.536Z" fill="black" fill-opacity="0.102"/>
<path d="M194.804 269.622L207.964 267.538L196.889 282.782L194.804 269.622Z" fill="url(#paint1_linear_46_428)"/>
<path d="M194.804 269.622L200.068 268.789L195.638 274.886L194.804 269.622Z" fill="#424048"/>
<path d="M197.997 281.257L206.856 269.062L312.537 345.844L303.677 358.038L197.997 281.257Z" fill="#F6D32D"/>
<path d="M204.704 272.026L207.964 267.538L313.685 344.349L310.384 348.807L204.704 272.026Z" fill="#F9F06B"/>
<path d="M200.149 278.294L196.889 282.781L302.609 359.592L305.829 355.075L200.149 278.294Z" fill="#E5A50A"/>
<path d="M306.976 353.582L309.365 350.294C311.751 347.01 316.346 346.283 319.629 348.668L322.918 351.057C326.201 353.443 326.929 358.038 324.543 361.321L322.154 364.61C319.769 367.893 315.174 368.621 311.89 366.235L308.602 363.846C305.319 361.461 304.591 356.865 306.976 353.582Z" fill="#F66151"/>
<path d="M309.366 350.294C309.521 350.08 309.686 349.878 309.859 349.686C307.998 352.908 308.831 357.056 311.91 359.293L315.199 361.682C318.278 363.92 322.479 363.428 324.968 360.663C324.838 360.887 324.699 361.107 324.544 361.322L322.155 364.61C319.762 367.904 315.184 368.629 311.891 366.236L308.602 363.847C305.309 361.454 304.584 356.876 306.976 353.583L309.366 350.294Z" fill="#ED333B"/>
<path d="M302.657 359.527L313.685 344.349L318.744 348.025L307.716 363.203L302.657 359.527Z" fill="#F6F5F4"/>
<path d="M302.657 359.527L305.965 354.974L311.025 358.649L307.716 363.203L302.657 359.527Z" fill="#DEDDDA"/>
<path d="M148.07 190.814C149.752 186.765 148.946 183.681 151.831 183.772C155.193 184.371 152.27 191.374 154.943 191.658C157.616 191.942 157.413 185.882 159.636 185.3C161.859 184.717 160.537 191.736 162.105 191.615C163.15 191.535 163.747 190.497 163.897 188.501" stroke="#424048" stroke-width="2.09054" stroke-linecap="round" stroke-linejoin="round"/>
<path d="M119.717 264.103C116.077 265.328 113.787 264.333 113.525 261.459C113.709 258.048 119.044 260.02 119 257.332C118.956 254.645 112.967 255.585 112.118 253.45C111.269 251.314 115.218 252.085 116.405 250.501C117.702 249.442 117.989 246.413 112.118 247.205" stroke="#424048" stroke-width="2.09054" stroke-linecap="round" stroke-linejoin="round"/>
<path d="M235.91 128.185C236.363 128.66 237.114 128.678 237.589 128.225C238.064 127.773 238.082 127.021 237.63 126.546L236.77 127.365L235.91 128.185ZM163.14 176.407C163.417 177.002 164.124 177.259 164.719 176.982L174.409 172.468C175.004 172.19 175.261 171.484 174.984 170.889C174.707 170.295 174 170.037 173.406 170.314L164.792 174.327L160.779 165.713C160.502 165.119 159.796 164.861 159.201 165.138C158.606 165.415 158.349 166.122 158.626 166.717L163.14 176.407ZM188.466 134.096L187.657 133.226L188.466 134.096ZM236.77 127.365C237.63 126.546 237.629 126.545 237.629 126.545C237.628 126.544 237.627 126.543 237.627 126.543C237.625 126.541 237.624 126.54 237.622 126.538C237.618 126.533 237.613 126.528 237.607 126.522C237.594 126.509 237.577 126.491 237.555 126.469C237.511 126.425 237.448 126.363 237.367 126.286C237.204 126.13 236.967 125.912 236.658 125.647C236.041 125.117 235.133 124.4 233.954 123.631C231.598 122.093 228.141 120.335 223.737 119.456C214.855 117.682 202.404 119.53 187.657 133.226L188.466 134.096L189.274 134.966C203.558 121.701 215.258 120.185 223.272 121.785C227.314 122.593 230.491 124.208 232.656 125.62C233.737 126.326 234.562 126.979 235.112 127.45C235.387 127.686 235.592 127.876 235.726 128.004C235.793 128.068 235.842 128.116 235.873 128.147C235.888 128.162 235.899 128.173 235.905 128.18C235.908 128.183 235.91 128.185 235.911 128.186C235.911 128.186 235.912 128.186 235.911 128.186C235.911 128.186 235.911 128.186 235.911 128.186C235.91 128.185 235.91 128.185 236.77 127.365ZM188.466 134.096L187.657 133.226C180.674 139.711 174.533 150.334 170.166 159.222C167.972 163.686 166.208 167.75 164.992 170.699C164.384 172.174 163.912 173.371 163.592 174.2C163.432 174.615 163.31 174.938 163.227 175.158C163.186 175.268 163.155 175.353 163.134 175.41C163.123 175.438 163.115 175.46 163.11 175.475C163.107 175.482 163.105 175.488 163.103 175.492C163.103 175.494 163.102 175.496 163.102 175.497C163.102 175.497 163.101 175.498 163.101 175.498C163.101 175.498 163.101 175.499 164.217 175.905C165.333 176.312 165.333 176.312 165.333 176.312C165.333 176.312 165.333 176.312 165.333 176.311C165.334 176.311 165.334 176.309 165.335 176.308C165.336 176.305 165.338 176.3 165.34 176.293C165.345 176.28 165.352 176.26 165.362 176.233C165.382 176.179 165.412 176.098 165.452 175.991C165.532 175.778 165.651 175.462 165.808 175.055C166.123 174.241 166.587 173.061 167.188 171.605C168.39 168.691 170.133 164.676 172.298 160.27C176.649 151.416 182.632 141.135 189.274 134.966L188.466 134.096Z" fill="#424048"/>
<defs>
<radialGradient id="paint0_radial_46_428" cx="0" cy="0" r="1" gradientUnits="userSpaceOnUse" gradientTransform="translate(24.1521 111.528) rotate(13.9617) scale(369.23 369.231)">
<stop offset="0.413462" stop-color="#F66151"/>
<stop offset="1" stop-color="#F6D32D"/>
</radialGradient>
<linearGradient id="paint1_linear_46_428" x1="192.08" y1="278.246" x2="198.133" y2="269.916" gradientUnits="userSpaceOnUse">
<stop stop-color="#D0BB8E"/>
<stop offset="1" stop-color="white"/>
</linearGradient>
</defs>
</svg>
