<svg width="400" height="400" viewBox="0 0 400 400" fill="none" xmlns="http://www.w3.org/2000/svg">
<mask id="mask0_43_780" style="mask-type:alpha" maskUnits="userSpaceOnUse" x="0" y="0" width="400" height="400">
<rect width="400" height="400" fill="white"/>
</mask>
<g mask="url(#mask0_43_780)">
<path d="M288.689 133.125L288.587 133.701C285.078 153.602 266.122 166.894 246.247 163.39L227.835 160.143C223.302 159.344 218.979 162.375 218.179 166.914L217.585 170.283C216.785 174.821 219.81 179.148 224.343 179.948L365.711 204.875C385.586 208.379 398.853 227.353 395.344 247.255L395.242 247.83C391.733 267.732 372.777 281.024 352.902 277.52L247.938 259.012C243.406 258.213 239.083 261.244 238.282 265.782L237.92 267.837C237.12 272.375 240.145 276.702 244.678 277.502L249.109 278.283C268.984 281.788 282.251 300.762 278.742 320.663L278.64 321.239C275.131 341.14 256.175 354.433 236.3 350.928L82.2475 323.764C62.3727 320.26 49.1058 301.286 52.6149 281.384L52.7164 280.809C56.2256 260.907 75.182 247.615 95.0568 251.119L113.37 254.349C117.903 255.148 122.226 252.116 123.026 247.578L123.388 245.524C124.189 240.985 121.163 236.658 116.631 235.859L35.0558 221.475C15.181 217.97 1.91405 198.996 5.4232 179.095L5.5247 178.519C9.03387 158.618 27.9903 145.325 47.865 148.83L69.7184 152.683C75.1671 153.644 80.3639 150 81.326 144.544L81.3342 144.497C82.2963 139.041 78.6591 133.839 73.2105 132.879L65.7189 131.558C45.8441 128.053 32.5772 109.079 36.0863 89.1776L36.1878 88.602C39.697 68.7006 58.6534 55.4083 78.5282 58.9128L259.056 90.7447C278.931 94.2492 292.198 113.223 288.689 133.125Z" fill="url(#paint0_linear_43_780)"/>
<rect x="93.9443" y="173.269" width="231.644" height="74.126" rx="20" fill="#F2F2F2"/>
<rect x="128.228" y="73.1993" width="74.126" height="231.644" rx="20" fill="#F2F2F2"/>
<rect x="156.025" y="92.6574" width="18.5315" height="18.5315" rx="5" fill="#DEDDDA"/>
<rect x="156.025" y="113.969" width="18.5315" height="18.5315" rx="5" fill="#DEDDDA"/>
<rect x="156.025" y="135.28" width="18.5315" height="18.5315" rx="5" fill="#DEDDDA"/>
<rect x="156.025" y="158.444" width="18.5315" height="18.5315" rx="5" fill="#DEDDDA"/>
<rect x="156.025" y="179.755" width="18.5315" height="18.5315" rx="5" fill="#DEDDDA"/>
<rect x="113.402" y="201.067" width="18.5315" height="18.5315" rx="5" fill="#DEDDDA"/>
<rect x="134.713" y="201.067" width="18.5315" height="18.5315" rx="5" fill="#DEDDDA"/>
<rect x="156.025" y="201.067" width="18.5315" height="18.5315" rx="5" fill="#DEDDDA"/>
<rect x="156.025" y="224.231" width="18.5315" height="18.5315" rx="5" fill="#DEDDDA"/>
<rect x="156.025" y="245.542" width="18.5315" height="18.5315" rx="5" fill="#DEDDDA"/>
<rect x="156.025" y="266.853" width="18.5315" height="18.5315" rx="5" fill="#DEDDDA"/>
<rect x="179.189" y="201.067" width="18.5315" height="18.5315" rx="5" fill="#DEDDDA"/>
<rect x="200.5" y="201.067" width="18.5315" height="18.5315" rx="5" fill="#DEDDDA"/>
<rect x="221.811" y="201.067" width="18.5315" height="18.5315" rx="5" fill="#DEDDDA"/>
<rect x="244.976" y="201.067" width="18.5315" height="18.5315" rx="5" fill="#DEDDDA"/>
<rect x="266.287" y="201.067" width="18.5315" height="18.5315" rx="5" fill="#DEDDDA"/>
<rect x="287.598" y="201.067" width="18.5315" height="18.5315" rx="5" fill="#DEDDDA"/>
<path fill-rule="evenodd" clip-rule="evenodd" d="M193.906 145.22C196.378 140.618 201.959 135.414 214.207 132.132L270.542 117.011L282.71 95.934C282.329 95.2448 282.212 94.4407 282.38 93.6716L287.016 71.2064C280.273 64.904 278.469 54.5089 283.271 46.1931C288.855 36.521 301.346 33.1723 311.02 38.7577C320.692 44.3403 324.04 56.8351 318.456 66.5088L318.402 66.5966L318.478 66.5851L299.881 98.7964L299.916 98.8184L292.865 111.019L305.649 107.587L305.66 107.627L341.586 98.001L341.556 98.0704L341.654 98.0442C352.444 95.1531 363.644 101.621 366.535 112.409C369.426 123.198 362.959 134.396 352.171 137.287C342.895 139.772 333.321 135.34 328.978 127.193L306.079 125.857C305.293 125.82 304.547 125.498 303.98 124.953L281.296 131.03L252.54 180.793C239.013 204.219 224.896 196.069 224.896 196.069L258.995 137.006L192.293 154.879C192.293 154.879 191.105 150.436 193.906 145.22ZM290.591 50.4209C289.804 51.7676 289.291 53.257 289.084 54.8031C288.876 56.3491 288.977 57.9209 289.381 59.4277C289.784 60.9344 290.483 62.3462 291.436 63.5812C292.389 64.8162 293.577 65.85 294.932 66.6227C296.279 67.4097 297.768 67.9218 299.314 68.1294C300.86 68.337 302.432 68.236 303.939 67.8323C305.445 67.4286 306.857 66.7302 308.092 65.7774C309.327 64.8246 310.361 63.6364 311.134 62.2815C311.921 60.9346 312.433 59.445 312.641 57.8988C312.849 56.3527 312.748 54.7807 312.344 53.2738C311.94 51.7669 311.242 50.355 310.289 49.1199C309.336 47.8847 308.147 46.8508 306.792 46.078C305.446 45.2911 303.956 44.779 302.41 44.5713C300.865 44.3637 299.293 44.4646 297.786 44.8683C296.28 45.272 294.868 45.9704 293.633 46.9231C292.398 47.8758 291.365 49.064 290.592 50.4188L290.591 50.4209ZM336.614 111.722C335.836 113.074 335.333 114.566 335.134 116.113C334.934 117.66 335.043 119.231 335.454 120.736C335.85 122.245 336.541 123.66 337.488 124.9C338.434 126.14 339.617 127.18 340.968 127.96C342.32 128.74 343.812 129.244 345.359 129.444C346.907 129.643 348.478 129.533 349.983 129.121C351.492 128.726 352.907 128.035 354.147 127.088C355.387 126.142 356.427 124.959 357.207 123.608C357.987 122.258 358.491 120.766 358.691 119.218C358.89 117.671 358.781 116.1 358.369 114.596C357.973 113.087 357.282 111.671 356.336 110.431C355.39 109.191 354.207 108.15 352.856 107.37C351.504 106.59 350.012 106.086 348.465 105.886C346.918 105.687 345.346 105.796 343.841 106.208C340.654 107.062 338.13 109.1 336.616 111.722L336.614 111.722Z" fill="black" fill-opacity="0.102"/>
<path fill-rule="evenodd" clip-rule="evenodd" d="M308.24 105.496L310.865 115.294L194.082 146.586L191.169 144.89C191.169 144.89 196.496 131.936 216.533 126.567L260.637 114.759L265.096 113.734L269.312 115.926L308.24 105.496Z" fill="#9A9996"/>
<path fill-rule="evenodd" clip-rule="evenodd" d="M304.151 103.056L308.381 118.843L190.798 150.349C190.798 150.349 186.579 134.603 212.709 127.601L304.151 103.056Z" fill="white"/>
<path fill-rule="evenodd" clip-rule="evenodd" d="M340.09 93.4697L300.895 103.972C297.629 104.847 298.504 108.113 298.504 108.113L301.146 117.972C301.146 117.972 301.763 121.164 304.584 121.329L328.179 122.703L340.09 93.4697Z" fill="#ED333B"/>
<path d="M360.957 108.97C358.657 100.387 349.835 95.2938 341.252 97.5935C332.67 99.8932 327.576 108.715 329.876 117.298C332.176 125.881 340.998 130.974 349.58 128.674C358.163 126.375 363.257 117.553 360.957 108.97Z" stroke="#ED333B" stroke-width="9.12337" stroke-linecap="round" stroke-linejoin="round"/>
<path d="M356.772 110.004C355.08 103.69 348.591 99.9435 342.277 101.635C335.964 103.327 332.217 109.816 333.909 116.13C335.6 122.443 342.09 126.19 348.403 124.498C354.717 122.807 358.464 116.317 356.772 110.004Z" stroke="#E01B24" stroke-width="3.64935" stroke-linecap="round" stroke-linejoin="round"/>
<path fill-rule="evenodd" clip-rule="evenodd" d="M298.254 94.3846L284.1 86.2126L223.235 191.634C223.235 191.634 237.353 199.785 250.878 176.358L298.254 94.3846Z" fill="white"/>
<path fill-rule="evenodd" clip-rule="evenodd" d="M316.816 62.1515L296.527 97.2919C294.836 100.22 291.908 98.5296 291.908 98.5296L283.069 93.4262C283.069 93.4262 280.146 92.0039 280.716 89.2371L285.496 66.0904L316.816 62.1515Z" fill="#ED333B"/>
<path d="M307.245 37.9836C314.94 42.4264 317.576 52.266 313.133 59.9611C308.691 67.6562 298.851 70.2927 291.156 65.8499C283.461 61.4071 280.824 51.5675 285.267 43.8724C289.71 36.1773 299.549 33.5408 307.245 37.9836Z" stroke="#ED333B" stroke-width="9.12337" stroke-linecap="round" stroke-linejoin="round"/>
<path d="M305.163 41.758C310.824 45.0261 312.763 52.2642 309.495 57.9247C306.227 63.5853 298.989 65.5247 293.328 62.2566C287.668 58.9884 285.728 51.7504 288.997 46.0898C292.265 40.4293 299.503 38.4899 305.163 41.758Z" stroke="#E01B24" stroke-width="3.64935" stroke-linecap="round" stroke-linejoin="round"/>
<path d="M275.38 117.085C273.763 116.151 271.695 116.705 270.761 118.323C269.827 119.94 270.382 122.008 271.999 122.942C273.616 123.876 275.684 123.321 276.618 121.704C277.552 120.087 276.998 118.019 275.38 117.085Z" fill="#3D3846"/>
<path d="M276.538 361.93L398.325 208.409C398.716 207.916 398.934 207.309 398.946 206.68C398.957 206.051 398.762 205.435 398.39 204.928C398.017 204.421 397.489 204.051 396.885 203.873C396.281 203.696 395.636 203.722 395.049 203.948L363.433 216.084L238.757 263.943C237.768 264.322 236.971 265.079 236.54 266.047C236.109 267.015 236.08 268.114 236.46 269.103L271.177 359.543C271.372 360.052 271.665 360.517 272.041 360.913C272.416 361.308 272.865 361.626 273.363 361.847C273.861 362.069 274.397 362.19 274.942 362.205C275.487 362.219 276.029 362.126 276.538 361.93ZM280.102 316.459L265.741 279.048L330.538 254.175L280.102 316.459Z" fill="black" fill-opacity="0.102"/>
<path d="M273.178 357.572L394.964 204.051C395.355 203.558 395.573 202.95 395.585 202.321C395.597 201.692 395.402 201.077 395.029 200.57C394.657 200.063 394.128 199.692 393.525 199.515C392.921 199.338 392.276 199.364 391.689 199.589L360.073 211.726L235.397 259.584C234.408 259.964 233.61 260.721 233.179 261.689C232.749 262.656 232.72 263.756 233.099 264.744L267.816 355.185C268.012 355.694 268.305 356.159 268.68 356.554C269.055 356.95 269.505 357.267 270.003 357.489C270.5 357.711 271.037 357.832 271.582 357.846C272.127 357.861 272.669 357.767 273.178 357.572ZM276.741 312.101L262.381 274.69L327.177 249.817L276.741 312.101Z" fill="#F5C211"/>
<path d="M273.177 357.572L398.118 203.286C398.545 202.758 398.786 202.104 398.804 201.426C398.822 200.747 398.615 200.082 398.216 199.532C397.817 198.983 397.248 198.581 396.597 198.388C395.946 198.195 395.25 198.223 394.616 198.466L363.947 210.239L235.542 259.529L273.177 357.572ZM280.615 310.614L266.255 273.203L331.051 248.33L280.615 310.614Z" fill="#F6D32D"/>
<path d="M242.548 265.933L239.505 258.007" stroke="#B38108" stroke-width="1.83259"/>
<path d="M266.326 256.805L263.284 248.879" stroke="#B38108" stroke-width="1.83259"/>
<path d="M290.105 247.678L287.062 239.751" stroke="#B38108" stroke-width="1.83259"/>
<path d="M313.884 238.55L310.841 230.624" stroke="#B38108" stroke-width="1.83259"/>
<path d="M337.662 229.422L334.62 221.496" stroke="#B38108" stroke-width="1.83259"/>
<path d="M361.441 220.294L358.398 212.368" stroke="#B38108" stroke-width="1.83259"/>
<path d="M385.22 211.167L382.177 203.24" stroke="#B38108" stroke-width="1.83259"/>
<path d="M246.086 260.937L244.261 256.181" stroke="#B38108" stroke-width="1.83258"/>
<path d="M250.842 259.112L249.017 254.356" stroke="#B38108" stroke-width="1.83258"/>
<path d="M255.598 257.286L253.773 252.53" stroke="#B38108" stroke-width="1.83258"/>
<path d="M260.354 255.461L258.528 250.705" stroke="#B38108" stroke-width="1.83258"/>
<path d="M269.865 251.809L268.04 247.054" stroke="#B38108" stroke-width="1.83258"/>
<path d="M274.621 249.984L272.795 245.228" stroke="#B38108" stroke-width="1.83258"/>
<path d="M279.377 248.158L277.551 243.403" stroke="#B38108" stroke-width="1.83258"/>
<path d="M284.132 246.333L282.307 241.577" stroke="#B38108" stroke-width="1.83258"/>
<path d="M293.644 242.682L291.818 237.926" stroke="#B38108" stroke-width="1.83258"/>
<path d="M298.399 240.856L296.574 236.1" stroke="#B38108" stroke-width="1.83258"/>
<path d="M303.155 239.031L301.33 234.275" stroke="#B38108" stroke-width="1.83258"/>
<path d="M307.911 237.205L306.086 232.449" stroke="#B38108" stroke-width="1.83258"/>
<path d="M317.422 233.554L315.597 228.798" stroke="#B38108" stroke-width="1.83258"/>
<path d="M322.178 231.728L320.353 226.973" stroke="#B38108" stroke-width="1.83258"/>
<path d="M326.934 229.903L325.108 225.147" stroke="#B38108" stroke-width="1.83258"/>
<path d="M331.69 228.077L329.864 223.322" stroke="#B38108" stroke-width="1.83258"/>
<path d="M341.201 224.426L339.376 219.67" stroke="#B38108" stroke-width="1.83258"/>
<path d="M345.957 222.601L344.131 217.845" stroke="#B38108" stroke-width="1.83258"/>
<path d="M350.712 220.775L348.887 216.019" stroke="#B38108" stroke-width="1.83258"/>
<path d="M355.468 218.949L353.643 214.194" stroke="#B38108" stroke-width="1.83258"/>
<path d="M364.98 215.298L363.154 210.543" stroke="#B38108" stroke-width="1.83258"/>
<path d="M369.735 213.473L367.91 208.717" stroke="#B38108" stroke-width="1.83258"/>
<path d="M374.491 211.647L372.666 206.892" stroke="#B38108" stroke-width="1.83258"/>
<path d="M379.247 209.822L377.421 205.066" stroke="#B38108" stroke-width="1.83258"/>
<path d="M388.758 206.171L386.933 201.415" stroke="#B38108" stroke-width="1.83258"/>
<path d="M393.514 204.345L391.689 199.589" stroke="#B38108" stroke-width="1.83258"/>
</g>
<defs>
<linearGradient id="paint0_linear_43_780" x1="-2.99032" y1="246.541" x2="303.094" y2="300.512" gradientUnits="userSpaceOnUse">
<stop stop-color="#1C71D8"/>
<stop offset="1" stop-color="#33D17A"/>
</linearGradient>
</defs>
</svg>
